<svg xmlns="http://www.w3.org/2000/svg" xmlns:xlink="http://www.w3.org/1999/xlink" version="1.1" id="レイヤー_1" x="0px" y="0px" viewBox="0 0 42.9 42.9" style="enable-background:new 0 0 42.9 42.9;" xml:space="preserve"><style type="text/css">.st0{fill:#000000;}</style><title>アセット 4</title><g id="レイヤー_2"><g id="レイヤー_1-2"><path class="st0" d="M35.5,10c0-1.4-1.2-2.6-2.6-2.6s-2.6,1.2-2.6,2.6s1.2,2.6,2.6,2.6l0,0l0,0C34.3,12.6,35.5,11.4,35.5,10     M21.5,28.6c-3.9,0-7.2-3.2-7.2-7.1s3.2-7.2,7.1-7.2s7.2,3.2,7.2,7.1c0,0,0,0,0,0l0,0C28.6,25.4,25.4,28.6,21.5,28.6 M21.5,10.4    c-6.1,0-11,4.9-11,11s4.9,11,11,11s11-4.9,11-11S27.5,10.4,21.5,10.4L21.5,10.4 M21.5,0c-5.8,0-6.6,0-8.8,0.1    c-1.8,0-3.5,0.4-5.2,1C6,1.7,4.7,2.5,3.6,3.6C2.5,4.7,1.7,6,1.1,7.4c-0.6,1.7-1,3.4-1,5.2C0,14.9,0,15.6,0,21.5s0,6.5,0.1,8.8    c0,1.8,0.4,3.5,1,5.2c0.5,1.4,1.4,2.7,2.5,3.8c1.1,1.1,2.4,1.9,3.8,2.5c1.7,0.6,3.4,1,5.2,1c2.3,0.1,3,0.1,8.8,0.1s6.5,0,8.8-0.1    c1.8,0,3.5-0.4,5.2-1c2.9-1.1,5.2-3.4,6.3-6.3c0.6-1.7,1-3.4,1-5.2c0.1-2.3,0.1-3,0.1-8.8s0-6.6-0.1-8.8c0-1.8-0.4-3.5-1-5.2    c-0.5-1.4-1.4-2.7-2.5-3.8c-1.1-1.1-2.4-1.9-3.8-2.5c-1.7-0.6-3.4-1-5.2-1C28,0,27.3,0,21.5,0 M21.5,3.9c5.7,0,6.4,0,8.7,0.1    c1.4,0,2.7,0.3,4,0.7c0.9,0.3,1.8,0.9,2.5,1.6c0.7,0.7,1.3,1.5,1.6,2.5c0.5,1.3,0.7,2.6,0.7,4C39,15,39,15.7,39,21.5    s0,6.4-0.1,8.7c0,1.4-0.3,2.7-0.7,4c-0.7,1.9-2.2,3.3-4.1,4.1c-1.3,0.5-2.6,0.7-4,0.7c-2.3,0.1-2.9,0.1-8.7,0.1s-6.4,0-8.7-0.1    c-1.4,0-2.7-0.3-4-0.7c-0.9-0.3-1.8-0.9-2.5-1.6c-0.7-0.7-1.3-1.5-1.6-2.5c-0.5-1.3-0.7-2.6-0.7-4c-0.1-2.3-0.1-2.9-0.1-8.7    S3.9,15,4,12.8c0-1.4,0.3-2.7,0.7-4C5.1,7.9,5.6,7,6.3,6.3C7,5.6,7.9,5.1,8.8,4.7c1.3-0.5,2.6-0.7,4-0.7    C15.1,3.9,15.7,3.9,21.5,3.9"/></g></g></svg>
