<svg width="15" height="15" viewBox="0 0 15 15" fill="none" xmlns="http://www.w3.org/2000/svg">
<path d="M7.24355 1.32562C9.17894 1.32562 9.40813 1.33411 10.1693 1.36805C10.8766 1.39916 11.2586 1.51796 11.5133 1.61695C11.85 1.74706 12.0933 1.90545 12.3452 2.15718C12.5998 2.41173 12.7554 2.65215 12.8856 2.98873C12.9846 3.24328 13.1035 3.62795 13.1346 4.33222C13.1686 5.09589 13.177 5.32499 13.177 7.25679C13.177 9.19142 13.1686 9.42053 13.1346 10.1814C13.1035 10.8885 12.9846 11.2703 12.8856 11.5249C12.7554 11.8614 12.597 12.1047 12.3452 12.3564C12.0905 12.611 11.85 12.7665 11.5133 12.8966C11.2586 12.9956 10.8738 13.1144 10.1693 13.1455C9.4053 13.1795 9.17611 13.188 7.24355 13.188C5.30816 13.188 5.07897 13.1795 4.31784 13.1455C3.61046 13.1144 3.22847 12.9956 2.97382 12.8966C2.63711 12.7665 2.39377 12.6081 2.14194 12.3564C1.88728 12.1019 1.73166 11.8614 1.6015 11.5249C1.50247 11.2703 1.38363 10.8856 1.35251 10.1814C1.31855 9.4177 1.31006 9.1886 1.31006 7.25679C1.31006 5.32216 1.31855 5.09306 1.35251 4.33222C1.38363 3.62512 1.50247 3.24328 1.6015 2.98873C1.73166 2.65215 1.89011 2.4089 2.14194 2.15718C2.3966 1.90262 2.63711 1.74706 2.97382 1.61695C3.22847 1.51796 3.61329 1.39916 4.31784 1.36805C5.07897 1.33411 5.30816 1.32562 7.24355 1.32562ZM7.24355 0.0217285C5.27704 0.0217285 5.03087 0.0302137 4.25842 0.0641546C3.48879 0.0980955 2.95967 0.222545 2.50129 0.400735C2.0231 0.58741 1.61848 0.833481 1.21669 1.23794C0.81207 1.63958 0.565902 2.04404 0.379155 2.51921C0.200895 2.98024 0.0763968 3.50633 0.0424427 4.27565C0.00848854 5.05064 0 5.29671 0 7.26245C0 9.22819 0.00848854 9.47426 0.0424427 10.2464C0.0763968 11.0157 0.200895 11.5447 0.379155 12.0029C0.565902 12.4809 0.81207 12.8853 1.21669 13.287C1.61848 13.6886 2.0231 13.9375 2.49846 14.1213C2.95967 14.2995 3.48596 14.424 4.25559 14.4579C5.02804 14.4919 5.27421 14.5003 7.24072 14.5003C9.20723 14.5003 9.4534 14.4919 10.2259 14.4579C10.9955 14.424 11.5246 14.2995 11.983 14.1213C12.4583 13.9375 12.863 13.6886 13.2648 13.287C13.6665 12.8853 13.9155 12.4809 14.0995 12.0057C14.2777 11.5447 14.4022 11.0186 14.4362 10.2492C14.4701 9.47709 14.4786 9.23102 14.4786 7.26528C14.4786 5.29954 14.4701 5.05346 14.4362 4.28131C14.4022 3.51198 14.2777 2.98307 14.0995 2.52487C13.9212 2.04404 13.675 1.63958 13.2704 1.23794C12.8686 0.83631 12.464 0.58741 11.9886 0.403563C11.5274 0.225374 11.0011 0.100924 10.2315 0.066983C9.45623 0.0302137 9.21006 0.0217285 7.24355 0.0217285Z" fill="white"/>
<path d="M7.24355 3.5431C5.18933 3.5431 3.52274 5.20903 3.52274 7.26245C3.52274 9.31587 5.18933 10.9818 7.24355 10.9818C9.29778 10.9818 10.9644 9.31587 10.9644 7.26245C10.9644 5.20903 9.29778 3.5431 7.24355 3.5431ZM7.24355 9.67508C5.91085 9.67508 4.82998 8.59463 4.82998 7.26245C4.82998 5.93027 5.91085 4.84982 7.24355 4.84982C8.57625 4.84982 9.65712 5.93027 9.65712 7.26245C9.65712 8.59463 8.57625 9.67508 7.24355 9.67508Z" fill="white"/>
<path d="M11.9802 3.39599C11.9802 3.87682 11.5897 4.26431 11.1115 4.26431C10.6305 4.26431 10.2428 3.87399 10.2428 3.39599C10.2428 2.91516 10.6333 2.52767 11.1115 2.52767C11.5897 2.52767 11.9802 2.91799 11.9802 3.39599Z" fill="white"/>
</svg>
