<svg width="80" height="31" viewBox="0 0 80 31" fill="none" xmlns="http://www.w3.org/2000/svg">
<path d="M3.27973 0H0V23.2832H3.27973V0Z" fill="white"/>
<path d="M13.7736 13.2592L9.17909 0H5.90417V23.2832H9.17909V10.0097L13.7736 23.2832H13.7784H17.0485V0H13.7736V13.2592Z" fill="white"/>
<path d="M22.9533 10.3518H27.543V7.12606H22.9533V3.23523H28.853V0H22.9533C22.5226 0 22.0961 0.0836817 21.6982 0.246267C21.3003 0.408853 20.9387 0.647158 20.6342 0.947577C20.3296 1.248 20.0881 1.60464 19.9232 1.99716C19.7584 2.38968 19.6736 2.81037 19.6736 3.23523V23.2784H22.9533V10.3518Z" fill="white"/>
<path d="M48.5265 23.2784H54.4214V20.048H48.5265V3.23523H54.4214V0H48.5265C47.6605 0.00502445 46.8317 0.348246 46.2216 0.954561C45.6114 1.56088 45.2696 2.38091 45.2709 3.23523V20.048C45.2709 20.9015 45.6133 21.7203 46.2233 22.3256C46.8333 22.9309 47.6613 23.2734 48.5265 23.2784Z" fill="white"/>
<path d="M80 20.2855V13.4825C79.9974 12.6265 79.6506 11.8066 79.0357 11.2027C78.4207 10.5988 77.588 10.2603 76.7202 10.2615H73.4405V3.47276H79.3402V0.237534H73.4405C72.5707 0.237534 71.7365 0.578387 71.1214 1.18511C70.5063 1.79183 70.1608 2.61473 70.1608 3.47276V10.2615C70.1608 11.1158 70.5038 11.9354 71.1149 12.5408C71.7259 13.1462 72.5552 13.4882 73.4212 13.492H76.7154V20.2855H70.1656V23.5207H76.7202C77.5901 23.5207 78.4243 23.1799 79.0393 22.5732C79.6544 21.9664 80 21.1435 80 20.2855Z" fill="white"/>
<path d="M60.3262 23.2784H64.2609C65.1307 23.2784 65.9649 22.9376 66.58 22.3309C67.1951 21.7241 67.5406 20.9013 67.5406 20.0432V0H64.2609V20.048H60.3262V0H57.0513V20.048C57.0513 20.9047 57.3963 21.7264 58.0105 22.3323C58.6246 22.9381 59.4576 23.2784 60.3262 23.2784Z" fill="white"/>
<path d="M34.0982 23.2784H39.3476C40.2158 23.2772 41.0481 22.9364 41.6619 22.3309C42.2758 21.7253 42.6213 20.9044 42.6226 20.048V3.23523C42.6226 2.37719 42.277 1.5543 41.6619 0.947577C41.0469 0.340854 40.2127 0 39.3428 0L34.0982 0C33.2292 0.00125876 32.3962 0.342668 31.7821 0.949255C31.1681 1.55584 30.8232 2.37802 30.8232 3.23523V20.048C30.8245 20.9044 31.17 21.7253 31.7839 22.3309C32.3977 22.9364 33.23 23.2772 34.0982 23.2784ZM34.0982 3.23048H39.3428V20.048H34.0982V3.23048Z" fill="white"/>
<path d="M17.0488 27.1645H0V30.3998H17.0488V27.1645Z" fill="white"/>
<path d="M79.9994 27.1645H19.6736V30.3998H79.9994V27.1645Z" fill="white"/>
</svg>
