<svg width="574" height="80" viewBox="0 0 574 80" fill="none" xmlns="http://www.w3.org/2000/svg">
<path d="M0 40.4771V40.2652C0 18.5872 16.4008 0.837799 39.8954 0.837799C54.3241 0.837799 62.9643 5.62844 70.0722 12.5954L59.3607 24.904C53.4586 19.5623 47.4431 16.2979 39.796 16.2979C26.8996 16.2979 17.6067 26.9673 17.6067 40.0391V40.251C17.6067 53.3228 26.6726 64.2042 39.796 64.2042C48.5356 64.2042 53.8985 60.7137 59.914 55.273L70.6256 66.0555C62.7515 74.4356 54.012 79.6643 39.2569 79.6643C16.7271 79.6643 0 62.353 0 40.4771Z" fill="#1A1A1A"/>
<path d="M71.25 40.4771V40.2652C71.25 18.5872 88.4169 0.837799 112.025 0.837799C135.633 0.837799 152.587 18.3611 152.587 40.0391V40.251C152.587 61.9149 135.42 79.6643 111.812 79.6643C88.2041 79.6643 71.2642 62.1269 71.2642 40.463L71.25 40.4771ZM134.98 40.4771V40.2652C134.98 27.1934 125.361 16.312 111.812 16.312C98.2631 16.312 88.8567 26.9814 88.8567 40.0532V40.2652C88.8567 53.337 98.4759 64.2184 112.025 64.2184C125.574 64.2184 134.98 53.549 134.98 40.4771Z" fill="#1A1A1A"/>
<path d="M160.319 2.13803H175.84L222.276 62.9184H233.754V78.3643H213.99L176.933 29.9068V78.3643H160.319V2.13803Z" fill="#1A1A1A"/>
<path d="M248.977 17.6122H225.695V2.13803H289.099V17.6122H265.817V78.3643H248.991V17.6122H248.977Z" fill="#1A1A1A"/>
<path d="M296.661 2.13803H331.647C341.38 2.13803 348.914 4.86544 353.95 9.86806C358.206 14.1076 360.505 20.0994 360.505 27.2924V27.5044C360.505 39.8131 353.837 47.5431 344.104 51.1326L362.803 78.3502H343.125L326.724 53.9589H313.501V78.3502H296.661V2.13803ZM330.541 39.163C338.741 39.163 343.437 34.8105 343.437 28.3806V28.1686C343.437 20.9756 338.415 17.2872 330.214 17.2872H313.487V39.1772H330.541V39.163Z" fill="#1A1A1A"/>
<path d="M397.365 1.60104H412.886L445.688 78.3643H428.095L421.101 61.265H388.739L381.744 78.3643H364.578L397.365 1.60104ZM415.071 46.455L404.899 21.7387L394.726 46.455H415.057H415.071Z" fill="#1A1A1A"/>
<path d="M446.624 67.2565L456.569 55.3859C463.45 61.0527 470.672 64.6422 479.411 64.6422C486.292 64.6422 490.449 61.9147 490.449 57.4491V57.2372C490.449 52.9977 487.824 50.8072 475.041 47.5428C459.634 43.6284 449.688 39.3747 449.688 24.2397V24.0277C449.688 10.1928 460.84 1.04962 476.474 1.04962C487.626 1.04962 497.131 4.54015 504.892 10.744L496.153 23.3777C489.371 18.7001 482.703 15.8596 476.262 15.8596C469.82 15.8596 466.43 18.799 466.43 22.5015V22.7135C466.43 27.7161 469.707 29.3554 482.93 32.7328C498.451 36.7604 507.205 42.3141 507.205 55.5979V55.8099C507.205 70.9449 495.613 79.438 479.113 79.438C467.522 79.438 455.832 75.4105 446.652 67.2424L446.624 67.2565Z" fill="#1A1A1A"/>
<path d="M533.878 17.6122H510.596V2.13803H574V17.6122H550.718V78.3643H533.878V17.6122Z" fill="#1A1A1A"/>
</svg>
