<svg width="117" height="70" viewBox="0 0 117 70" fill="none" xmlns="http://www.w3.org/2000/svg">
<g clip-path="url(#clip0_197_5349)">
<path d="M57.1465 41.0098L56.3673 43.1626H57.9175L57.1641 41.0098H57.1465Z" fill="white"/>
<mask id="mask0_197_5349" style="mask-type:luminance" maskUnits="userSpaceOnUse" x="35" y="12" width="48" height="46">
<path d="M82.1636 12.623H35.1016V57.8488H82.1636V12.623Z" fill="white"/>
</mask>
<g mask="url(#mask0_197_5349)">
<path d="M52.3204 33.0215H50.879V34.6762H52.3204C52.5637 34.6944 52.8052 34.6242 52.999 34.4789C53.0811 34.3941 53.1437 34.2932 53.1827 34.1827C53.2216 34.0722 53.236 33.9549 53.2248 33.8385C53.2356 33.7252 53.2209 33.6109 53.1819 33.5036C53.1429 33.3964 53.0805 33.2988 52.999 33.2177C52.8039 33.0754 52.5629 33.0069 52.3204 33.0249" fill="white"/>
<path d="M50.6204 29.2266C50.8557 29.3376 51.1134 29.3952 51.3745 29.3952C51.6355 29.3952 51.8933 29.3376 52.1285 29.2266C52.3303 29.119 52.5028 28.9655 52.6316 28.779C52.7626 28.5874 52.8577 28.3745 52.9124 28.1502C52.9713 27.9151 53.0008 27.6739 53.0002 27.4318C53.0009 27.1799 52.9715 26.9288 52.9124 26.6836C52.8587 26.454 52.7636 26.2356 52.6316 26.0387C52.5038 25.8502 52.3311 25.6951 52.1285 25.5866C51.8933 25.4756 51.6355 25.418 51.3745 25.418C51.1134 25.418 50.8557 25.4756 50.6204 25.5866C50.4182 25.6951 50.2459 25.8503 50.1185 26.0387C49.9864 26.2355 49.8913 26.454 49.8377 26.6836C49.7786 26.9288 49.7492 27.1799 49.7499 27.4318C49.7494 27.6739 49.7788 27.9151 49.8377 28.1502C49.8924 28.3745 49.9875 28.5875 50.1185 28.779C50.2469 28.9655 50.419 29.1189 50.6204 29.2266Z" fill="white"/>
<path d="M46.9672 41.7728C47.0461 41.7085 47.1079 41.6263 47.1472 41.5334C47.1866 41.4404 47.2023 41.3394 47.193 41.2392C47.198 41.1223 47.1722 41.0061 47.1181 40.9018C47.0706 40.8172 47.0012 40.7463 46.9169 40.6964C46.8277 40.6451 46.7298 40.6101 46.6279 40.5931C46.5159 40.5738 46.4023 40.5642 46.2886 40.5645H45.0566V41.9415H46.3892C46.5949 41.95 46.7979 41.8924 46.9672 41.7774" fill="white"/>
<path d="M46.1561 33.4648L45.3769 35.6176H46.9271L46.1737 33.4648H46.1561Z" fill="white"/>
<path d="M80.9365 25.3894L67.6418 13.5698C66.9563 12.9605 66.0642 12.623 65.1391 12.623L43.7574 12.623C43.0953 12.6239 42.4454 12.7977 41.8745 13.1267C41.3037 13.4557 40.8325 13.9278 40.5095 14.4947L35.5674 23.1621C35.2158 23.7773 35.0533 24.4791 35.0994 25.1829L36.4472 45.3417C36.4869 45.9393 36.6757 46.5182 36.9971 47.0275C37.3184 47.5367 37.7624 47.9608 38.29 48.2622L54.195 57.3507C54.6286 57.5986 55.1089 57.758 55.6069 57.8193C56.1049 57.8806 56.6104 57.8426 57.093 57.7076L72.2644 53.4617C72.8533 53.297 73.3917 52.9925 73.832 52.5752C74.2724 52.1579 74.6012 51.6406 74.7893 51.0691L81.9813 29.2165C82.2016 28.547 82.2203 27.8294 82.0352 27.1498C81.8501 26.4702 81.469 25.8574 80.9377 25.3848M61.9626 24.4668L63.3666 26.7837L64.7577 24.4668H66.2214L63.9984 28.0827V30.3342H62.6821V28.0506L60.4884 24.4737L61.9626 24.4668ZM54.8747 24.4668H56.1898V26.8996L58.5298 24.4668H60.1678L57.8278 26.7837L60.3913 30.333H58.7451L56.9433 27.6937L56.1898 28.4419V30.3319H54.8724L54.8747 24.4668ZM55.0596 33.0963V32.0165H59.9607V33.1009H58.1671V37.8839H56.852V33.1021L55.0596 33.0963ZM43.4391 24.4668H48.3403V25.5512H46.5467V30.3342H45.2316V25.5581H43.438L43.4391 24.4668ZM48.5743 44.4914C48.4631 44.7019 48.3028 44.8836 48.1063 45.0216C47.9005 45.162 47.6706 45.265 47.4277 45.3257C47.1718 45.3916 46.9083 45.4248 46.6438 45.4244H43.7398V39.5627H46.5549C46.8165 39.5604 47.0777 39.585 47.3341 39.6362C47.5491 39.6776 47.7538 39.7599 47.9366 39.8783C48.1047 39.9909 48.2392 40.1454 48.3262 40.3258C48.4244 40.5422 48.4716 40.7776 48.4643 41.0144C48.4739 41.2755 48.4021 41.5333 48.2584 41.7534C48.1035 41.9649 47.8939 42.1321 47.6511 42.2376C47.9835 42.3179 48.2759 42.5115 48.476 42.7839C48.6359 43.0383 48.7284 43.3279 48.7451 43.6263C48.7619 43.9247 48.7024 44.2224 48.5719 44.4925M47.7167 37.8804L47.2674 36.5791H45.0303L44.5623 37.8862H43.2367L45.4995 32.0165H46.8485L49.0856 37.8839L47.7167 37.8804ZM48.6293 28.6221C48.4927 28.2378 48.4247 27.8333 48.428 27.4263C48.4244 27.0115 48.4924 26.599 48.6293 26.2065C48.755 25.8453 48.9513 25.5117 49.2072 25.2242C49.4632 24.9414 49.779 24.717 50.1327 24.5667C50.9262 24.249 51.815 24.249 52.6084 24.5667C52.9607 24.7178 53.2752 24.9421 53.5304 25.2242C53.7863 25.5117 53.9827 25.8453 54.1084 26.2065C54.2452 26.599 54.3133 27.0115 54.3096 27.4263C54.313 27.8333 54.2449 28.2378 54.1084 28.6221C53.9824 28.978 53.786 29.3059 53.5304 29.5871C53.2737 29.8644 52.9593 30.0844 52.6084 30.2321C51.8139 30.5444 50.9272 30.5444 50.1327 30.2321C49.7804 30.0852 49.4646 29.8651 49.2072 29.5871C48.9517 29.3059 48.7552 28.978 48.6293 28.6221ZM53.7574 45.4255H49.2189V39.5627H53.693V40.6471H50.534V41.9094H53.4333V42.9124H50.534V44.3503H53.7597L53.7574 45.4255ZM53.397 37.8804C53.3184 37.6664 53.2731 37.4421 53.2625 37.2148C53.2461 36.957 53.2211 36.7107 53.1876 36.4758C53.1684 36.2273 53.0688 35.9913 52.9033 35.8022C52.7037 35.6419 52.4476 35.5652 52.1907 35.5888H50.878V37.8839H49.5629V32.0165H52.7886C53.0361 32.0129 53.282 32.0562 53.5128 32.1439C53.7186 32.2217 53.9067 32.3387 54.0663 32.4881C54.218 32.6341 54.3374 32.8091 54.4173 33.0022C54.4978 33.2023 54.5376 33.416 54.5343 33.6311C54.5423 33.9435 54.4656 34.2524 54.312 34.5262C54.1446 34.7931 53.889 34.9956 53.5877 35.0999V35.116C53.7355 35.1525 53.8731 35.2211 53.9902 35.3168C54.0961 35.407 54.1841 35.5155 54.2499 35.637C54.3184 35.7652 54.3677 35.9024 54.3962 36.0444C54.4268 36.1909 54.4479 36.3393 54.4594 36.4885C54.4648 36.5818 54.4703 36.6912 54.4758 36.8166C54.4758 36.9429 54.491 37.0714 54.505 37.2034C54.518 37.3295 54.5402 37.4545 54.5717 37.5775C54.5976 37.6851 54.6445 37.7868 54.7098 37.877L53.397 37.8804ZM58.7088 45.4255L58.256 44.1185H56.0225L55.5545 45.4255H54.2289L56.4905 39.5581H57.8395L60.0765 45.4255H58.7088ZM64.7753 40.6426H62.984V45.4255H61.6689V40.6471H59.8765V39.5627H64.7776L64.7753 40.6426ZM71.5519 28.6221C71.426 28.978 71.2295 29.3059 70.9739 29.5871C70.7174 29.8645 70.4029 30.0845 70.052 30.2321C69.2574 30.5444 68.3708 30.5444 67.5762 30.2321C67.224 30.0851 66.9082 29.8651 66.6508 29.5871C66.3952 29.3059 66.1988 28.978 66.0728 28.6221C65.9359 28.2378 65.8674 27.8333 65.8704 27.4263C65.8667 27.0115 65.9348 26.599 66.0716 26.2065C66.1974 25.8453 66.3937 25.5117 66.6496 25.2242C66.9056 24.9415 67.2214 24.7171 67.5751 24.5667C68.3686 24.249 69.2573 24.249 70.0508 24.5667C70.4031 24.7177 70.7177 24.9421 70.9728 25.2242C71.2287 25.5117 71.425 25.8453 71.5507 26.2065C71.6888 26.5988 71.758 27.0113 71.7555 27.4263C71.7588 27.8333 71.6908 28.2378 71.5543 28.6221" fill="white"/>
<path d="M46.4898 42.8164H45.0566V44.423H46.4606C46.5844 44.4235 46.7079 44.4112 46.8291 44.3862C46.9393 44.3645 47.0444 44.3228 47.1392 44.2635C47.2291 44.2059 47.3027 44.1269 47.3533 44.034C47.4106 43.9163 47.4379 43.7867 47.4328 43.6564C47.4448 43.5364 47.4275 43.4153 47.3824 43.3032C47.3372 43.191 47.2655 43.0911 47.1731 43.0115C46.9721 42.8746 46.7306 42.8068 46.4863 42.8187" fill="white"/>
<path d="M70.0719 26.0386C69.9443 25.8502 69.7721 25.6951 69.57 25.5865C69.3347 25.4756 69.0769 25.418 68.8159 25.418C68.5548 25.418 68.2971 25.4756 68.0618 25.5865C67.8597 25.6951 67.6874 25.8502 67.5599 26.0386C67.4278 26.2354 67.3327 26.4538 67.2791 26.6835C67.22 26.9287 67.1906 27.1798 67.1913 27.4317C67.1908 27.6738 67.2202 27.915 67.2791 28.1501C67.3338 28.3744 67.4289 28.5874 67.5599 28.7789C67.6883 28.9653 67.8605 29.1187 68.0618 29.2265C68.2971 29.3374 68.5548 29.3949 68.8159 29.3949C69.0769 29.3949 69.3347 29.3374 69.57 29.2265C69.7713 29.1187 69.9434 28.9653 70.0719 28.7789C70.2029 28.5874 70.298 28.3744 70.3527 28.1501C70.4115 27.915 70.441 27.6738 70.4404 27.4317C70.4412 27.1798 70.4117 26.9287 70.3527 26.6835C70.299 26.4538 70.2039 26.2354 70.0719 26.0386Z" fill="white"/>
</g>
</g>
<defs>
<clipPath id="clip0_197_5349">
<rect width="117" height="70" fill="white"/>
</clipPath>
</defs>
</svg>
