<svg width="117" height="70" viewBox="0 0 117 70" fill="none" xmlns="http://www.w3.org/2000/svg">
<mask id="mask0_197_5238" style="mask-type:luminance" maskUnits="userSpaceOnUse" x="8" y="23" width="101" height="24">
<path d="M108.269 23.9297H8.77344V46.0795H108.269V23.9297Z" fill="white"/>
</mask>
<g mask="url(#mask0_197_5238)">
<path d="M22.4976 42.7241C20.5047 43.5478 18.3688 43.9876 16.2065 44.0197H13.7846V26.4348C13.825 26.1453 13.9572 25.8755 14.1625 25.6637L15.1055 24.5219C15.144 24.4016 15.144 24.2726 15.1055 24.1523H8.846C8.80746 24.2726 8.80746 24.4016 8.846 24.5219L9.78902 25.6637C9.99428 25.8755 10.1265 26.1453 10.1669 26.4348V43.711C10.1021 44.046 9.92503 44.3501 9.66383 44.5751L8.81441 45.3153C8.75717 45.4536 8.75717 45.6084 8.81441 45.7468H22.2448L22.9995 42.723C22.8338 42.6872 22.6621 42.6872 22.4964 42.723" fill="white"/>
<path d="M45.0775 34.5418C45.0552 31.7446 43.9167 29.0672 41.906 27.0833C39.8953 25.0994 37.1724 23.9669 34.3206 23.9282C32.666 23.9124 31.03 24.2713 29.5399 24.9771C27.5727 25.9564 25.9082 27.4339 24.7191 29.2565C23.5301 31.0791 22.8596 33.1805 22.7773 35.3428C22.7805 38.1572 23.9092 40.858 25.9209 42.8649C27.9325 44.8718 30.6665 46.0247 33.5355 46.0758C34.9873 46.1141 36.432 45.8623 37.7814 45.3356C39.9608 44.4603 41.8217 42.9629 43.1229 41.0376C44.4241 39.1124 45.1055 36.8481 45.0787 34.5384M30.1694 26.4276C37.0572 25.101 41.4611 29.8828 41.4611 35.6515C41.4777 37.2383 41.1201 38.8074 40.4163 40.2363C39.7124 41.6652 38.6813 42.9151 37.4035 43.8886C30.924 44.7836 26.4898 40.4643 26.4898 34.3559C26.418 32.8429 26.7143 31.3348 27.3541 29.9562C27.9939 28.5777 28.9589 27.3681 30.1694 26.4276Z" fill="white"/>
<path d="M60.6802 43.0638C58.5363 43.6894 56.3123 44.0113 54.0756 44.0197H51.9696V36.3392H55.7756L56.9713 37.0484C57.1157 37.0843 57.2669 37.0843 57.4113 37.0484V33.4084C57.2667 33.3741 57.1159 33.3741 56.9713 33.4084L55.7136 33.9328H51.9696V25.8805H57.4113L60.3047 26.5278C60.4704 26.5635 60.642 26.5635 60.8078 26.5278L60.2731 24.1523H47.0357C46.9972 24.2726 46.9972 24.4016 47.0357 24.5219L47.9787 25.6637C48.1839 25.8756 48.3161 26.1453 48.3566 26.4348V43.7122C48.292 44.0472 48.1149 44.3514 47.8535 44.5763L47.0041 45.3164C46.9469 45.4548 46.9469 45.6096 47.0041 45.7479H60.4345L61.1892 43.0638C61.0235 43.028 60.8518 43.028 60.6861 43.0638" fill="white"/>
<path d="M107.762 43.0638C105.619 43.6894 103.394 44.0113 101.158 44.0197H99.0517V36.3392H102.858L104.054 37.0484C104.198 37.0843 104.349 37.0843 104.493 37.0484V33.4084C104.349 33.3741 104.198 33.3741 104.054 33.4084L102.796 33.9328H99.0517V25.8805H104.493L107.387 26.5278C107.553 26.5635 107.724 26.5635 107.89 26.5278L107.355 24.1523H94.1155C94.077 24.2726 94.077 24.4016 94.1155 24.5219L95.0585 25.6637C95.2637 25.8756 95.3959 26.1453 95.4364 26.4348V43.7122C95.3718 44.0472 95.1947 44.3514 94.9333 44.5763L94.0839 45.3164C94.0267 45.4548 94.0267 45.6096 94.0839 45.7479H107.514L108.269 43.0638C108.103 43.028 107.932 43.028 107.766 43.0638" fill="white"/>
<path d="M92.6335 24.1908H87.4129C87.3741 24.3114 87.3741 24.4408 87.4129 24.5614L88.3875 25.4565C88.5759 25.6413 88.8275 25.9155 88.7654 26.1967L84.1416 40.2931L79.5178 24.2218C78.7238 24.1292 77.9214 24.1292 77.1275 24.2218L71.591 40.2632L67.7523 26.3493C67.7122 26.2436 67.6971 26.1303 67.708 26.018C67.719 25.9057 67.7557 25.7973 67.8154 25.7009L68.9164 24.5591C68.9553 24.4385 68.9553 24.3091 68.9164 24.1885H62.4685C62.4298 24.3091 62.4298 24.4385 62.4685 24.5591L63.5379 25.7009C63.6852 25.8887 63.8035 26.0967 63.8889 26.3183L69.3879 45.7841C70.1511 45.8611 70.9203 45.8611 71.6835 45.7841L77.2503 29.5567L82.0625 45.7841C82.8146 45.8765 83.5755 45.8765 84.3276 45.7841L90.7743 26.6201C90.861 26.3283 91.0221 26.0629 91.2423 25.849L92.6264 24.5534C92.6652 24.4328 92.6652 24.3034 92.6264 24.1828" fill="white"/>
</g>
</svg>
