<svg width="117" height="70" viewBox="0 0 117 70" fill="none" xmlns="http://www.w3.org/2000/svg">
<g clip-path="url(#clip0_197_5365)">
<mask id="mask0_197_5365" style="mask-type:luminance" maskUnits="userSpaceOnUse" x="0" y="21" width="117" height="28">
<path d="M117 21.9648H0V48.0358H117V21.9648Z" fill="white"/>
</mask>
<g mask="url(#mask0_197_5365)">
<path d="M42.2593 41.845C42.048 41.9915 41.7962 42.0716 41.5374 42.0745C41.3425 42.0748 41.1503 42.0296 40.9767 41.9426C40.8032 41.8556 40.6533 41.7293 40.5394 41.5742L37.7583 37.8481C37.2971 38.0076 36.8203 38.1195 36.3356 38.182V40.8673C36.3306 41.1896 36.1965 41.4971 35.9623 41.7232C35.728 41.9494 35.4124 42.076 35.0837 42.0756C34.757 42.0753 34.4438 41.9479 34.2128 41.7214C33.9819 41.4948 33.852 41.1877 33.8516 40.8673V28.6666C33.8516 28.3461 33.9814 28.0388 34.2125 27.8122C34.4435 27.5856 34.7569 27.4582 35.0837 27.4582C35.4124 27.4579 35.728 27.5845 35.9623 27.8106C36.1965 28.0368 36.3306 28.3443 36.3356 28.6666V35.7446C36.7377 35.6658 37.1247 35.5252 37.4822 35.3281C37.5428 35.309 37.6001 35.2808 37.6518 35.2443C38.9259 34.3433 39.7935 32.9921 40.0714 31.4758C40.1121 31.3227 40.1838 31.1793 40.2822 31.054C40.3806 30.9287 40.5038 30.8241 40.6443 30.7465C40.7848 30.6688 40.9398 30.6197 41.1001 30.6021C41.2604 30.5845 41.4226 30.5987 41.5772 30.6438C41.8925 30.7336 42.1597 30.9403 42.3222 31.2201C42.4847 31.4998 42.5297 31.8307 42.4476 32.1425C42.0394 33.8376 41.1573 35.3874 39.9005 36.6179L42.5319 40.1569C42.6278 40.2849 42.6969 40.4302 42.7352 40.5845C42.7734 40.7388 42.7802 40.899 42.7549 41.0559C42.7297 41.2128 42.673 41.3632 42.5881 41.4984C42.5032 41.6337 42.3919 41.7511 42.2604 41.8438M70.9348 36.3356C70.9369 35.1822 70.5902 34.0541 69.9386 33.0939C69.287 32.1338 68.3597 31.3847 67.274 30.9414C66.1883 30.4981 64.993 30.3805 63.8392 30.6036C62.6854 30.8266 61.6249 31.3802 60.7919 32.1943C59.9589 33.0085 59.3907 34.0466 59.1592 35.1775C58.9278 36.3083 59.0434 37.4811 59.4915 38.5475C59.9396 39.6139 60.7001 40.526 61.6767 41.1685C62.6534 41.811 63.8023 42.1551 64.9783 42.1571C66.5536 42.1544 68.0638 41.5409 69.1797 40.4503C70.2956 39.3597 70.9265 37.8806 70.9348 36.3356ZM68.3936 36.3356C68.3892 36.9972 68.1851 37.6427 67.8072 38.1906C67.4293 38.7386 66.8944 39.1645 66.2699 39.4147C65.6455 39.6649 64.9595 39.7282 64.2985 39.5965C63.6375 39.4648 63.031 39.144 62.5556 38.6747C62.0802 38.2054 61.7572 37.6085 61.6272 36.9593C61.4972 36.3102 61.5661 35.6378 61.8252 35.027C62.0844 34.4162 62.5221 33.8943 63.0833 33.5272C63.6444 33.1601 64.3038 32.9642 64.9783 32.9642C65.4283 32.9654 65.8737 33.0535 66.289 33.2237C66.7042 33.3938 67.0812 33.6425 67.3984 33.9556C67.7156 34.2688 67.9667 34.6401 68.1375 35.0485C68.3082 35.4569 68.3952 35.8942 68.3936 36.3356ZM115.662 29.9174C115.832 29.9243 116.003 29.8978 116.163 29.8395C116.323 29.7812 116.469 29.6922 116.594 29.5777C116.719 29.4632 116.819 29.3255 116.889 29.1726C116.959 29.0197 116.997 28.8547 117.001 28.6873C116.997 28.5202 116.958 28.3556 116.889 28.2032C116.819 28.0507 116.719 27.9134 116.594 27.7992C116.47 27.685 116.323 27.5961 116.164 27.5378C116.004 27.4794 115.834 27.4528 115.664 27.4594C115.494 27.4506 115.324 27.4758 115.164 27.5335C115.005 27.5911 114.859 27.6801 114.735 27.795C114.612 27.9098 114.514 28.0481 114.446 28.2014C114.379 28.3547 114.345 28.5198 114.345 28.6867C114.345 28.8536 114.379 29.0187 114.446 29.172C114.514 29.3253 114.612 29.4636 114.735 29.5784C114.859 29.6933 115.005 29.7822 115.164 29.8399C115.324 29.8976 115.494 29.9228 115.664 29.914M115.664 30.8412C115.502 30.8407 115.341 30.8717 115.191 30.9323C115.041 30.9929 114.905 31.0819 114.79 31.1942C114.675 31.3066 114.584 31.4401 114.521 31.5871C114.459 31.734 114.427 31.8916 114.427 32.0507V40.8673C114.427 41.1905 114.558 41.5005 114.791 41.729C115.024 41.9576 115.34 42.086 115.67 42.086C115.999 42.086 116.315 41.9576 116.548 41.729C116.781 41.5005 116.912 41.1905 116.912 40.8673V32.0507C116.912 31.8905 116.878 31.732 116.815 31.5844C116.751 31.4368 116.659 31.3029 116.542 31.1906C116.426 31.0783 116.288 30.9897 116.136 30.9299C115.985 30.8701 115.823 30.8404 115.659 30.8423M106.986 41.3584L111.341 32.3399C111.416 32.1948 111.461 32.0364 111.472 31.874C111.484 31.7117 111.463 31.5487 111.409 31.3947C111.355 31.2406 111.271 31.0987 111.16 30.9773C111.05 30.8559 110.916 30.7574 110.766 30.6877C110.616 30.6181 110.453 30.5786 110.287 30.5717C110.121 30.5647 109.956 30.5905 109.8 30.6473C109.645 30.7042 109.503 30.7911 109.382 30.9029C109.261 31.0146 109.165 31.1489 109.098 31.2979L105.865 37.9938L102.631 31.2991C102.564 31.1501 102.468 31.0157 102.347 30.904C102.227 30.7923 102.084 30.7054 101.929 30.6485C101.773 30.5916 101.608 30.5659 101.442 30.5728C101.276 30.5797 101.114 30.6192 100.964 30.6889C100.814 30.7586 100.679 30.857 100.569 30.9784C100.458 31.0999 100.374 31.2418 100.32 31.3958C100.267 31.5498 100.245 31.7128 100.257 31.8752C100.268 32.0376 100.313 32.196 100.388 32.341L104.743 41.3584C104.843 41.5669 105.002 41.7431 105.201 41.8665C105.399 41.9899 105.629 42.0554 105.865 42.0554C106.1 42.0554 106.33 41.9899 106.528 41.8665C106.727 41.7431 106.886 41.5669 106.986 41.3584ZM55.6101 42.0309C55.2381 42.1169 54.8465 42.0571 54.5187 41.8642C54.1909 41.6713 53.9528 41.3605 53.8551 40.9981C53.8551 40.9889 53.8551 40.9751 53.8469 40.9637C53.7744 41.0222 53.7019 41.0784 53.6317 41.1278C52.7131 41.7437 51.6251 42.0708 50.5124 42.0653C49.7538 42.0746 49.0018 41.9254 48.3064 41.6276C47.611 41.3298 46.9883 40.8903 46.4795 40.3383C45.4759 39.234 44.9308 37.801 44.9514 36.3219C44.9343 34.8492 45.4793 33.4235 46.4795 32.325C46.9883 31.7729 47.611 31.3334 48.3064 31.0356C49.0018 30.7379 49.7538 30.5887 50.5124 30.5979C51.6251 30.5925 52.7131 30.9196 53.6317 31.5355C53.7019 31.2471 53.8772 30.994 54.1246 30.8237C54.372 30.6534 54.6744 30.5778 54.9747 30.6111C55.2751 30.6445 55.5526 30.7844 55.755 31.0045C55.9574 31.2247 56.0706 31.5099 56.0735 31.8063V36.5112C56.118 37.8059 56.3111 39.0916 56.6491 40.344C56.6973 40.5215 56.7085 40.7068 56.6819 40.8887C56.6554 41.0706 56.5918 41.2453 56.4948 41.4025C56.3977 41.5597 56.2694 41.696 56.1174 41.8034C55.9654 41.9108 55.7929 41.987 55.6101 42.0274M53.6106 36.3242C53.6438 35.9049 53.5883 35.4835 53.4476 35.0863C53.3069 34.6892 53.0839 34.3248 52.7928 34.0162C52.5016 33.7075 52.1485 33.4613 51.7557 33.2929C51.3629 33.1245 50.9388 33.0375 50.5101 33.0375C50.0814 33.0375 49.6573 33.1245 49.2645 33.2929C48.8717 33.4613 48.5186 33.7075 48.2274 34.0162C47.9363 34.3248 47.7133 34.6892 47.5726 35.0863C47.4319 35.4835 47.3764 35.9049 47.4096 36.3242C47.3722 36.7457 47.4246 37.1703 47.5635 37.5709C47.7023 37.9715 47.9246 38.3395 48.2161 38.6514C48.5077 38.9633 48.8621 39.2123 49.257 39.3827C49.652 39.5531 50.0787 39.641 50.5101 39.641C50.9415 39.641 51.3682 39.5531 51.7632 39.3827C52.1581 39.2123 52.5126 38.9633 52.8041 38.6514C53.0957 38.3395 53.3179 37.9715 53.4567 37.5709C53.5956 37.1703 53.648 36.7457 53.6106 36.3242ZM96.7766 42.0274C96.4045 42.1134 96.0129 42.0536 95.6852 41.8607C95.3574 41.6678 95.1193 41.3571 95.0216 40.9946C95.0216 40.9855 95.0216 40.9717 95.0134 40.9602C94.9408 41.0187 94.8683 41.075 94.7981 41.1243C93.8796 41.7404 92.7916 42.0674 91.6789 42.0619C90.9202 42.0711 90.1682 41.9219 89.4728 41.6241C88.7775 41.3264 88.1547 40.8869 87.6459 40.3348C86.6424 39.2305 86.0972 37.7975 86.1179 36.3184C86.1028 34.8485 86.6477 33.426 87.6459 32.3296C88.1547 31.7775 88.7775 31.338 89.4728 31.0402C90.1682 30.7425 90.9202 30.5932 91.6789 30.6025C92.7916 30.5971 93.8796 30.9241 94.7981 31.5401C94.8683 31.2517 95.0437 30.9986 95.2911 30.8283C95.5385 30.658 95.8409 30.5824 96.1412 30.6157C96.4415 30.649 96.719 30.789 96.9214 31.0091C97.1238 31.2293 97.2371 31.5145 97.2399 31.8109V36.5158C97.2844 37.8105 97.4775 39.0963 97.8155 40.3486C97.8641 40.5261 97.8755 40.7115 97.8491 40.8935C97.8228 41.0755 97.7591 41.2504 97.6621 41.4076C97.565 41.5649 97.4366 41.7012 97.2844 41.8086C97.1322 41.9159 96.9595 41.9919 96.7766 42.032M94.7782 36.3287C94.8114 35.9095 94.756 35.4881 94.6152 35.0909C94.4745 34.6938 94.2515 34.3294 93.9604 34.0208C93.6692 33.7121 93.3161 33.4659 92.9233 33.2975C92.5305 33.129 92.1064 33.0421 91.6777 33.0421C91.249 33.0421 90.8249 33.129 90.4321 33.2975C90.0393 33.4659 89.6862 33.7121 89.3951 34.0208C89.1039 34.3294 88.881 34.6938 88.7402 35.0909C88.5995 35.4881 88.544 35.9095 88.5772 36.3287C88.5398 36.7503 88.5922 37.1749 88.7311 37.5755C88.8699 37.9761 89.0922 38.3441 89.3837 38.656C89.6753 38.9679 90.0298 39.2169 90.4247 39.3873C90.8196 39.5577 91.2463 39.6456 91.6777 39.6456C92.1091 39.6456 92.5359 39.5577 92.9308 39.3873C93.3257 39.2169 93.6802 38.9679 93.9717 38.656C94.2633 38.3441 94.4855 37.9761 94.6244 37.5755C94.7632 37.1749 94.8156 36.7503 94.7782 36.3287ZM78.548 30.6656C77.6173 30.6613 76.7071 30.9329 75.9365 31.4448C75.7865 31.1602 75.5439 30.9328 75.2472 30.7987C74.9505 30.6647 74.6166 30.6315 74.2985 30.7046C74.1157 30.7455 73.9431 30.822 73.7911 30.9298C73.6392 31.0375 73.5109 31.1742 73.414 31.3317C73.3171 31.4892 73.2536 31.6642 73.2273 31.8463C73.201 32.0284 73.2123 32.2138 73.2608 32.3915C73.5616 33.4516 73.7413 34.5412 73.7966 35.6402V40.9281C73.7966 41.251 73.9274 41.5607 74.1602 41.789C74.393 42.0174 74.7088 42.1456 75.038 42.1456C75.3672 42.1456 75.683 42.0174 75.9158 41.789C76.1486 41.5607 76.2793 41.251 76.2793 40.9281V35.6414C76.2338 35.3227 76.2584 34.9982 76.3517 34.6897C76.4449 34.3812 76.6046 34.0959 76.8198 33.8531C77.0351 33.6103 77.301 33.4156 77.5995 33.2822C77.898 33.1488 78.2223 33.0798 78.5503 33.0798C78.8784 33.0798 79.2026 33.1488 79.5012 33.2822C79.7997 33.4156 80.0655 33.6103 80.2808 33.8531C80.4961 34.0959 80.6557 34.3812 80.749 34.6897C80.8422 34.9982 80.8669 35.3227 80.8213 35.6414V40.9292C80.8213 41.2521 80.9521 41.5618 81.1849 41.7902C81.4177 42.0185 81.7334 42.1468 82.0627 42.1468C82.3919 42.1468 82.7076 42.0185 82.9404 41.7902C83.1732 41.5618 83.304 41.2521 83.304 40.9292V35.6414C83.3373 35.0054 83.2394 34.3694 83.0162 33.7715C82.793 33.1735 82.4491 32.6259 82.005 32.1613C81.561 31.6968 81.026 31.3249 80.432 31.0679C79.8379 30.8109 79.1972 30.6741 78.548 30.6656ZM22.6033 32.5923H12.9613C12.2465 32.5887 11.5449 32.782 10.9366 33.1502C10.3283 33.5185 9.83755 34.0468 9.52033 34.6751C9.5093 34.6963 9.50402 34.7199 9.50497 34.7437C9.50592 34.7675 9.51308 34.7906 9.52576 34.8109C9.53845 34.8311 9.55623 34.8479 9.57741 34.8595C9.59858 34.8711 9.62244 34.8771 9.64669 34.8771H11.0109C11.0501 34.8773 11.0888 34.8694 11.1247 34.8539C11.1606 34.8385 11.1927 34.8159 11.2192 34.7876C11.4389 34.5487 11.708 34.3586 12.0087 34.23C12.3093 34.1013 12.6345 34.0371 12.9625 34.0417H22.5892C22.997 34.0512 23.3954 34.1634 23.7463 34.3674C24.0971 34.5714 24.3886 34.8605 24.5928 35.2068C24.797 35.5532 24.9069 35.9452 24.9122 36.3452C24.9174 36.7452 24.8177 37.1398 24.6227 37.4912L20.2504 45.3691C20.0552 45.7207 19.7711 46.0172 19.4254 46.2301C19.0797 46.4431 18.684 46.5653 18.2763 46.5851C17.8686 46.6049 17.4625 46.5217 17.0971 46.3433C16.7316 46.1649 16.4191 45.8974 16.1893 45.5664L11.5725 38.6238C11.5471 38.5855 11.5125 38.554 11.4716 38.532C11.4308 38.5099 11.3851 38.4981 11.3385 38.4976H10.0234C9.99808 38.4979 9.97327 38.5048 9.9516 38.5178C9.92993 38.5307 9.91219 38.549 9.90024 38.571C9.88828 38.5929 9.88255 38.6176 9.88364 38.6424C9.88473 38.6672 9.8926 38.6913 9.90643 38.7122L14.9585 46.3651C15.3291 46.9037 15.8347 47.3397 16.4267 47.6312C17.0188 47.9227 17.6773 48.0599 18.3391 48.0296C19.0008 47.9993 19.6435 47.8025 20.2052 47.4581C20.767 47.1138 21.229 46.6335 21.5468 46.0633L25.919 38.1855C26.2347 37.6144 26.3952 36.9733 26.3853 36.3238C26.3753 35.6742 26.1951 35.0382 25.8621 34.4767C25.5291 33.9152 25.0544 33.4471 24.4837 33.1175C23.913 32.7879 23.2654 32.6079 22.6033 32.5946M8.42521 33.5551C8.17792 34.0016 7.80122 34.3661 7.34273 34.6026C6.88424 34.8391 6.36455 34.937 5.84935 34.8839C5.33416 34.8307 4.8466 34.629 4.4483 34.3041C4.05 33.9792 3.75885 33.5458 3.61166 33.0587C3.46447 32.5715 3.46785 32.0525 3.62137 31.5672C3.77488 31.0819 4.07164 30.6522 4.47413 30.3323C4.87662 30.0125 5.36677 29.8168 5.88262 29.7701C6.39846 29.7235 6.91683 29.8278 7.37221 30.0701C7.98299 30.3953 8.43705 30.9452 8.63452 31.5987C8.83199 32.2523 8.7567 32.956 8.42521 33.5551ZM7.21777 32.0048C7.17569 31.8634 7.10542 31.7315 7.01103 31.6168C6.91664 31.5022 6.8 31.4071 6.66787 31.3369C6.50158 31.2472 6.31481 31.2002 6.12499 31.2004C5.87075 31.1999 5.62362 31.2827 5.42268 31.4354C5.22174 31.5882 5.07846 31.8023 5.0155 32.0439C4.95255 32.2855 4.9735 32.5408 5.07506 32.7694C5.17662 32.998 5.35299 33.1869 5.57626 33.3061C5.74276 33.3951 5.92953 33.4413 6.11914 33.4404C6.325 33.4405 6.52709 33.3862 6.70416 33.2832C6.88122 33.1803 7.02672 33.0324 7.12534 32.8551C7.19742 32.7263 7.2427 32.5846 7.25857 32.4385C7.27443 32.2923 7.26057 32.1457 7.21777 32.0048ZM18.0625 36.5032C18.3098 36.0571 18.6864 35.693 19.1447 35.4567C19.603 35.2205 20.1224 35.1229 20.6372 35.1761C21.1521 35.2293 21.6393 35.431 22.0373 35.7557C22.4353 36.0805 22.7262 36.5136 22.8733 37.0004C23.0204 37.4873 23.0171 38.006 22.8637 38.4909C22.7104 38.9759 22.4139 39.4054 22.0117 39.7252C21.6095 40.0449 21.1198 40.2406 20.6043 40.2874C20.0888 40.3342 19.5707 40.2301 19.1155 39.9883C18.813 39.8273 18.5457 39.6095 18.329 39.3472C18.1124 39.0849 17.9505 38.7834 17.8527 38.4597C17.7549 38.1361 17.7231 37.7967 17.7591 37.461C17.7951 37.1253 17.8982 36.7998 18.0625 36.5032ZM19.8175 38.7168C19.9836 38.8059 20.1699 38.8524 20.3592 38.8522C20.5651 38.8523 20.7672 38.798 20.9442 38.695C21.1213 38.5921 21.2668 38.4442 21.3654 38.2669C21.4597 38.0965 21.5073 37.905 21.5036 37.7111C21.4999 37.5172 21.4449 37.3275 21.3442 37.1607C21.2434 36.9938 21.1002 36.8555 20.9285 36.7591C20.7569 36.6628 20.5628 36.6118 20.3651 36.611C20.1108 36.6106 19.8637 36.6933 19.6627 36.8461C19.4618 36.9989 19.3185 37.213 19.2556 37.4546C19.1926 37.6962 19.2136 37.9514 19.3151 38.18C19.4167 38.4086 19.5942 38.5975 19.8175 38.7168ZM13.3579 37.4086H13.4363C14.1503 37.4121 14.8509 37.2192 15.4586 36.8516C16.0662 36.484 16.5565 35.9566 16.8738 35.3292C16.8848 35.308 16.8901 35.2844 16.8891 35.2607C16.8882 35.2369 16.881 35.2138 16.8683 35.1935C16.8557 35.1732 16.8379 35.1565 16.8167 35.1449C16.7955 35.1333 16.7717 35.1272 16.7474 35.1273H15.423C15.3712 35.127 15.32 35.1371 15.2723 35.1568C15.2247 35.1765 15.1816 35.2055 15.1457 35.242C14.9271 35.471 14.6621 35.6527 14.3677 35.7754C14.0734 35.8981 13.7561 35.9591 13.4363 35.9546H3.80722C3.40038 35.9441 3.00308 35.8315 2.65322 35.6275C2.30336 35.4236 2.0126 35.1351 1.80869 34.7897C1.60477 34.4442 1.4945 34.0533 1.48839 33.6542C1.48227 33.255 1.58052 32.861 1.77376 32.5097L6.14605 24.6319C6.3414 24.2803 6.62558 23.9839 6.97131 23.7711C7.31705 23.5582 7.71276 23.4361 8.12046 23.4164C8.52817 23.3967 8.93419 23.4801 9.29959 23.6586C9.66498 23.837 9.97748 24.1046 10.2071 24.4356L14.7853 31.3748C14.8107 31.4131 14.8454 31.4447 14.8862 31.4667C14.927 31.4887 14.9727 31.5005 15.0193 31.501H16.3648C16.39 31.5006 16.4146 31.4936 16.4361 31.4808C16.4576 31.4679 16.4752 31.4497 16.4871 31.428C16.499 31.4062 16.5048 31.3817 16.5039 31.3571C16.503 31.3324 16.4954 31.3084 16.4818 31.2876L11.4391 23.6358C11.0685 23.097 10.5628 22.6608 9.97055 22.3692C9.37832 22.0776 8.71954 21.9405 8.0576 21.9709C7.39567 22.0013 6.75286 22.1984 6.19103 22.543C5.62921 22.8876 5.16728 23.3683 4.84969 23.9387L0.47623 31.8166C0.159764 32.3878 -0.00145555 33.0293 0.00809104 33.6793C0.0176376 34.3293 0.197629 34.9659 0.530738 35.5279C0.863847 36.09 1.33886 36.5584 1.91004 36.8882C2.48122 37.218 3.12934 37.398 3.79201 37.4109H13.3579V37.4086Z" fill="white"/>
</g>
</g>
<defs>
<clipPath id="clip0_197_5365">
<rect width="117" height="70" fill="white"/>
</clipPath>
</defs>
</svg>
