<svg width="117" height="70" viewBox="0 0 117 70" fill="none" xmlns="http://www.w3.org/2000/svg">
<path d="M46.5638 33.5089C46.5638 33.5089 44.6918 32.4761 44.1068 31.9024C43.6388 31.3286 43.2878 30.9843 43.2878 30.4106C43.2878 29.8368 43.5218 29.3778 43.9898 28.6892C44.4578 28.2302 45.0428 27.886 45.8618 27.886C46.4468 27.886 47.0318 28.1155 47.4998 28.345C47.9678 28.5745 48.3188 28.804 48.5528 29.0335C48.6698 29.1483 48.9038 29.3778 49.0208 29.3778C49.1378 29.4925 49.1378 29.4925 49.0208 29.6073L49.1378 29.722L50.8928 27.6565L50.6588 27.5417C50.6588 27.5417 50.5418 27.6565 50.4248 27.5417L50.1908 27.4269L49.8398 27.0827C49.1378 26.5089 48.4358 26.0499 47.8508 25.7056C46.5638 25.1319 45.0428 25.1319 43.6388 25.5909C42.9368 25.8204 42.4688 26.1647 41.8838 26.6237C41.4158 27.0827 40.9478 27.6565 40.7138 28.345C40.3628 29.0335 40.3628 29.4925 40.3628 30.2958C40.3628 31.3286 40.8308 32.3614 41.7668 33.2794C42.5858 34.0827 43.6388 34.886 44.4578 35.345C45.1598 35.804 46.2128 36.263 47.0318 36.9515C47.6168 37.5253 47.9678 38.3286 47.8508 39.1319C47.7338 39.8204 47.4998 40.2794 47.0318 40.8532C46.5638 41.4269 45.8618 41.6565 45.0428 41.6565C44.3408 41.6565 43.6388 41.3122 43.1708 40.9679C42.4688 40.3942 42.1178 39.9351 41.8838 39.5909C41.7668 39.3614 41.8838 39.2466 41.8838 39.2466L41.7668 39.1319L39.8948 41.3122L40.0118 41.4269C40.0118 41.4269 40.1288 41.3122 40.2458 41.4269L40.4798 41.6565C41.0648 42.4597 41.6498 43.0335 42.4688 43.4925C43.2878 43.9515 44.1068 44.181 45.0428 44.181C45.8618 44.181 46.7978 44.0663 47.3828 43.722C48.3188 43.263 48.9038 42.804 49.2548 42.345C49.7228 41.886 50.0738 41.427 50.3078 40.6237C50.5418 40.0499 50.7758 39.4761 50.7758 38.6729C50.7758 37.5253 50.3078 36.3778 49.6058 35.4597C49.0208 35.1155 48.0848 34.4269 46.5638 33.5089ZM115.711 44.0663L115.594 43.9515L114.892 43.0335L108.691 34.7712C108.691 34.7712 111.85 30.181 113.605 27.5417L114.775 25.9351C114.775 25.9351 114.892 25.8204 114.892 25.7056C115.009 25.5909 115.009 25.5909 115.126 25.5909V25.4761H111.382V25.5909H111.499C111.616 25.5909 111.616 25.7056 111.616 25.7056L111.499 25.8204L107.053 32.3614L102.139 25.8204C102.139 25.8204 102.139 25.7056 102.022 25.7056C101.905 25.5909 102.022 25.5909 102.139 25.5909H102.256V25.4761H98.5118V25.5909C98.6288 25.5909 98.7458 25.7056 98.7458 25.7056C98.8628 25.8204 98.8628 25.8204 98.8628 25.9351C98.9798 26.0499 105.532 34.886 105.532 34.886L99.4478 43.9515L99.3308 44.0663C99.2138 44.181 98.9798 44.2958 98.9798 44.2958V44.4106H102.607V44.2958C102.49 44.2958 102.49 44.181 102.49 44.181C102.373 44.0663 102.49 44.0663 102.607 43.8368C102.724 43.722 107.17 37.181 107.17 37.181L111.499 43.0335C111.499 43.0335 111.967 43.6073 112.084 43.8368C112.201 44.0663 112.201 44.181 112.201 44.181L112.084 44.2958V44.4106H116.062V44.2958L115.711 44.0663Z" fill="white"/>
<path d="M76.8691 25.8203C76.8691 25.7056 76.9861 25.5908 77.1031 25.5908V25.4761H73.9441V25.5908C74.0611 25.5908 74.1782 25.7056 74.1782 25.8203V44.0662C74.1782 44.181 74.0611 44.2957 73.9441 44.2957V44.4105H77.2201V44.2957C77.1031 44.2957 76.9862 44.181 76.9862 44.0662V25.9351L76.8691 25.8203ZM11.4662 33.8531C11.2322 33.8531 11.2322 33.7384 11.2322 33.6236H11.1152V36.6072H11.2322C11.2322 36.4925 11.3492 36.3777 11.4662 36.3777H15.2102V40.7384C14.7422 41.0826 14.1572 41.4269 13.3382 41.5417C11.5832 42.1154 9.71116 42.0007 8.19016 41.3121C7.37116 40.9679 6.55216 40.5089 5.96716 39.8203C5.38216 39.1318 4.79717 38.4433 4.44617 37.64C4.09517 36.8367 3.86117 35.9187 3.86117 34.8859C3.86117 33.9679 4.09517 33.0499 4.44617 32.1318C4.79717 31.3285 5.26516 30.5253 5.96716 29.9515C6.55216 29.263 7.37116 28.8039 8.19016 28.4597C9.71116 27.7712 11.5832 27.7712 13.4552 28.3449C14.2742 28.6892 14.9762 29.0335 15.4442 29.3777L15.5612 29.4925C15.6782 29.6072 15.6782 29.722 15.6782 29.8367V29.9515L15.7952 30.0662L17.7842 27.7712L17.6672 27.6564C17.6672 27.6564 17.6672 27.7712 17.5502 27.7712C17.4332 27.7712 17.3162 27.6564 17.3162 27.6564C15.3272 26.1646 13.2212 25.3613 10.9982 25.3613C9.59416 25.3613 8.19016 25.5908 6.90316 26.1646C5.61617 26.7384 4.79717 27.5417 3.86117 28.3449C3.04217 29.263 2.34017 30.2958 1.87217 31.4433C1.40417 32.5908 1.17017 33.7384 1.17017 35.0007C1.17017 36.263 1.40417 37.4105 1.87217 38.558C2.34017 39.7056 3.04217 40.7384 3.86117 41.6564C4.68017 42.6892 5.73316 43.3777 7.02016 43.9515C8.19016 44.5253 9.59416 44.7548 11.1152 44.7548C13.5722 44.7548 15.7952 43.9515 17.9012 42.2302L18.0182 42.1154C18.1352 42.0007 18.1352 42.3449 18.1352 41.8859V33.8531H11.4662Z" fill="white"/>
</svg>
