<svg width="117" height="70" viewBox="0 0 117 70" fill="none" xmlns="http://www.w3.org/2000/svg">
<g clip-path="url(#clip0_197_5433)">
<path d="M32.5258 55.1973L36.7378 64.1481H36.0358L34.6318 61.0497H30.1858L28.7818 64.1481H28.0798L32.2918 55.1973H32.5258ZM34.2808 60.476L32.2918 56.3448L30.3028 60.476H34.2808Z" fill="white"/>
<path d="M40.8328 64.1486H40.2478V55.3125H40.8328V64.1486ZM45.0448 58.2961L41.7688 61.0502L45.5128 64.1486H44.6938L40.9498 61.0502L44.2258 58.2961H45.0448Z" fill="white"/>
<path d="M53.2337 63.1141V63.6879C52.6487 64.1469 52.2977 64.2617 52.0637 64.2617C51.9467 64.2617 51.8297 64.2617 51.7127 64.1469C51.7127 64.0321 51.5957 63.8026 51.5957 63.5731C51.0107 64.0321 50.3087 64.2617 49.7237 64.2617C49.2557 64.2617 48.9047 64.1469 48.5537 63.8026C48.2027 63.4584 48.0857 63.1141 48.0857 62.7699C48.0857 62.0813 48.4367 61.6223 49.0217 61.278C49.6067 60.9338 50.4257 60.7043 51.5957 60.5895V59.901C51.5957 59.0977 51.1277 58.7535 50.3087 58.7535C49.7237 58.7535 49.1387 58.983 48.4367 59.442V58.7535C49.1387 58.2944 49.7237 58.1797 50.3087 58.1797C50.8937 58.1797 51.2447 58.2944 51.5957 58.5239C51.9467 58.7535 52.0637 59.2125 52.0637 59.6715V63.3436C52.0637 63.5731 52.0637 63.6879 52.1807 63.6879C52.5317 63.6879 52.8827 63.4584 53.2337 63.1141ZM51.5957 62.9994V61.1633C50.7767 61.1633 50.0747 61.278 49.6067 61.6223C49.0217 61.9666 48.7877 62.3108 48.7877 62.7699C48.7877 62.9994 48.9047 63.2289 49.1387 63.4584C49.3727 63.6879 49.6067 63.6879 49.9577 63.6879C50.5427 63.8026 51.1277 63.4584 51.5957 62.9994Z" fill="white"/>
<path d="M58.0312 56.3438V58.2946H59.6692V58.7536H58.0312V62.1962C58.0312 62.77 58.0312 63.1142 58.1482 63.3438C58.2652 63.5733 58.4992 63.5733 58.8502 63.5733C59.2012 63.5733 59.5522 63.4585 59.9032 63.3438V63.9175C59.4352 64.147 59.0842 64.2618 58.6162 64.2618C58.2652 64.2618 57.9142 64.147 57.6802 63.9175C57.4462 63.688 57.3292 63.3438 57.3292 62.9995V58.7536H55.6912V58.2946H57.3292V56.9175L57.7972 56.3438H58.0312Z" fill="white"/>
<path d="M66.8069 58.6412V59.3297C66.2219 58.9855 65.6369 58.756 65.1689 58.756C64.8179 58.756 64.4669 58.8707 64.2329 58.9855C63.9989 59.215 63.8819 59.4445 63.8819 59.674C63.8819 59.9035 63.9989 60.0183 64.1159 60.2478C64.2329 60.3625 64.7009 60.592 65.4029 60.9363C66.1049 61.1658 66.5729 61.5101 66.6899 61.7396C66.9239 61.9691 67.0409 62.3133 67.0409 62.6576C67.0409 63.1166 66.8069 63.4609 66.4559 63.8051C65.9879 64.1494 65.5199 64.2642 65.0519 64.2642C64.4669 64.2642 63.8819 64.0346 63.2969 63.6904V63.1166C63.9989 63.4609 64.5839 63.6904 65.1689 63.6904C65.5199 63.6904 65.8709 63.5756 66.1049 63.4609C66.3389 63.2314 66.4559 63.0019 66.4559 62.7724C66.4559 62.5428 66.3389 62.4281 66.2219 62.1986C66.1049 62.0838 65.6369 61.8543 64.9349 61.5101C64.2329 61.2805 63.7649 60.9363 63.6479 60.7068C63.4139 60.4773 63.2969 60.133 63.2969 59.9035C63.2969 59.4445 63.5309 59.1002 63.8819 58.756C64.2329 58.4117 64.7009 58.2969 65.2859 58.2969C65.6369 58.1822 66.2219 58.2969 66.8069 58.6412Z" fill="white"/>
<path d="M75.1121 64.1474V63.2293C74.8781 63.5736 74.5271 63.9179 74.2931 64.0326C74.0591 64.1474 73.5911 64.2621 73.1231 64.2621C72.5381 64.2621 71.9531 64.0326 71.4851 63.6884C71.0171 63.2293 70.9001 62.6556 70.9001 61.9671V58.2949H71.4851V61.8523C71.4851 62.4261 71.6021 62.7703 71.9531 63.1146C72.3041 63.4589 72.6551 63.5736 73.1231 63.5736C73.5911 63.5736 73.9422 63.4589 74.1762 63.3441C74.4102 63.1146 74.7611 62.8851 75.1121 62.4261V58.2949H75.6971V64.1474H75.1121Z" fill="white"/>
<path d="M80.6121 64.1486H80.0271V55.3125H80.6121V64.1486ZM84.8241 58.2961L81.5481 61.0502L85.2921 64.1486H84.4731L80.7291 61.0502L84.0051 58.2961H84.8241Z" fill="white"/>
<path d="M89.1551 56.3453H88.5701V55.3125H89.1551V56.3453ZM89.1551 64.1486H88.5701V58.2961H89.1551V64.1486Z" fill="white"/>
<path d="M58.5007 42.8024C55.2247 42.8024 52.0657 41.7697 49.6087 39.9336L49.8427 40.0484L45.5137 46.0156C49.1407 48.5402 53.5867 50.032 58.2667 50.1467V42.8024H58.5007Z" fill="white"/>
<path d="M67.392 39.9336C64.935 41.7697 61.776 42.8024 58.5 42.8024H58.734V50.1467C63.531 50.1467 67.86 48.5402 71.487 46.0156L67.158 40.0484L67.392 39.9336Z" fill="white"/>
<path d="M72.8906 23.2941C73.3586 24.7859 73.5926 26.2777 73.5926 27.8843C73.5926 29.4908 73.3586 30.9826 72.8906 32.4744L73.0076 32.2449L80.1446 34.54C80.8466 32.4744 81.1976 30.2941 81.1976 27.8843C81.1976 25.5892 80.8466 23.4088 80.1446 21.2285L73.0076 23.5236L72.8906 23.2941Z" fill="white"/>
<path d="M72.8894 32.4746C71.8364 35.4582 69.9644 38.0976 67.3904 39.9336L67.6244 39.8189L71.9534 45.7861C75.5804 43.1467 78.3884 39.4746 79.9094 35.114L72.7724 32.8189L72.8894 32.4746Z" fill="white"/>
<path d="M49.6069 39.9336C47.0329 38.0976 45.0439 35.573 44.1079 32.4746L44.2249 32.7041L37.0879 34.9992C38.6089 39.3599 41.4169 43.032 45.0439 45.6713L49.3729 39.7041L49.6069 39.9336Z" fill="white"/>
<path d="M58.5 13.0806C61.776 13.0806 64.818 14.1134 67.392 15.9494L67.158 15.8347L71.487 9.86748C67.977 7.34289 63.531 5.85108 58.734 5.73633V13.0806H58.5Z" fill="white"/>
<path d="M36.9729 34.54L44.1099 32.2449L44.2269 32.4744C43.7589 30.9826 43.5249 29.4908 43.5249 27.8843C43.5249 26.2777 43.7589 24.7859 44.2269 23.2941L44.1099 23.5236L36.9729 21.2285C36.2709 23.2941 35.9199 25.4744 35.9199 27.8843C35.9199 30.1793 36.2709 32.4744 36.9729 34.54Z" fill="white"/>
<path d="M67.3904 15.9501C69.9644 17.7862 71.8364 20.3108 72.8894 23.2944L72.7724 23.0649L79.9094 20.7698C78.3884 16.4091 75.5804 12.737 71.9534 10.0977L67.6244 16.0649L67.3904 15.9501Z" fill="white"/>
<path d="M49.6087 15.9494C52.0657 14.1134 55.1077 13.0806 58.5007 13.0806H58.2667V5.73633C53.4697 5.73633 49.1407 7.34289 45.5137 9.86748L49.8427 15.8347L49.6087 15.9494Z" fill="white"/>
<path d="M44.1079 23.2944C45.1609 20.3108 47.0329 17.6714 49.6069 15.8354L49.3729 16.0649L45.0439 10.0977C41.4169 12.737 38.6089 16.4091 37.0879 20.7698L44.2249 23.0649L44.1079 23.2944Z" fill="white"/>
<path d="M58.4986 35.8043C60.7216 35.8043 62.7106 34.8863 64.2316 33.5093V36.0338H66.6886V27.6568C66.5716 23.2961 62.9446 19.8535 58.4986 19.8535C53.9356 19.8535 50.3086 23.4109 50.3086 27.8863C50.3086 32.247 53.9356 35.8043 58.4986 35.8043ZM58.4986 22.2634C61.6576 22.2634 64.2316 24.7879 64.2316 27.7715V27.8863C64.2316 30.9847 61.6576 33.3945 58.4986 33.3945C55.3396 33.3945 52.7656 30.8699 52.7656 27.7715C52.7656 24.6732 55.3396 22.2634 58.4986 22.2634Z" fill="white"/>
</g>
<defs>
<clipPath id="clip0_197_5433">
<rect width="117" height="70" fill="white"/>
</clipPath>
</defs>
</svg>
