<svg width="117" height="70" viewBox="0 0 117 70" fill="none" xmlns="http://www.w3.org/2000/svg">
<path fill-rule="evenodd" clip-rule="evenodd" d="M21.2929 41.0809V43.2613H7.83789V28.6875H10.2949V41.0809H21.2929Z" fill="white"/>
<path fill-rule="evenodd" clip-rule="evenodd" d="M19.4189 33.9671L22.1099 28.918H19.5359L17.5469 33.9671H19.4189Z" fill="white"/>
<path fill-rule="evenodd" clip-rule="evenodd" d="M41.4157 31.097C40.5967 29.7199 39.3097 28.5724 37.7887 27.8839C36.2677 27.0806 34.5127 26.7363 32.8747 26.7363C31.1197 26.7363 29.3647 27.1953 27.9607 27.8839C26.4397 28.6871 25.1527 29.8347 24.3337 31.097C23.5147 32.474 22.9297 33.9658 22.9297 35.5724C22.9297 37.179 23.3977 38.6708 24.3337 40.0478C25.1527 41.4249 26.4397 42.5724 27.9607 43.2609C29.4817 44.0642 31.2367 44.4085 32.8747 44.4085C34.6297 44.4085 36.3847 43.9495 37.7887 43.2609C39.3097 42.4576 40.5967 41.3101 41.4157 40.0478C42.2347 38.6708 42.8197 37.179 42.8197 35.5724C42.8197 33.9658 42.3517 32.474 41.4157 31.097ZM39.3097 39.1298C38.6077 40.1626 37.6717 41.0806 36.6187 41.6544C35.4487 42.2281 34.1617 42.5724 32.8747 42.5724C31.5877 42.5724 30.3007 42.2281 29.1307 41.6544C27.9607 41.0806 27.0247 40.1626 26.4397 39.1298C25.7377 38.097 25.3867 36.8347 25.3867 35.5724C25.3867 34.3101 25.7377 33.1626 26.4397 32.015C27.1417 30.9822 28.0777 30.0642 29.1307 29.4904C30.3007 28.9167 31.5877 28.5724 32.8747 28.5724C34.1617 28.5724 35.4487 28.9167 36.6187 29.4904C37.7887 30.0642 38.7247 30.9822 39.3097 32.015C40.0117 33.0478 40.3627 34.3101 40.3627 35.5724C40.3627 36.8347 40.0117 38.097 39.3097 39.1298Z" fill="white"/>
<path fill-rule="evenodd" clip-rule="evenodd" d="M59.6682 34.999C59.2002 35.917 58.3812 36.4908 57.7962 36.835C57.0942 37.1793 56.6262 37.2941 56.1582 37.2941L60.8382 43.2613H58.1472L53.5842 37.4088H47.6172V43.2613H45.1602V28.6875H54.9882C55.9242 28.6875 56.9772 28.917 57.7962 29.376C58.7322 29.835 59.4342 30.6383 59.7852 31.6711C60.2532 32.7039 60.1362 33.9662 59.6682 34.999ZM56.9772 34.8842C57.4452 34.4252 57.7962 33.7367 57.7962 33.0482C57.7962 32.3596 57.4452 31.6711 56.8602 31.2121C56.3922 30.7531 55.6902 30.7531 55.1052 30.7531H47.7342V35.2285H55.1052C55.8072 35.3432 56.5092 35.3432 56.9772 34.8842Z" fill="white"/>
<path fill-rule="evenodd" clip-rule="evenodd" d="M73.7095 34.8842V36.9498H65.5195V41.0809H76.5175V43.2613H63.0625V28.6875H76.5175V30.8678H65.5195V34.8842H73.7095Z" fill="white"/>
<path fill-rule="evenodd" clip-rule="evenodd" d="M73.8259 26.5078H70.1989L68.7949 28.3439L73.8259 26.5078Z" fill="white"/>
<path fill-rule="evenodd" clip-rule="evenodd" d="M81.3153 39.5891L79.4433 43.2613H76.9863L84.4743 28.6875H86.9313L94.5363 43.2613H92.0793L90.0903 39.5891H81.3153ZM85.7613 30.9826L82.2513 37.6383H89.1543L85.7613 30.9826Z" fill="white"/>
<path fill-rule="evenodd" clip-rule="evenodd" d="M109.16 41.0809V43.2613H95.7051V28.6875H98.1621V41.0809H109.16Z" fill="white"/>
</svg>
