<svg width="117" height="70" viewBox="0 0 117 70" fill="none" xmlns="http://www.w3.org/2000/svg">
<path fill-rule="evenodd" clip-rule="evenodd" d="M57.564 48.3131C57.681 47.395 57.915 46.5918 58.266 45.6737V45.559C58.032 45.559 57.681 45.559 57.096 45.559C56.511 45.559 56.043 45.559 55.809 45.559C55.458 45.559 55.341 45.559 55.107 45.559C54.756 45.559 54.522 45.4442 54.288 45.2147C54.288 45.2147 54.288 45.1 54.171 45.1V44.7557L46.332 34.4278L46.098 33.9688C45.981 33.8541 45.864 33.7393 45.747 33.7393C45.513 33.7393 45.513 33.8541 45.513 34.1983V40.9688C45.513 42.3459 45.63 43.3787 45.981 43.8377C46.332 44.2967 47.034 44.6409 48.087 44.8705C48.321 44.8705 48.438 44.9852 48.438 45.1V45.2147C48.438 45.4442 48.321 45.559 48.087 45.559C47.97 45.559 47.736 45.559 47.268 45.4442C46.917 45.4442 43.056 45.2147 42.705 45.2147C42.237 45.2147 41.535 45.2147 40.833 45.2147C39.429 45.2147 38.61 45.2147 38.259 45.3295C38.025 45.3295 37.908 45.4442 37.791 45.4442C37.557 45.4442 37.44 45.3295 37.44 45.1C37.44 44.8705 37.557 44.7557 37.791 44.641L38.259 44.5262C38.727 44.4114 38.961 43.9524 38.961 43.2639C38.961 42.5754 38.61 41.3131 38.025 39.3623L37.44 36.9524C37.206 36.2639 37.089 35.9196 36.972 35.8049C36.855 35.6901 36.504 35.6901 35.919 35.6901H30.654C29.952 35.6901 29.484 35.8049 29.367 35.9196C29.25 36.0344 29.016 36.6082 28.665 37.4114L27.729 40.1655C27.144 41.3131 26.91 42.2311 26.91 42.9196C26.91 43.4934 27.027 43.9524 27.261 44.1819C27.495 44.4114 27.963 44.6409 28.665 44.8705C28.899 44.9852 29.133 45.1 29.133 45.2147C29.133 45.2147 29.133 45.2147 29.133 45.3295C29.133 45.559 29.016 45.6737 28.665 45.6737C28.548 45.6737 28.431 45.6737 28.197 45.6737L26.793 45.559C26.325 45.559 25.74 45.559 25.155 45.559C24.921 45.559 24.687 45.559 24.453 45.559C23.985 45.6737 23.634 45.6737 23.634 45.6737C23.4 45.6737 23.283 45.559 23.283 45.3295C23.283 45.1 23.4 44.9852 23.517 44.9852L24.102 44.7557C24.336 44.6409 24.57 44.4114 24.921 43.8377C25.272 43.2639 25.506 42.8049 25.74 42.2311L26.208 40.9688L28.899 33.5098L33.696 19.8541C33.813 19.5098 33.93 19.2803 34.164 19.2803C34.281 19.2803 34.398 19.5098 34.515 19.8541L38.727 33.6246L40.833 40.395L41.184 41.4278C41.652 42.9196 42.003 43.8377 42.354 44.1819C42.471 44.2967 42.588 44.4114 42.705 44.5262C42.822 44.4114 42.822 44.2967 42.939 44.1819C43.173 43.4934 43.29 42.4606 43.29 40.8541C43.29 35.5754 43.29 30.2967 43.29 24.9032C43.29 23.5262 43.173 22.6082 42.939 22.1491C42.705 21.5754 42.237 21.2311 41.652 21.1164L40.95 20.8868C40.716 20.7721 40.599 20.6573 40.599 20.5426C40.599 20.3131 40.716 20.1983 40.95 20.1983C41.067 20.1983 41.301 20.1983 41.535 20.3131C42.003 20.4278 42.822 20.4278 43.875 20.4278H44.46H45.513C45.864 20.4278 46.098 20.4278 46.332 20.4278C46.683 20.3131 46.917 20.3131 47.034 20.3131C47.268 20.3131 47.385 20.4278 47.385 20.6573C47.385 20.7721 47.268 21.0016 47.034 21.1164C46.449 21.4606 45.981 21.8049 45.864 22.2639C45.747 22.7229 45.63 23.5262 45.63 24.7885V32.1328C45.63 32.3623 45.63 32.477 45.747 32.477L45.981 32.2475L46.215 32.018L52.533 24.9032C53.469 23.7557 53.937 22.9524 53.937 22.2639C53.937 21.6901 53.586 21.3459 52.884 21.1164C52.416 21.0016 52.182 20.8868 52.182 20.6573C52.182 20.4278 52.299 20.3131 52.65 20.3131C52.767 20.3131 52.884 20.3131 53.001 20.3131C53.469 20.3131 53.82 20.4278 54.405 20.4278H55.692H56.745C57.33 20.4278 57.798 20.4278 57.915 20.3131C58.149 20.3131 58.266 20.1983 58.383 20.1983C58.617 20.1983 58.734 20.3131 58.851 20.5426C58.851 20.7721 58.617 20.8868 58.149 21.0016C57.213 21.3459 55.575 22.8377 53.118 25.7065L48.087 31.4442C47.853 31.6737 47.736 31.9032 47.736 32.018C47.736 32.2475 47.853 32.477 48.087 32.8213L48.672 33.6246L55.692 42.9196C56.511 43.9524 57.33 44.6409 58.383 44.8705L58.851 44.9852C59.202 44.5262 59.553 44.1819 59.904 43.9524C57.096 41.1983 55.692 37.7557 55.575 33.5098C55.575 33.395 55.575 33.1655 55.575 33.0508C55.575 29.4934 56.394 26.5098 57.915 24.1C59.787 21.1164 62.478 19.7393 65.871 19.7393C68.913 19.7393 71.37 21.0016 73.242 23.4114C75.114 25.8213 76.05 29.0344 76.05 32.936C76.05 33.1655 76.05 33.395 76.05 33.6246C75.933 35.9196 75.582 37.9852 74.763 39.8213C73.827 41.8869 72.657 43.4934 71.136 44.641C70.668 44.9852 70.083 45.3295 69.615 45.559C69.03 45.7885 68.445 46.018 67.743 46.2475C68.679 46.936 69.381 47.395 69.849 47.6246L71.253 48.7721L71.487 49.0016L72.423 49.6901C73.242 50.3787 73.944 50.7229 74.529 50.7229C75.348 50.7229 76.05 50.4934 76.635 50.1491C76.869 50.0344 76.986 49.9196 77.103 49.9196C77.22 49.9196 77.337 50.0344 77.337 50.1491C77.337 50.6082 76.869 51.0672 75.933 51.5262C74.997 51.9852 74.061 52.2147 73.242 52.2147C72.072 52.2147 70.668 51.6409 69.147 50.4934C68.094 49.6901 67.392 49.1164 66.924 48.8868C66.807 48.7721 66.69 48.6573 66.573 48.6573L64.116 47.0508C62.712 46.018 61.542 45.559 60.957 45.559C60.372 45.559 59.787 45.9032 59.319 46.477C58.851 47.0508 58.5 47.8541 58.383 48.6573C58.383 48.7721 58.383 48.7721 58.383 48.8868C58.266 49.2311 58.149 49.3459 58.032 49.3459C57.798 49.3459 57.681 49.2311 57.681 49.0016C57.564 48.5426 57.564 48.4278 57.564 48.3131ZM36.036 32.7065L33.696 25.3623L33.579 25.018C33.462 24.6737 33.345 24.4442 33.228 24.4442C33.111 24.4442 33.111 24.559 32.994 24.7885L30.186 32.8213C30.069 33.1655 30.069 33.2803 29.952 33.395C29.952 33.7393 30.186 33.8541 30.654 33.8541H31.005H35.451C35.919 33.8541 36.153 33.7393 36.153 33.395C36.27 33.1655 36.153 32.936 36.036 32.7065ZM57.915 33.2803C58.266 36.8377 59.319 39.7065 61.191 41.8869C62.829 43.8377 64.818 44.7557 66.807 44.7557C68.913 44.7557 70.668 43.8377 71.955 41.8869C73.242 39.936 73.944 37.4114 73.944 34.3131C73.944 33.9688 73.944 33.5098 73.944 33.1655C73.827 29.8377 72.891 26.8541 71.37 24.4442C69.615 21.6901 67.509 20.4278 64.935 20.4278C62.829 20.4278 61.074 21.4606 59.787 23.4114C58.5 25.3623 57.798 27.8868 57.798 31.1C57.798 31.3295 57.915 33.0508 57.915 33.2803ZM77.688 33.2803L82.485 19.6246C82.602 19.2803 82.719 19.0508 82.953 19.0508C83.07 19.0508 83.187 19.2803 83.304 19.6246L87.516 33.395L89.622 40.1655L89.973 41.1983C90.441 42.6901 90.792 43.6082 91.143 43.9524C91.494 44.2967 92.079 44.6409 93.015 44.8705C93.366 44.9852 93.483 45.1 93.483 45.3295C93.483 45.559 93.366 45.6737 93.132 45.6737C93.015 45.6737 92.898 45.6737 92.547 45.6737C92.079 45.6737 91.143 45.559 89.856 45.559C88.452 45.559 87.633 45.559 87.282 45.6737C87.048 45.6737 86.931 45.7885 86.814 45.7885C86.58 45.7885 86.463 45.6737 86.463 45.4442C86.463 45.2147 86.58 45.1 86.814 44.9852L87.282 44.8705C87.75 44.7557 87.984 44.2967 87.984 43.6082C87.984 42.9196 87.633 41.6573 87.048 39.7065L86.346 37.2967C86.112 36.6082 85.995 36.2639 85.878 36.1491C85.761 36.0344 85.41 36.0344 84.825 36.0344H79.56C78.858 36.0344 78.39 36.1491 78.273 36.2639C78.156 36.3787 77.922 36.9524 77.571 37.7557L76.635 40.5098C76.167 41.7721 75.933 42.6901 75.933 43.2639C75.933 43.8377 76.05 44.2967 76.284 44.5262C76.518 44.7557 76.986 44.9852 77.688 45.2147C77.922 45.3295 78.156 45.4442 78.156 45.559C78.156 45.559 78.156 45.559 78.156 45.6737C78.156 45.9032 78.039 46.018 77.805 46.018C77.688 46.018 77.571 46.018 77.337 46.018L75.933 45.9032C75.465 45.9032 74.88 45.9032 74.295 45.9032C74.061 45.9032 73.827 45.9032 73.593 45.9032C73.125 46.018 72.774 46.018 72.774 46.018C72.54 46.018 72.423 45.9032 72.423 45.6737C72.423 45.4442 72.54 45.3295 72.657 45.3295L73.242 45.1C73.476 44.9852 73.71 44.7557 74.061 44.1819C74.412 43.6082 74.646 43.1491 74.88 42.5754L75.348 41.3131L77.688 33.2803ZM84.942 32.7065L82.602 25.3623L82.485 25.018C82.368 24.6737 82.251 24.4442 82.134 24.4442C82.017 24.4442 82.017 24.559 81.9 24.7885L79.092 32.8213C78.975 33.1655 78.975 33.2803 78.858 33.395C78.858 33.7393 79.092 33.8541 79.56 33.8541H79.911H84.357C84.825 33.8541 85.059 33.7393 85.059 33.395C85.176 33.1655 85.059 32.936 84.942 32.7065Z" fill="white"/>
</svg>
