<svg width="117" height="70" viewBox="0 0 117 70" fill="none" xmlns="http://www.w3.org/2000/svg">
<g clip-path="url(#clip0_197_5409)">
<mask id="mask0_197_5409" style="mask-type:luminance" maskUnits="userSpaceOnUse" x="9" y="19" width="99" height="32">
<path d="M107.352 19.5078H9.65234V50.5614H107.352V19.5078Z" fill="white"/>
</mask>
<g mask="url(#mask0_197_5409)">
<path d="M107.347 19.5078L86.9215 50.4822L48.6239 43.0324L9.65234 49.0949L20.1578 33.2221C20.5405 33.4173 20.9518 33.5532 21.3769 33.6249L12.2263 47.4573L48.6484 41.7919L86.3341 49.1236L94.2703 37.0927H94.3533C94.8814 37.0761 95.3958 36.9238 95.8451 36.6509L95.5877 36.1024L95.1197 35.8075L104.714 21.2555L56.7565 30.4014L57.6223 28.9911L107.347 19.5078ZM76.1002 31.5421C76.3975 31.525 76.6767 31.3962 76.8797 31.1825C77.0828 30.9688 77.1941 30.6866 77.1906 30.3945C77.1985 30.2963 77.185 30.1976 77.1511 30.1048C77.1171 30.0121 77.0634 29.9275 76.9936 29.8567C76.9238 29.7858 76.8395 29.7303 76.7462 29.6939C76.6528 29.6574 76.5527 29.6408 76.4523 29.6452C76.1478 29.66 75.861 29.7902 75.6523 30.0083C75.4437 30.2265 75.3295 30.5155 75.3338 30.8145C75.3267 30.9137 75.3418 31.0132 75.3783 31.106C75.4147 31.1988 75.4715 31.2826 75.5446 31.3515C75.6177 31.4204 75.7054 31.4726 75.8014 31.5046C75.8974 31.5365 75.9994 31.5474 76.1002 31.5363M23.6058 27.489H23.8585H23.9533L28.9714 19.906L54.6178 29.5614L54.7278 29.3836L55.3245 28.4162L57.2269 28.3014C55.803 30.5713 53.1834 34.8022 52.9704 35.1557C51.8437 37.017 51.2786 37.9763 51.2786 38.4836C51.2786 38.666 51.3547 38.7945 51.577 38.7945C52.1971 38.7945 53.4162 37.8926 55.9528 34.7586C56.1868 34.474 56.7718 33.6593 56.987 33.354L58.7923 33.2703C57.7826 34.7552 56.3892 36.7703 55.8088 37.834C55.663 38.0508 55.5679 38.2965 55.5304 38.5536C55.5304 38.7234 55.631 38.8152 55.8287 38.8152C56.5167 38.8152 57.8002 37.7996 59.6897 35.1832C60.1402 34.559 60.497 34.0024 60.9217 33.3632L62.7107 33.268C62.2064 34.0598 61.1897 35.7054 61.0809 35.8809C60.4829 36.6695 60.0376 37.5591 59.767 38.5054C59.767 38.6958 59.8606 38.8117 60.1098 38.8117C61.4155 38.8117 63.2454 36.4914 63.6806 35.2544C63.6305 34.5679 63.7832 33.8818 64.1205 33.2783C64.1968 33.1615 64.3027 33.0661 64.4278 33.0013C64.5528 32.9366 64.6929 32.9047 64.8342 32.9088C65.115 32.9088 65.3268 33.0431 65.3268 33.2186C65.1317 34.0603 64.7782 34.8589 64.2843 35.5734C64.38 35.7813 64.5234 35.9647 64.7032 36.1094C64.883 36.2541 65.0944 36.3562 65.3209 36.4076C66.0229 35.0834 67.7464 32.9765 69.9085 32.9765C70.6831 32.9765 71.0434 33.2588 71.0434 33.844C71.0434 34.9572 69.2884 36.5213 66.8934 36.8483C66.6697 37.2518 66.5342 37.6965 66.4956 38.1542C66.4956 38.557 66.6852 38.8496 67.2737 38.8496C69.1866 38.8496 71.5161 36.0014 72.7727 34.3742C72.871 34.2514 73.3577 33.5893 73.4981 33.3678L75.2964 33.2645C73.7754 35.6204 73.2851 36.4076 73.2851 36.4076C72.8111 37.047 72.4548 37.7628 72.2321 38.5226C72.2267 38.5629 72.2308 38.6039 72.2442 38.6425C72.2576 38.681 72.2799 38.7159 72.3094 38.7446C72.3388 38.7733 72.3746 38.7949 72.414 38.8077C72.4534 38.8206 72.4952 38.8243 72.5363 38.8186C73.2535 38.8186 74.5663 37.6619 76.4827 35.7444C77.283 34.9411 78.1769 34.0231 78.7303 33.4286C78.9175 32.6862 79.3153 32.3545 79.7634 32.3545C79.8357 32.3467 79.9088 32.3542 79.9778 32.3768C80.0467 32.3993 80.1099 32.4362 80.163 32.4849C80.216 32.5337 80.2576 32.5931 80.285 32.6591C80.3124 32.7252 80.3248 32.7963 80.3215 32.8675C80.3135 33.0464 80.2406 33.2166 80.1159 33.3474C79.9913 33.4783 79.8232 33.5612 79.6417 33.5813C79.6286 33.6833 79.6219 33.786 79.6219 33.8888C79.6219 34.6003 79.7002 35.1591 79.7002 35.889C79.7363 36.6055 79.5392 37.3148 79.1375 37.9144C80.0735 37.1799 81.9361 35.4552 83.0511 34.4327C83.8619 33.581 84.9703 33.0606 86.1551 32.9754C86.8794 32.9754 87.3029 33.2255 87.3029 33.8429C87.3029 35.3049 84.8658 36.6601 83.1599 36.8391C82.9176 37.2645 82.7757 37.7379 82.7446 38.2242C82.7446 38.6155 82.9786 38.8485 83.4466 38.8485C84.7687 38.8485 86.1247 37.4944 87.1543 36.2091C88.7923 34.1734 89.5786 33.0844 90.8188 33.0844C91.4845 33.0844 91.8016 33.4286 91.8016 33.8876C91.6929 34.6536 91.3945 35.3818 90.9323 36.0083C92.8651 33.5847 93.7952 33.0591 94.4809 33.0591C94.9769 33.0591 95.2882 33.2886 95.2928 33.6168C94.9221 33.7648 94.6 34.01 94.3618 34.3255C94.1237 34.6411 93.9786 35.0148 93.9427 35.4058C93.9325 35.5597 93.98 35.7119 94.076 35.8339C94.126 35.8845 94.1867 35.9238 94.2538 35.9489C94.3209 35.9741 94.3928 35.9846 94.4645 35.9796C94.6924 35.9767 94.9154 35.9141 95.1103 35.7983L95.2554 36.1426C94.9013 36.3266 94.506 36.4209 94.1053 36.4168C93.2383 36.4168 92.8042 36.0095 92.8042 35.3496C92.8309 34.8992 92.9916 34.4663 93.2664 34.1045C91.6585 35.6995 90.2249 37.4548 88.9889 39.3419L87.1836 39.4085C87.4258 39.008 88.962 36.7691 90.0243 34.9503C90.2734 34.6219 90.447 34.2445 90.5333 33.844C90.536 33.8171 90.5324 33.79 90.5229 33.7646C90.5134 33.7392 90.4982 33.7162 90.4785 33.6973C90.4587 33.6785 90.4348 33.6642 90.4087 33.6557C90.3825 33.6471 90.3547 33.6444 90.3274 33.6478C89.7552 33.6478 88.7911 34.8309 87.5404 36.4019C86.6243 37.5575 84.9372 39.5508 82.7434 39.5508C81.5992 39.5508 81.0727 38.9529 81.0727 38.1645C81.1066 37.4711 81.3253 36.7985 81.7068 36.2137C81.1487 36.7003 80.6409 37.1558 80.1367 37.6022C79.08 38.7521 77.6149 39.462 76.0417 39.5863C75.094 39.5863 74.5546 39.1904 74.5546 38.7406C74.5518 38.6861 74.5601 38.6316 74.5791 38.5803C74.5981 38.529 74.6274 38.482 74.6652 38.442C74.7031 38.402 74.7487 38.3698 74.7994 38.3474C74.8502 38.325 74.905 38.3127 74.9606 38.3114C75.5526 38.3114 75.3549 39.1583 76.1493 39.1583C77.049 39.1583 77.7873 38.3424 78.2647 35.7157C78.329 35.3714 78.4717 34.6622 78.5677 34.2239C77.1637 35.6858 76.1902 36.6578 75.7597 37.0652C74.5429 38.2219 73.1389 39.5542 71.8156 39.5542C71.0539 39.5542 70.6386 39.1813 70.6386 38.5501C70.7044 37.8983 70.9423 37.2745 71.3289 36.7404C70.2759 37.8375 68.5946 39.5473 66.5635 39.5473C65.3631 39.5473 64.8085 38.9667 64.8085 38.0934C64.825 37.643 64.9336 37.2005 65.1279 36.7921C64.667 36.6727 64.2699 36.3854 64.0176 35.9888C63.4311 36.8957 62.7227 37.7209 61.9116 38.4422C61.2456 39.1023 60.3522 39.4944 59.4066 39.5416C58.6531 39.5416 58.2038 39.1973 58.2038 38.5478C58.2531 38.0467 58.4201 37.5635 58.6917 37.1363C57.7183 38.3344 56.4442 39.5462 55.0565 39.5462C54.447 39.5462 53.9497 39.2593 53.9497 38.5845C54.0262 37.9981 54.2578 37.4415 54.6213 36.9699C53.7695 37.888 52.3527 39.545 50.779 39.545C50.0501 39.545 49.6745 39.1755 49.6745 38.5685C49.7107 38.0732 49.8594 37.5921 50.1098 37.1604C49.912 37.3957 49.6897 37.6401 49.547 37.7985C49.1966 38.2907 48.7413 38.7024 48.2126 39.0049C47.6839 39.3075 47.0945 39.4937 46.4851 39.5508C46.3302 39.571 46.1727 39.5577 46.0236 39.5119C45.8744 39.466 45.7374 39.3887 45.622 39.2854C45.5065 39.182 45.4156 39.0551 45.3555 38.9136C45.2954 38.7722 45.2677 38.6195 45.2742 38.4663C45.3021 38.0779 45.4016 37.6977 45.5678 37.344C44.5359 38.4285 43.3027 39.5668 42.0122 39.5668C41.2763 39.5668 40.9756 39.1595 40.9756 38.6706C41.0118 38.2279 41.1519 37.7994 41.3851 37.4186L40.9756 37.8363C40.1997 38.7676 39.0974 39.3814 37.8844 39.5576C37.2 39.5576 36.7741 39.1996 36.7741 38.6006C36.9307 37.7156 37.3359 36.891 37.9441 36.2195L37.3895 36.737C34.7641 39.1893 32.0812 40.6811 29.1832 40.6811C27.0584 40.6811 26.381 39.7631 26.381 38.6706C26.3844 38.505 26.402 38.3399 26.4337 38.1772L26.0663 38.658C25.0203 39.9581 24.1943 40.6788 23.1682 40.6788C22.3164 40.6788 21.5735 40.268 21.5735 39.5313C21.6409 38.9965 21.8494 38.4882 22.1784 38.0567C22.8991 36.8919 24.8799 34.0058 26.3763 31.9058C25.1795 32.6233 23.8009 32.9955 22.3983 32.9799C19.9495 32.9799 18.7187 32.0034 18.7187 30.5701C18.7187 28.7536 20.5731 27.5337 23.5964 27.4717M83.3939 36.3927C84.8096 36.1632 86.4944 34.7357 86.4944 33.7098C86.4944 33.5285 86.4125 33.408 86.2078 33.408C85.4742 33.408 84.4528 34.5016 83.3998 36.3916M67.1227 36.3996C68.5396 36.1701 70.2349 34.8172 70.2349 33.7075C70.2393 33.6674 70.2345 33.6269 70.2209 33.5888C70.2073 33.5508 70.1853 33.5162 70.1564 33.4875C70.1275 33.4589 70.0925 33.4369 70.0539 33.4231C70.0153 33.4093 69.974 33.4042 69.9331 33.408C69.0813 33.408 67.9616 34.8917 67.1251 36.3996M27.8763 35.1763C29.1913 33.2875 30.5017 31.2598 31.4143 30.0503C31.0329 29.8517 30.6468 29.667 30.2584 29.4914C29.8255 30.0858 24.2528 38.1198 23.869 38.759C23.6629 39.0289 23.5268 39.344 23.4724 39.677C23.4704 39.7092 23.4756 39.7414 23.4878 39.7713C23.5 39.8012 23.5188 39.8281 23.5429 39.8501C23.5669 39.872 23.5956 39.8885 23.6269 39.8982C23.6582 39.908 23.6914 39.9108 23.7239 39.9065C24.0229 39.8584 24.296 39.7109 24.4973 39.4888C25.773 38.1684 26.9065 36.7225 27.8798 35.174M30.5392 33.3931L30.9686 32.7654C31.9628 32.8453 32.9632 32.7258 33.9088 32.4142C34.5614 32.095 35.1225 31.621 35.5411 31.0352C35.9598 30.4495 36.2227 29.7706 36.3061 29.0599C36.3061 28.4449 36.0592 27.9503 35.2531 27.9503C34.0351 27.9503 32.9424 29.0978 32.2415 29.9826C32.7068 30.255 33.1539 30.5562 33.58 30.8845L33.291 31.2529C32.8639 30.9244 32.4135 30.626 31.9432 30.3601C31.1792 31.3619 29.4359 34.0047 28.2343 35.734C28.9773 35.2888 29.8311 35.0529 30.7018 35.0524V35.5309C29.784 35.4603 28.8751 35.75 28.175 36.3364C27.4749 36.9228 27.0409 37.7578 26.9683 38.658C26.9683 39.506 27.4363 40.0936 28.6801 40.0936C31.5711 40.0936 33.559 37.0537 33.559 35.0593C33.559 34.155 33.2267 33.3495 31.7689 33.3495H31.0762C30.8975 33.3462 30.7189 33.3592 30.5427 33.3885M51.6659 34.0942C51.6659 33.7419 51.4319 33.5399 51.0259 33.5399C50.3239 33.5399 49.6219 34.0139 48.6566 35.2004C47.8449 36.122 47.2686 37.2199 46.9753 38.4032C46.9753 38.5765 47.0221 38.7716 47.3813 38.7716C47.7405 38.7716 48.3279 38.518 49.1738 37.5908C50.0772 36.6158 50.8802 35.5556 51.5711 34.4258C51.6296 34.3229 51.6613 34.2074 51.6635 34.0896M25.3865 27.5681C25.6743 27.5991 25.9516 27.6381 26.2207 27.6829C27.1463 27.8421 28.0544 28.0873 28.9328 28.415C29.0896 28.2039 29.2218 28.0306 29.3598 27.8585L31.5126 27.7678C31.3149 28.0363 30.9569 28.5172 30.5427 29.0863C30.9335 29.2676 31.3278 29.4627 31.7127 29.6601C33.0406 28.0054 34.2785 27.2503 35.8908 27.2503C37.6317 27.2503 38.2834 28.2245 38.2834 29.2206C38.2233 30.186 37.8075 31.0971 37.1134 31.7842C36.2734 32.5321 35.2352 33.0321 34.1182 33.2267C34.5727 33.3911 34.9622 33.6928 35.2305 34.0884C35.4989 34.484 35.6321 34.953 35.6111 35.4276C35.5314 36.6782 34.9909 37.8577 34.0901 38.7463C35.9148 37.5695 37.5585 36.1428 38.9714 34.5096C39.2054 34.2273 39.6219 33.6604 39.8372 33.3621L41.715 33.2473C41.715 33.2473 39.32 36.8047 38.8017 37.6722C38.6076 37.9312 38.4814 38.2331 38.4343 38.5513C38.4343 38.666 38.5057 38.7808 38.7198 38.7808C39.4464 38.7808 40.8165 37.577 41.7911 36.3365C42.2368 35.7627 43.8468 33.3724 43.8468 33.3724L45.7539 33.2576C44.2013 35.5917 43.6993 36.3767 43.6993 36.3767C43.2938 36.9621 42.9493 37.5861 42.6709 38.2391C42.6405 38.3324 42.6236 38.4293 42.6206 38.5272C42.6152 38.5636 42.6185 38.6008 42.6302 38.6358C42.6419 38.6708 42.6618 38.7026 42.6883 38.7287C42.7147 38.7549 42.747 38.7747 42.7826 38.7865C42.8181 38.7983 42.856 38.8018 42.8932 38.7968C44.0024 38.7968 45.9867 36.2286 46.6185 35.4472C47.0717 34.7677 47.6741 34.1964 48.3817 33.775C49.0892 33.3537 49.884 33.093 50.7076 33.0121C50.9784 32.9827 51.252 33.0338 51.4928 33.1588C51.7335 33.2839 51.9304 33.477 52.0578 33.7132C52.4767 33.0362 53.1553 31.938 53.7859 30.9167L53.9661 30.6252L29.4675 21.4013L25.3865 27.5681ZM19.5681 30.5999C19.5628 30.8147 19.6015 31.0284 19.6819 31.2283C19.7623 31.4281 19.8827 31.6101 20.0361 31.7636C20.2557 31.9759 20.5184 32.1405 20.8071 32.2467L23.1682 28.679C23.4791 28.6465 23.7915 28.6304 24.1042 28.6308C24.2961 28.6308 24.4868 28.6308 24.6751 28.6457L22.1222 32.5026C22.2392 32.5095 22.3667 32.5129 22.4954 32.5117C22.699 32.5117 22.8944 32.5026 23.0804 32.4876C24.7572 32.3812 26.3263 31.6407 27.4574 30.4221L28.6274 28.8247C27.1362 28.265 25.5535 27.9764 23.9568 27.9732C21.2283 27.9732 19.5646 29.0588 19.5611 30.5999M90.4631 49.7926C90.4639 49.8939 90.4436 49.9944 90.4033 50.0877C90.3631 50.1811 90.3038 50.2653 90.2291 50.3354C90.1569 50.4073 90.0708 50.4644 89.9759 50.5034C89.881 50.5424 89.7792 50.5625 89.6763 50.5625C89.5734 50.5625 89.4715 50.5424 89.3766 50.5034C89.2817 50.4644 89.1956 50.4073 89.1234 50.3354C89.0137 50.2275 88.9391 50.0902 88.9089 49.9408C88.8788 49.7913 88.8946 49.6365 88.9542 49.4958C89.0138 49.3552 89.1146 49.235 89.2439 49.1506C89.3731 49.0661 89.525 49.0212 89.6804 49.0214C89.7832 49.0205 89.8851 49.0404 89.9797 49.0798C90.0744 49.1193 90.1597 49.1776 90.2303 49.2509C90.305 49.3214 90.3643 49.4061 90.4045 49.4998C90.4447 49.5935 90.4651 49.6943 90.4642 49.796M90.3238 49.796C90.3255 49.711 90.3096 49.6266 90.2772 49.5477C90.2449 49.4689 90.1967 49.3972 90.1355 49.337C90.078 49.2763 90.0083 49.228 89.9307 49.1952C89.8532 49.1624 89.7695 49.1458 89.685 49.1465C89.5995 49.1452 89.5147 49.1613 89.436 49.1939C89.3572 49.2265 89.2862 49.2749 89.2276 49.3358C89.1052 49.4585 89.0367 49.6233 89.0367 49.7949C89.0367 49.9665 89.1052 50.1312 89.2276 50.2539C89.2862 50.3138 89.3566 50.3615 89.4345 50.3941C89.5124 50.4267 89.5962 50.4435 89.6809 50.4435C89.7656 50.4435 89.8495 50.4267 89.9274 50.3941C90.0053 50.3615 90.0757 50.3138 90.1343 50.2539C90.1959 50.1939 90.2444 50.1223 90.277 50.0434C90.3096 49.9645 90.3255 49.8811 90.3238 49.796ZM90.0758 50.239H89.8722L89.726 49.8809H89.5095V50.239H89.3165V49.3439H89.7365C89.8282 49.3368 89.9194 49.3629 89.9927 49.4173C90.0203 49.4407 90.0421 49.4699 90.0567 49.5026C90.0713 49.5354 90.0782 49.5709 90.077 49.6067C90.0778 49.6574 90.0619 49.7071 90.0318 49.7484C90.0017 49.7897 89.9589 49.8205 89.9097 49.8362L90.0758 50.239ZM89.5095 49.7398H89.7084C89.8254 49.7398 89.8769 49.6973 89.8769 49.6136C89.8769 49.5298 89.8254 49.4919 89.7225 49.4919H89.5095V49.7398Z" fill="white"/>
</g>
</g>
<defs>
<clipPath id="clip0_197_5409">
<rect width="117" height="70" fill="white"/>
</clipPath>
</defs>
</svg>
