<svg width="117" height="70" viewBox="0 0 117 70" fill="none" xmlns="http://www.w3.org/2000/svg">
<path d="M12.5176 29.2621C12.7516 28.6883 12.9856 27.6555 12.4006 27.0817C12.0496 26.8522 11.6986 26.6227 11.1136 26.6227C9.70963 26.6227 8.77363 27.3112 8.53963 28.4588C8.18863 29.9506 9.70963 30.6391 11.3476 31.4424C13.4536 32.4752 15.6766 33.8522 15.3256 36.7211C14.8576 40.2785 12.1666 41.5408 7.48663 41.5408C5.84863 41.5408 3.62563 40.8522 3.15763 39.9342C2.68963 39.0162 2.33863 37.8686 2.92363 36.0326H6.90163C6.66763 36.6063 6.43363 38.0981 7.01863 38.6719C7.36963 39.0162 7.95463 39.2457 8.77363 39.2457C10.1776 39.2457 11.1136 38.5572 11.3476 37.1801C11.5816 35.8031 10.0606 34.885 8.53963 33.967C6.55063 32.8194 4.21063 31.6719 4.79563 28.9178C5.38063 25.8194 7.83763 24.2129 12.0496 24.2129C14.1556 24.2129 15.5596 24.6719 16.2616 25.4752C16.9636 26.2785 17.0806 27.5408 16.6126 29.1473L12.5176 29.2621ZM33.5776 41.3112L35.0986 33.3932C35.2156 32.8194 35.3326 32.1309 34.9816 31.7867C34.7476 31.5572 34.5136 31.4424 34.0456 31.4424C32.7586 31.4424 32.4076 32.3604 32.2906 33.3932L30.7696 41.426H27.4936L29.5996 29.8358H32.7586L32.4076 30.9834H32.6416C33.4606 30.0653 34.6306 29.4916 35.9176 29.4916C36.8536 29.4916 37.6726 29.8358 38.1406 30.2949C38.4916 30.7539 38.6086 31.2129 38.4916 31.9014L36.8536 41.3112H33.5776ZM43.2886 37.9834H43.4056L46.9156 29.7211H50.0746L42.2356 45.7867H38.7256L40.8316 41.5408L39.5446 29.7211H42.8206L43.2886 37.9834ZM66.6886 28.2293H66.4546L60.6046 41.1965H57.3286L56.3926 28.2293H56.1586L53.8186 41.1965H50.3086L53.3506 24.5572H59.2006L59.9026 36.0326H60.1366L65.1676 24.5572H70.7836L67.7416 41.1965H64.3486L66.6886 28.2293ZM76.2826 40.049H76.0486C75.2296 40.967 74.1766 41.426 72.7726 41.426C71.8366 41.426 71.0176 41.0817 70.5496 40.6227C70.1986 40.1637 70.0816 39.7047 70.1986 39.0162L71.9536 29.6063H75.3466L73.8256 37.6391C73.7086 38.3276 73.7086 39.0162 74.0596 39.3604C74.2936 39.5899 74.5276 39.7047 74.9956 39.7047C76.2826 39.7047 76.6336 38.7867 76.7506 37.7539L78.2716 29.6063H81.6646L79.9096 39.0162C79.7926 39.7047 79.6756 40.508 79.6756 41.1965H76.2826V40.049ZM88.4506 32.9342C88.8016 32.3604 88.5676 31.6719 88.3336 31.3276C88.0996 31.0981 87.7486 30.9834 87.3976 30.9834C86.5786 30.9834 85.9936 31.4424 85.8766 32.3604C85.7596 33.2785 86.6956 33.6227 87.9826 34.1965C89.6206 34.885 91.4926 35.8031 91.1416 37.8686C90.7906 39.9342 88.5676 41.3112 85.8766 41.3112C83.7706 41.3112 82.6006 40.967 82.0156 40.2785C81.5476 39.7047 81.4306 38.7867 81.7816 37.5244H85.0576C84.9406 37.9834 84.8236 38.5572 84.9406 38.9014C85.1746 39.3604 85.5256 39.5899 86.2276 39.5899C86.9296 39.5899 87.7486 39.1309 87.8656 38.3276C88.0996 37.0653 86.8126 36.6063 85.5256 36.0326C83.8876 35.344 82.2496 34.6555 82.6006 32.7047C83.1856 29.7211 86.9296 29.4916 88.0996 29.4916C89.6206 29.4916 90.7906 29.9506 91.3756 30.6391C91.8436 31.2129 91.9606 32.0162 91.7266 32.9342H88.4506ZM98.2786 24.6719L97.8106 27.3112H94.5346L95.0026 24.6719H98.2786ZM97.3426 29.7211L95.2366 41.3112H91.9606L94.0666 29.7211H97.3426ZM104.948 33.7375C105.182 32.8194 105.182 32.1309 104.831 31.7867C104.597 31.5572 104.246 31.4424 103.778 31.4424C102.14 31.4424 101.789 32.9342 101.321 35.2293C100.853 37.8686 100.853 38.9014 101.204 39.3604C101.438 39.5899 101.672 39.7047 102.257 39.7047C103.661 39.7047 104.48 38.0981 104.48 37.1801H107.756C107.405 39.9342 105.299 41.6555 101.906 41.6555C100.151 41.6555 98.9806 41.3112 98.3956 40.508C97.4596 39.4752 97.5766 37.7539 98.0446 35.4588C98.6296 32.3604 99.5656 29.6063 104.246 29.6063C106.001 29.6063 107.288 30.0653 107.873 30.7539C108.458 31.4424 108.692 32.4752 108.458 33.7375H104.948ZM16.7296 35.344C17.3146 32.2457 18.2506 29.4916 22.9306 29.4916C24.6856 29.4916 25.8556 29.8358 26.4406 30.6391C27.3766 31.6719 27.1426 33.508 26.9086 35.344C26.2066 39.3604 24.9196 41.5408 20.7076 41.5408C18.9526 41.5408 17.7826 41.1965 17.1976 40.3932C16.1446 39.3604 16.2616 37.6391 16.7296 35.344ZM23.5156 35.2293C23.8666 33.6227 23.9836 32.3604 23.5156 31.7867C23.2816 31.5572 22.9306 31.4424 22.4626 31.4424C20.8246 31.4424 20.4736 32.9342 20.0056 35.2293C19.5376 37.8686 19.5376 38.9014 19.8886 39.3604C20.1226 39.5899 20.3566 39.7047 20.9416 39.7047C22.4626 39.5899 22.9306 38.7867 23.5156 35.2293ZM109.979 39.3604H109.043V39.1309H111.149V39.3604H110.213V41.3112H109.979V39.3604ZM111.851 39.3604V41.1965H111.5V39.1309H111.968L112.904 40.967L113.84 39.1309H114.308V41.3112H113.957V39.4752L113.138 41.3112H112.787L111.851 39.3604Z" fill="white"/>
</svg>
