<svg width="117" height="70" viewBox="0 0 117 70" fill="none" xmlns="http://www.w3.org/2000/svg">
<g clip-path="url(#clip0_197_5270)">
<mask id="mask0_197_5270" style="mask-type:luminance" maskUnits="userSpaceOnUse" x="23" y="13" width="71" height="44">
<path d="M93.5985 13.8809H23.3984V56.2113H93.5985V13.8809Z" fill="white"/>
</mask>
<g mask="url(#mask0_197_5270)">
<path d="M53.9237 30.4146C53.5278 30.1319 53.0451 29.9906 52.556 30.0141H48.571C48.4915 30.0162 48.4161 30.0489 48.3611 30.1052C48.3062 30.1615 48.276 30.2368 48.2773 30.3147V33.0206C48.2757 33.0989 48.3057 33.1746 48.3606 33.2313C48.4156 33.288 48.4912 33.3212 48.571 33.3236H52.5022C52.7533 33.3243 53.0036 33.2973 53.2486 33.2432C53.4666 33.1981 53.6736 33.112 53.8582 32.9896C54.0344 32.8687 54.1762 32.7055 54.27 32.5157C54.381 32.2716 54.4334 32.0059 54.4233 31.7388C54.4486 31.4949 54.4166 31.2485 54.3298 31.0186C54.243 30.7886 54.1037 30.5812 53.9225 30.4123" fill="white"/>
<path d="M48.571 27.1602H52.3454C52.7544 27.1767 53.1571 27.0574 53.4885 26.8216C53.642 26.6867 53.7608 26.5182 53.8354 26.3298C53.91 26.1414 53.9383 25.9384 53.9179 25.7372C53.9279 25.4995 53.878 25.263 53.7728 25.0487C53.6844 24.8817 53.5529 24.7405 53.3914 24.639C53.2169 24.5354 53.0246 24.4639 52.8239 24.4279C52.5971 24.3863 52.3667 24.366 52.136 24.3671H48.571C48.4911 24.3692 48.4154 24.4022 48.3603 24.459C48.3053 24.5158 48.2754 24.5917 48.2773 24.67V26.8503C48.2757 26.9285 48.3057 27.004 48.3607 27.0606C48.4158 27.1171 48.4913 27.15 48.571 27.1521" fill="white"/>
<path d="M92.4145 21.5319H85.3477C85.2372 21.5316 85.1287 21.5034 85.0325 21.4499C84.9364 21.3965 84.856 21.3196 84.799 21.2267C84.799 21.2336 84.799 21.2382 84.799 21.2462C83.523 18.9088 81.5957 16.9754 79.2421 15.6714C76.8884 14.3674 74.2052 13.7466 71.5055 13.8813H45.4917C42.7918 13.7462 40.1085 14.3666 37.7544 15.6702C35.4003 16.9737 33.4725 18.9068 32.1958 21.2439C32.1958 21.2439 32.1958 21.2347 32.1958 21.2278C32.1384 21.3208 32.0575 21.3977 31.961 21.4512C31.8645 21.5047 31.7556 21.5329 31.6447 21.5331H24.5814C24.2682 21.534 23.968 21.6563 23.7464 21.8735C23.5249 22.0906 23.3998 22.3849 23.3986 22.6921V35.5549C23.3992 35.8626 23.5239 36.1576 23.7456 36.3754C23.9672 36.5932 24.2677 36.7161 24.5814 36.7173H31.6541C31.7637 36.7182 31.8713 36.7465 31.9667 36.7995C32.0622 36.8525 32.1422 36.9285 32.1993 37.0203C32.1988 37.0153 32.1988 37.0103 32.1993 37.0054C33.4756 39.3427 35.4031 41.276 37.757 42.5798C40.1109 43.8836 42.7942 44.5042 45.494 44.3691H71.5055C74.206 44.5043 76.8901 43.8834 79.2445 42.579C81.5989 41.2745 83.5265 39.3403 84.8025 37.0019C84.8025 37.0088 84.8025 37.0134 84.8025 37.0203C84.8592 36.9286 84.9388 36.8526 85.0338 36.7996C85.1288 36.7466 85.2361 36.7182 85.3454 36.7173H92.418C92.7314 36.7155 93.0313 36.5923 93.2524 36.3746C93.4735 36.1568 93.598 35.8622 93.5986 35.5549V22.6921C93.5973 22.3846 93.4722 22.09 93.2503 21.8727C93.0285 21.6553 92.7281 21.5328 92.4145 21.5319ZM56.8933 33.8106C56.6624 34.3272 56.3147 34.7855 55.8766 35.1509C55.4496 35.4962 54.9574 35.7555 54.4281 35.9141C53.9798 36.0308 53.5217 36.1076 53.0592 36.1436C52.8978 36.1539 52.6334 36.1631 52.4742 36.1631H48.5325C48.345 36.1746 48.1677 36.2506 48.0317 36.3777L45.7982 38.6727L45.5935 38.8873C45.4621 39.0251 45.3033 39.1349 45.1269 39.21C44.9505 39.2851 44.7603 39.3239 44.568 39.3239C44.3757 39.3239 44.1854 39.2851 44.009 39.21C43.8326 39.1349 43.6738 39.0251 43.5425 38.8873C43.2695 38.601 43.1176 38.2236 43.1176 37.8316C43.1176 37.4396 43.2695 37.0622 43.5425 36.7759L44.5264 35.7614L45.3033 34.9582C45.4282 34.8134 45.501 34.6323 45.5104 34.4429V21.8349C45.5088 21.7569 45.5386 21.6815 45.5934 21.625C45.6482 21.5685 45.7234 21.5355 45.8029 21.5331H52.2976C52.4579 21.5331 52.7223 21.5388 52.8826 21.548C53.3263 21.5715 53.7675 21.6283 54.2023 21.7178C54.6687 21.8317 55.1035 22.0457 55.4753 22.3444C55.858 22.6424 56.1564 23.0315 56.3423 23.4747C56.5676 24.0273 56.6797 24.6181 56.6722 25.2132C56.6944 25.8643 56.5419 26.5097 56.2299 27.0849C56.0691 27.3496 55.8723 27.5917 55.6449 27.8044C55.5099 27.9283 55.3647 28.0411 55.2109 28.1418C55.2013 28.1459 55.1933 28.1529 55.188 28.1618C55.1827 28.1706 55.1803 28.1809 55.1812 28.1911C55.1821 28.2013 55.1862 28.211 55.193 28.2188C55.1998 28.2267 55.2089 28.2322 55.2191 28.2347C55.3543 28.2926 55.4853 28.3597 55.611 28.4355C56.0557 28.6984 56.4252 29.0676 56.6851 29.5085C57.0904 30.232 57.2923 31.0483 57.2701 31.8736C57.2853 32.5369 57.1573 33.1958 56.8945 33.8072M71.5043 35.8567C71.5062 35.9347 71.4765 36.0103 71.4216 36.0669C71.3668 36.1234 71.2913 36.1564 71.2118 36.1585H69.0707C68.9808 36.1527 68.8934 36.1265 68.8155 36.0821C68.7376 36.0377 68.6711 35.9763 68.6214 35.9026L63.4056 27.3075C63.3201 27.1664 63.2499 27.1847 63.2499 27.3523V35.9141C63.2405 36.1036 63.1682 36.2849 63.044 36.4304L60.8702 38.6682C60.7309 38.8075 60.5798 38.935 60.4185 39.0491C60.1867 39.204 59.9178 39.297 59.6382 39.3188C59.4458 39.3185 59.2556 39.2797 59.0792 39.2047C58.9027 39.1297 58.7438 39.0202 58.6121 38.8827C58.3368 38.5974 58.1846 38.2187 58.1873 37.8259C58.2073 37.5413 58.2972 37.2657 58.4494 37.0226C58.5601 36.8584 58.6833 36.7026 58.818 36.5567L60.2699 35.0649C60.3944 34.9199 60.4672 34.7389 60.477 34.5496V21.8406C60.4755 21.7626 60.5052 21.687 60.56 21.6303C60.6147 21.5737 60.69 21.5404 60.7695 21.5377H63.0698C63.1594 21.5438 63.2463 21.5704 63.3235 21.6155C63.4007 21.6605 63.4661 21.7227 63.5144 21.797L68.5769 30.4208C68.6612 30.5642 68.7302 30.5436 68.7302 30.3772V21.8406C68.7293 21.8014 68.7363 21.7625 68.7508 21.726C68.7654 21.6895 68.7871 21.6562 68.8149 21.628C68.8426 21.5998 68.8758 21.5773 68.9125 21.5618C68.9492 21.5463 68.9886 21.5381 69.0286 21.5377H71.2165C71.2961 21.5401 71.3716 21.5733 71.4264 21.63C71.4812 21.6868 71.5109 21.7625 71.509 21.8406L71.5043 35.8567Z" fill="white"/>
<path d="M27.164 54.0181C27.0127 53.8019 26.7872 53.6463 26.5287 53.5797L26.4246 53.5499L26.524 53.5028C26.7124 53.4204 26.8742 53.289 26.992 53.123C27.103 52.9557 27.1585 52.7589 27.1511 52.5595C27.1577 52.3729 27.1209 52.1873 27.0435 52.0167C26.9756 51.8782 26.872 51.7595 26.7428 51.6725C26.5994 51.5761 26.4386 51.5076 26.269 51.4705C26.0637 51.4303 25.8547 51.4107 25.6453 51.412H23.3966V56.0871H25.7074C25.9182 56.0872 26.1281 56.061 26.3321 56.009C26.5243 55.9607 26.7062 55.8791 26.8692 55.7681C27.0251 55.6609 27.1524 55.5184 27.2401 55.3526C27.3366 55.17 27.3841 54.9662 27.3781 54.7605C27.3855 54.4987 27.3112 54.2408 27.1652 54.0215M24.3829 52.1407H25.4219C25.5168 52.1411 25.6115 52.1492 25.705 52.1648C25.792 52.1784 25.8759 52.2068 25.9531 52.2485C26.0267 52.2912 26.0879 52.3516 26.1309 52.4241C26.1778 52.5109 26.2008 52.6082 26.1976 52.7064C26.2046 52.7915 26.1898 52.877 26.1547 52.9552C26.1196 53.0333 26.0651 53.1016 25.9963 53.154C25.8507 53.2486 25.6784 53.296 25.5038 53.2894H24.3829V52.1407ZM26.3216 55.0187C26.2773 55.0993 26.2129 55.1676 26.1344 55.2172C26.0527 55.2663 25.9628 55.3008 25.8688 55.3194C25.7675 55.3391 25.6644 55.3487 25.5611 55.3481H24.3829V54.0077H25.5857C25.7931 53.9976 25.9983 54.0536 26.1707 54.1672C26.2503 54.2319 26.3127 54.3145 26.3524 54.4081C26.3922 54.5017 26.4081 54.6033 26.3988 54.7043C26.4033 54.8131 26.3796 54.9213 26.3298 55.0187" fill="white"/>
<path d="M28.8928 56.0818H31.8553V55.2786H29.8768V51.4022H28.8928V56.0818Z" fill="white"/>
<path d="M32.8284 51.408V54.3297C32.807 54.5877 32.843 54.8473 32.9339 55.0904C33.0248 55.3335 33.1684 55.5543 33.3549 55.7377C33.7943 56.0357 34.3159 56.1954 34.8501 56.1954C35.3844 56.1954 35.906 56.0357 36.3454 55.7377C36.534 55.5565 36.6797 55.3369 36.7723 55.0944C36.8649 54.8519 36.9021 54.5924 36.8812 54.3342V51.416H35.8973V54.3297C35.9194 54.6152 35.8391 54.8993 35.6703 55.1329C35.561 55.2318 35.4313 55.3065 35.29 55.352C35.1487 55.3976 34.9991 55.4129 34.8513 55.3969C34.6676 55.4039 34.4845 55.3722 34.3143 55.3039C34.1897 55.2487 34.0808 55.1644 33.9972 55.0583C33.9201 54.9568 33.8684 54.8388 33.8463 54.7141C33.8236 54.5864 33.8123 54.457 33.8123 54.3274V51.4092L32.8284 51.408Z" fill="white"/>
<path d="M38.5043 56.0825H42.102V55.2792H39.4871V54.033H41.8376V53.302H39.4871V52.2015H42.0482V51.3983H38.5043V56.0825Z" fill="white"/>
<path d="M49.8375 56.0823H50.839V51.4072H49.9241V54.5985H49.8597L49.8351 54.579L47.8228 51.4061H46.8282V56.0811H47.7444V52.8967H47.8075L47.8344 52.9162L49.8375 56.0823Z" fill="white"/>
<path d="M56.7019 52.7906C56.602 52.5026 56.4458 52.2364 56.2421 52.0069C56.0395 51.7828 55.7895 51.6046 55.5097 51.4847C54.8775 51.2314 54.1693 51.2314 53.5371 51.4847C53.2558 51.6038 53.0045 51.7821 52.8011 52.0069C52.5973 52.2365 52.4408 52.5026 52.3402 52.7906C52.2309 53.1042 52.1768 53.4336 52.1799 53.7649C52.177 54.0902 52.2312 54.4135 52.3402 54.7208C52.4406 55.0045 52.5968 55.2661 52.8 55.4908C53.0056 55.7109 53.2564 55.8857 53.5359 56.0037C53.8483 56.1309 54.184 56.1942 54.5222 56.1897C54.8613 56.1955 55.198 56.1322 55.5109 56.0037C55.7895 55.8853 56.0394 55.7105 56.2445 55.4908C56.4476 55.2661 56.6038 55.0045 56.7043 54.7208C56.8126 54.4134 56.8664 54.0901 56.8634 53.7649C56.8668 53.4336 56.8114 53.1041 56.7019 52.7906ZM55.8092 54.357C55.7632 54.5436 55.6839 54.7207 55.5752 54.8803C55.4672 55.0371 55.3223 55.1662 55.1528 55.2567C54.9558 55.35 54.7398 55.3985 54.521 55.3985C54.3022 55.3985 54.0863 55.35 53.8892 55.2567C53.7203 55.1659 53.5759 55.0368 53.468 54.8803C53.3582 54.7213 53.2789 54.544 53.234 54.357C53.1848 54.1634 53.1604 53.9645 53.1615 53.7649C53.1606 53.5578 53.1849 53.3513 53.234 53.1498C53.2782 52.9591 53.3575 52.7778 53.468 52.6151C53.575 52.4566 53.7195 52.3259 53.8892 52.2341C54.0863 52.1409 54.3023 52.0926 54.521 52.0926C54.7398 52.0926 54.9558 52.1409 55.1528 52.2341C55.3231 52.3256 55.468 52.4563 55.5752 52.6151C55.6848 52.7783 55.7641 52.9594 55.8092 53.1498C55.8568 53.3515 55.8807 53.5579 55.8806 53.7649C55.8807 53.9643 55.8567 54.1631 55.8092 54.357Z" fill="white"/>
<path d="M59.0529 56.0818H60.0368V52.2054H61.49V51.4022H57.5997V52.2054H59.0529V56.0818Z" fill="white"/>
<path d="M62.7736 56.0825H66.3725V55.2792H63.7575V54.033H66.1081V53.302H63.7575V52.2015H66.3175V51.3983H62.7747L62.7736 56.0825Z" fill="white"/>
<path d="M76.7468 51.408H75.7102L73.9084 56.0831H74.8924L75.2726 55.0251H77.1446L77.512 56.0831H78.5299L76.7468 51.408ZM75.5218 54.3297L76.1829 52.5028H76.2554L76.8942 54.3297H75.5218Z" fill="white"/>
<path d="M83.3333 52.3404C83.2746 52.1647 83.178 52.0035 83.0501 51.8677C82.9083 51.722 82.7358 51.6084 82.5447 51.5349C82.3023 51.4451 82.0444 51.4022 81.7853 51.4086H79.6407V56.0837H80.6247V54.3796H81.7853C82.0445 54.3861 82.3025 54.3428 82.5447 54.2522C82.7358 54.1785 82.9082 54.065 83.0501 53.9195C83.1781 53.7833 83.2747 53.6216 83.3333 53.4455C83.3917 53.2675 83.4217 53.0817 83.4222 52.8947C83.4227 52.7069 83.3927 52.519 83.3333 52.3404ZM82.3903 53.2791C82.3386 53.3739 82.2618 53.4532 82.168 53.5086C82.0721 53.5667 81.9656 53.6057 81.8544 53.6234C81.7356 53.6419 81.6155 53.6512 81.4952 53.6509H80.6259V52.1431H81.494C81.6143 52.143 81.7344 52.1522 81.8532 52.1706C81.9639 52.187 82.0703 52.224 82.1668 52.2796C82.2604 52.3354 82.3371 52.4146 82.3891 52.5091C82.4494 52.6288 82.4783 52.7613 82.4733 52.8947C82.4781 53.0277 82.4492 53.1598 82.3891 53.2791" fill="white"/>
<path d="M86.5975 51.408H85.5609L83.7579 56.0831H84.7419L85.1222 55.0251H86.9941L87.3604 56.0831H88.3783L86.5975 51.408ZM85.3725 54.3262L86.0336 52.4993H86.1049L86.7449 54.3262H85.3725Z" fill="white"/>
<path d="M92.5976 56.0823H93.598V51.4072H92.6831V54.5985H92.6187L92.593 54.579L90.5806 51.4061H89.5861V56.0811H90.501V52.8967H90.5665L90.5911 52.9162L92.5976 56.0823Z" fill="white"/>
<path d="M69.643 54.2772V54.758C69.6387 54.9828 69.6863 55.2056 69.7822 55.4098C69.8643 55.5789 69.9843 55.7276 70.1332 55.8448C70.3005 55.9681 70.4886 56.0618 70.6889 56.1213C70.8843 56.1776 71.0867 56.2074 71.2903 56.2097C71.6055 56.2142 71.918 56.152 72.2064 56.0272C72.4005 55.9358 72.5694 55.8 72.699 55.6313C72.8107 55.4824 72.8838 55.3091 72.9119 55.1264C72.9412 54.9588 72.9568 54.7892 72.9587 54.6192V51.4061H71.9748V54.571C71.9748 54.657 71.9748 54.7454 71.9643 54.8361C71.9587 54.9283 71.9365 55.0188 71.8987 55.1034C71.8534 55.1897 71.7845 55.262 71.6998 55.3123C71.5725 55.3862 71.4266 55.4236 71.2786 55.4202C71.1384 55.4217 70.9999 55.3898 70.875 55.3272C70.7866 55.2837 70.7109 55.219 70.655 55.139C70.6032 55.0625 70.5685 54.9761 70.5532 54.8854C70.5334 54.7621 70.524 54.6373 70.5251 54.5125V54.2772H69.643Z" fill="white"/>
</g>
</g>
<defs>
<clipPath id="clip0_197_5270">
<rect width="117" height="70" fill="white"/>
</clipPath>
</defs>
</svg>
