<svg width="117" height="70" viewBox="0 0 117 70" fill="none" xmlns="http://www.w3.org/2000/svg">
<g clip-path="url(#clip0_197_5518)">
<path d="M47.6827 15.7246H54.8735V41.799H47.6827V15.7246ZM62.0737 15.7246H69.2645V41.799H62.0702L62.0737 15.7246ZM36.8906 13.791V15.7246H40.4825V41.799H36.8906V43.7326H80.0566V41.799H76.46V15.7246H80.0578V13.791H36.8906Z" fill="white"/>
<path d="M32.299 50.8301L30.9243 54.5584H30.902L29.5097 50.8301H28.0215V56.0801H28.9271V51.8617H28.9423L30.544 56.0801H31.2097L32.8349 51.8617H32.8501V56.0801H33.7954V50.8301H32.299Z" fill="white"/>
<mask id="mask0_197_5518" style="mask-type:luminance" maskUnits="userSpaceOnUse" x="28" y="13" width="61" height="44">
<path d="M88.9282 13.791H28.0215V56.211H88.9282V13.791Z" fill="white"/>
</mask>
<g mask="url(#mask0_197_5518)">
<path d="M35.4199 51.3112C35.4196 51.2413 35.4339 51.172 35.4618 51.1077C35.4898 51.0434 35.5309 50.9853 35.5826 50.9371C35.6364 50.8843 35.7008 50.8429 35.7716 50.8155C35.8425 50.7881 35.9183 50.7752 35.9944 50.7776C36.1488 50.7729 36.2989 50.8272 36.4133 50.9291C36.4667 50.9779 36.5094 51.0369 36.5385 51.1026C36.5677 51.1682 36.5828 51.2391 36.5828 51.3107C36.5828 51.3823 36.5677 51.4531 36.5385 51.5188C36.5094 51.5844 36.4667 51.6435 36.4133 51.6922C36.2989 51.7941 36.1488 51.8484 35.9944 51.8437C35.9183 51.8461 35.8425 51.8332 35.7716 51.8058C35.7008 51.7784 35.6364 51.737 35.5826 51.6842C35.531 51.6361 35.49 51.5783 35.4621 51.5141C35.4341 51.45 35.4198 51.381 35.4199 51.3112ZM35.5475 52.5196H36.4554V56.077H35.5475V52.5196Z" fill="white"/>
<path d="M38.2008 52.5182H39.0619V53.092H39.0771C39.1697 52.9002 39.3147 52.7373 39.496 52.6215C39.7028 52.4841 39.9482 52.4131 40.198 52.4184C40.4077 52.4132 40.6158 52.4552 40.8064 52.5412C40.9682 52.6166 41.1105 52.7268 41.2229 52.8636C41.3317 52.9996 41.4113 53.1557 41.4569 53.3227C41.5068 53.4963 41.532 53.6759 41.5318 53.8563V56.0802H40.6239V54.1087C40.6236 53.9997 40.6162 53.8909 40.6016 53.7828C40.5884 53.6754 40.5555 53.5712 40.5045 53.4753C40.4551 53.3837 40.3841 53.305 40.2974 53.2457C40.1921 53.1825 40.0698 53.1517 39.9464 53.1574C39.8148 53.1537 39.6843 53.1829 39.5673 53.2423C39.466 53.2966 39.3772 53.3708 39.3064 53.4604C39.2359 53.5525 39.1835 53.6568 39.152 53.7679C39.1167 53.8821 39.0989 54.0009 39.0993 54.1202V56.0779H38.1973V52.5205L38.2008 52.5182Z" fill="white"/>
<path d="M43.0543 52.5183H43.9154V53.092H43.9306C44.0232 52.9002 44.1682 52.7374 44.3495 52.6215C44.5563 52.4841 44.8017 52.4131 45.0515 52.4184C45.2612 52.4131 45.4693 52.4551 45.6599 52.5412C45.8214 52.617 45.9637 52.7272 46.0764 52.8637C46.1852 52.9996 46.2648 53.1557 46.3104 53.3227C46.361 53.4962 46.3862 53.6758 46.3853 53.8563V56.0802H45.4773V54.1087C45.4771 53.9997 45.4697 53.8909 45.4551 53.7828C45.4419 53.6754 45.409 53.5712 45.358 53.4753C45.3086 53.3837 45.2376 53.305 45.1509 53.2458C45.0456 53.1825 44.9233 53.1517 44.7999 53.1574C44.6683 53.1537 44.5378 53.1829 44.4208 53.2423C44.3195 53.2966 44.2306 53.3708 44.1599 53.4604C44.0894 53.5526 44.037 53.6569 44.0055 53.7679C43.9709 53.8823 43.9532 54.0009 43.9528 54.1202V56.0779H43.0449V52.5205L43.0543 52.5183Z" fill="white"/>
<path d="M50.1989 55.6254H50.1766C50.0729 55.7949 49.9202 55.9302 49.7379 56.0144C49.5243 56.1184 49.2883 56.1704 49.0499 56.1659C48.8961 56.1646 48.743 56.1457 48.5936 56.1097C48.4372 56.0739 48.2886 56.0109 48.1549 55.9237C48.0194 55.8347 47.9059 55.7171 47.8226 55.5795C47.7295 55.4206 47.6837 55.2393 47.6904 55.0562C47.6795 54.8216 47.7636 54.5923 47.9244 54.4182C48.09 54.2529 48.2934 54.1286 48.5176 54.0556C48.7778 53.9676 49.0482 53.9117 49.3225 53.8892C49.6174 53.8628 49.9075 53.8479 50.1883 53.8479V53.7595C50.1947 53.6635 50.1756 53.5675 50.1327 53.481C50.0898 53.3945 50.0247 53.3204 49.9438 53.2661C49.7693 53.1569 49.5656 53.1014 49.3588 53.1065C49.1688 53.105 48.9807 53.1441 48.8077 53.2213C48.6452 53.2916 48.4967 53.3895 48.369 53.5105L47.901 52.97C48.107 52.7826 48.3498 52.6385 48.6147 52.5465C48.8773 52.4535 49.1544 52.4058 49.4337 52.4054C49.7062 52.3964 49.9777 52.4421 50.2316 52.5396C50.4222 52.6147 50.5921 52.7326 50.7277 52.8839C50.8477 53.0242 50.9344 53.1888 50.9816 53.3659C51.0293 53.5399 51.0537 53.7193 51.0541 53.8995V56.0649H50.2082V55.6128L50.1989 55.6254ZM50.1836 54.4537H49.9789C49.8326 54.4537 49.6782 54.4595 49.5179 54.4733C49.3667 54.484 49.2172 54.5113 49.0722 54.5547C48.9479 54.5907 48.8324 54.6512 48.7328 54.7326C48.6874 54.7718 48.6515 54.8205 48.6278 54.8751C48.6041 54.9297 48.5932 54.9889 48.5959 55.0482C48.5934 55.1226 48.6134 55.196 48.6533 55.2593C48.6904 55.3159 48.741 55.3628 48.8007 55.3959C48.8645 55.4311 48.9336 55.4559 49.0055 55.4693C49.0802 55.4838 49.1562 55.4911 49.2324 55.4911C49.3597 55.5061 49.4888 55.4927 49.6102 55.4521C49.7315 55.4115 49.842 55.3447 49.9335 55.2565C50.0249 55.1684 50.095 55.0612 50.1385 54.9429C50.182 54.8246 50.1978 54.6982 50.1848 54.5731L50.1836 54.4537Z" fill="white"/>
<path d="M54.9762 52.5182H55.8373V53.092H55.8525C55.9451 52.9002 56.0901 52.7373 56.2714 52.6215C56.4782 52.4841 56.7235 52.4131 56.9734 52.4184C57.1831 52.4132 57.3912 52.4552 57.5817 52.5412C57.7435 52.6166 57.8859 52.7268 57.9983 52.8636C58.1071 52.9996 58.1867 53.1557 58.2323 53.3227C58.2822 53.4963 58.3074 53.6759 58.3072 53.8563V56.0802H57.3992V54.1087C57.399 53.9997 57.3915 53.8909 57.377 53.7828C57.3638 53.6754 57.3309 53.5712 57.2799 53.4753C57.2305 53.3837 57.1595 53.305 57.0728 53.2457C56.9675 53.1825 56.8452 53.1517 56.7218 53.1574C56.5901 53.1537 56.4597 53.1829 56.3427 53.2423C56.2414 53.2966 56.1525 53.3708 56.0818 53.4604C56.0113 53.5525 55.9589 53.6568 55.9274 53.7679C55.892 53.8821 55.8743 54.0009 55.8747 54.1202V56.0779H54.9668V52.5205L54.9762 52.5182Z" fill="white"/>
<path d="M59.4631 54.2846C59.4591 54.0209 59.5117 53.7593 59.6175 53.5169C59.7156 53.293 59.8597 53.0914 60.0409 52.9248C60.2221 52.7581 60.4365 52.63 60.6706 52.5484C60.9173 52.4586 61.1784 52.4131 61.4416 52.4141C61.7048 52.4123 61.9661 52.4578 62.2126 52.5484C62.4467 52.63 62.6611 52.7581 62.8423 52.9248C63.0235 53.0914 63.1676 53.293 63.2656 53.5169C63.472 54.0099 63.472 54.5628 63.2656 55.0558C63.168 55.2801 63.0256 55.483 62.8467 55.6525C62.665 55.8209 62.4516 55.953 62.2185 56.0415C61.7225 56.2302 61.1724 56.2302 60.6764 56.0415C60.4434 55.9527 60.2301 55.8206 60.0481 55.6525C59.8688 55.4834 59.7263 55.2804 59.6292 55.0558C59.5236 54.812 59.4711 54.5494 59.4748 54.2846M60.3979 54.2846C60.398 54.4255 60.4197 54.5655 60.4623 54.7C60.5023 54.8345 60.5673 54.9606 60.6542 55.0718C60.7418 55.1821 60.8522 55.2728 60.9783 55.3381C61.1246 55.4057 61.2844 55.4408 61.4463 55.4408C61.6081 55.4408 61.7679 55.4057 61.9143 55.3381C62.0403 55.2728 62.1508 55.1821 62.2384 55.0718C62.3252 54.9606 62.3902 54.8345 62.4302 54.7C62.4729 54.5655 62.4945 54.4255 62.4946 54.2846C62.4947 54.1452 62.473 54.0067 62.4302 53.8738C62.3889 53.7412 62.324 53.6169 62.2384 53.5066C62.1511 53.3966 62.0405 53.3065 61.9143 53.2427C61.7674 53.1769 61.6078 53.1428 61.4463 53.1428C61.2848 53.1428 61.1252 53.1769 60.9783 53.2427C60.8517 53.3061 60.741 53.3962 60.6542 53.5066C60.568 53.6165 60.503 53.741 60.4623 53.8738C60.4195 54.0067 60.3978 54.1452 60.3979 54.2846Z" fill="white"/>
<path d="M71.8134 55.8015C71.5275 55.9344 71.2272 56.0353 70.9183 56.1022C70.5495 56.1786 70.1732 56.2148 69.7963 56.2101C69.3911 56.2143 68.9886 56.1455 68.6087 56.007C68.2645 55.8791 67.9504 55.6839 67.6856 55.4332C67.4262 55.1848 67.2215 54.8868 67.0842 54.5576C66.795 53.8303 66.7976 53.0225 67.0913 52.297C67.2316 51.9703 67.44 51.6759 67.7031 51.4328C67.9689 51.1917 68.2812 51.0052 68.6216 50.8843C68.9902 50.7533 69.3797 50.688 69.7717 50.6915C70.1692 50.6887 70.5645 50.7499 70.9417 50.8729C71.2582 50.972 71.5503 51.1346 71.7993 51.3502L71.1418 52.0468C70.9812 51.8821 70.7865 51.7529 70.5708 51.6681C70.3186 51.563 70.047 51.5099 69.7729 51.512C69.5092 51.5083 69.2477 51.5592 69.0054 51.6612C68.7829 51.7549 68.5835 51.8942 68.4204 52.0697C68.257 52.2466 68.1299 52.4527 68.046 52.6768C67.9559 52.919 67.9111 53.1752 67.9137 53.433C67.9113 53.6972 67.9561 53.9597 68.046 54.2088C68.129 54.4356 68.258 54.6437 68.425 54.8204C68.5919 54.9956 68.7955 55.1334 69.0218 55.2243C69.2753 55.324 69.5466 55.3731 69.8197 55.3689C70.184 55.3769 70.5463 55.3137 70.8855 55.183V53.8507H69.76V53.0796H71.8087V55.8004L71.8134 55.8015Z" fill="white"/>
<path d="M73.3792 51.3101C73.3791 51.2403 73.3937 51.1712 73.4219 51.1071C73.45 51.0429 73.4912 50.9851 73.543 50.9372C73.5968 50.8844 73.6612 50.843 73.732 50.8155C73.8029 50.7881 73.8787 50.7752 73.9548 50.7776C74.1092 50.7729 74.2593 50.8273 74.3737 50.9291C74.4271 50.9779 74.4698 51.0369 74.499 51.1026C74.5281 51.1682 74.5432 51.2391 74.5432 51.3107C74.5432 51.3823 74.5281 51.4531 74.499 51.5188C74.4698 51.5844 74.4271 51.6435 74.3737 51.6922C74.2593 51.7941 74.1092 51.8484 73.9548 51.8437C73.8787 51.8461 73.8029 51.8332 73.732 51.8058C73.6612 51.7784 73.5968 51.737 73.543 51.6842C73.4911 51.6361 73.4498 51.5781 73.4216 51.5138C73.3934 51.4494 73.379 51.3801 73.3792 51.3101ZM73.5067 52.5185H74.4146V56.0758H73.5067V52.5185Z" fill="white"/>
<path d="M76.0853 52.5183H76.9465V53.092H76.9617C77.0542 52.9002 77.1992 52.7374 77.3805 52.6215C77.5874 52.4841 77.8327 52.4131 78.0825 52.4184C78.2922 52.4131 78.5004 52.4551 78.6909 52.5412C78.8525 52.617 78.9948 52.7272 79.1075 52.8637C79.2163 52.9996 79.2959 53.1557 79.3414 53.3227C79.3921 53.4962 79.4173 53.6758 79.4164 53.8563V56.0802H78.5084V54.1087C78.5082 53.9997 78.5007 53.8909 78.4862 53.7828C78.473 53.6754 78.4401 53.5712 78.3891 53.4753C78.3397 53.3837 78.2687 53.305 78.182 53.2458C78.0766 53.1825 77.9544 53.1517 77.831 53.1574C77.6993 53.1537 77.5689 53.1829 77.4519 53.2423C77.3505 53.2966 77.2617 53.3708 77.191 53.4604C77.1205 53.5526 77.0681 53.6569 77.0365 53.7679C77.0019 53.8823 76.9842 54.0009 76.9839 54.1202V56.0779H76.076V52.5205L76.0853 52.5183Z" fill="white"/>
<path d="M80.9162 50.4727H81.8241V54.0151H81.8464L83.2223 52.5233H84.3923L82.821 54.1299L84.4917 56.0807H83.2902L81.8534 54.2573H81.8288V56.0807H80.9209V50.4727H80.9162Z" fill="white"/>
<path d="M84.9804 54.2844C84.9764 54.0207 85.0291 53.7592 85.1349 53.5167C85.2329 53.2928 85.3771 53.0913 85.5583 52.9246C85.7395 52.7579 85.9538 52.6298 86.1879 52.5482C86.6857 52.3693 87.2321 52.3693 87.7299 52.5482C87.963 52.6314 88.1764 52.7602 88.3571 52.9269C88.5354 53.0941 88.6779 53.2947 88.7759 53.5167C88.9824 54.0097 88.9824 54.5626 88.7759 55.0556C88.6783 55.2799 88.5359 55.4828 88.3571 55.6523C88.1756 55.8204 87.9626 55.9525 87.7299 56.0413C87.2339 56.2301 86.6839 56.2301 86.1879 56.0413C85.9549 55.9525 85.7416 55.8204 85.5596 55.6523C85.3808 55.4828 85.2384 55.2799 85.1408 55.0556C85.0352 54.8119 84.9825 54.5492 84.9863 54.2844M85.9094 54.2844C85.9095 54.4253 85.9312 54.5653 85.9738 54.6998C86.0138 54.8343 86.0788 54.9604 86.1656 55.0717C86.2532 55.1819 86.3637 55.2726 86.4897 55.3379C86.6361 55.4056 86.7959 55.4407 86.9577 55.4407C87.1196 55.4407 87.2794 55.4056 87.4258 55.3379C87.5518 55.2726 87.6622 55.1819 87.7498 55.0717C87.8367 54.9604 87.9017 54.8343 87.9417 54.6998C87.9836 54.5652 88.0053 54.4252 88.0061 54.2844C88.0062 54.1451 87.9845 54.0065 87.9417 53.8736C87.9004 53.741 87.8355 53.6167 87.7498 53.5064C87.6626 53.3964 87.552 53.3064 87.4258 53.2425C87.2789 53.1767 87.1192 53.1426 86.9577 53.1426C86.7962 53.1426 86.6366 53.1767 86.4897 53.2425C86.3632 53.3059 86.2525 53.396 86.1656 53.5064C86.0796 53.6164 86.0146 53.7408 85.9738 53.8736C85.931 54.0065 85.9093 54.1451 85.9094 54.2844Z" fill="white"/>
</g>
</g>
<defs>
<clipPath id="clip0_197_5518">
<rect width="117" height="70" fill="white"/>
</clipPath>
</defs>
</svg>
