<svg width="117" height="70" viewBox="0 0 117 70" fill="none" xmlns="http://www.w3.org/2000/svg">
<g clip-path="url(#clip0_197_5294)">
<mask id="mask0_197_5294" style="mask-type:luminance" maskUnits="userSpaceOnUse" x="17" y="13" width="83" height="44">
<path d="M99.3569 13.0312H17.6055V56.9718H99.3569V13.0312Z" fill="white"/>
</mask>
<g mask="url(#mask0_197_5294)">
<path d="M17.6055 56.7267H19.4378V53.1589C19.3699 52.5147 19.4849 51.8646 19.77 51.2804C19.9112 51.0811 20.0984 50.9173 20.3164 50.8025C20.5343 50.6876 20.7769 50.6249 21.0243 50.6194C22.5675 50.6194 22.5675 52.4039 22.5675 53.0293V56.7324H24.3986V52.6724C24.474 51.733 24.2269 50.7958 23.6966 50.0101C23.409 49.6879 23.0557 49.4286 22.6594 49.2489C22.2632 49.0692 21.8328 48.9732 21.3963 48.967C21.002 48.9679 20.6122 49.049 20.2515 49.2053C19.8908 49.3615 19.5671 49.5894 19.3009 49.8747V49.224H17.6055V56.7267Z" fill="white"/>
<path fill-rule="evenodd" clip-rule="evenodd" d="M26.7363 52.3387C26.8341 51.8454 27.1032 51.4007 27.4979 51.0803C27.8927 50.7599 28.3885 50.5837 28.9008 50.5818C29.4054 50.5737 29.8952 50.7484 30.2765 51.0726C30.6578 51.3968 30.9037 51.8477 30.967 52.3387H26.7363ZM32.7314 53.7846C32.8006 53.4878 32.8375 53.1847 32.8414 52.8803C32.843 51.8444 32.429 50.8495 31.6888 50.1106C30.9486 49.3717 29.9416 48.9482 28.8856 48.9316C28.3488 48.939 27.8187 49.0501 27.3257 49.2587C26.8327 49.4673 26.3866 49.7693 26.0128 50.1473C25.639 50.5253 25.345 50.9719 25.1475 51.4616C24.95 51.9512 24.853 52.4743 24.862 53.0008C24.8578 53.5227 24.9592 54.0401 25.1605 54.5232C25.3618 55.0063 25.6588 55.4454 26.0344 55.8151C26.41 56.1847 26.8566 56.4776 27.3485 56.6767C27.8403 56.8757 28.3676 56.977 28.8996 56.9748C29.7143 56.9645 30.506 56.7086 31.1672 56.2417C31.8285 55.7749 32.3272 55.1197 32.5957 54.3652H30.6628C30.4922 54.6728 30.2357 54.9263 29.9234 55.0961C29.6111 55.2658 29.256 55.3446 28.8996 55.3234C28.4258 55.3249 27.9643 55.1754 27.5845 54.8975C27.2047 54.6196 26.9272 54.2282 26.7936 53.7823L32.7314 53.7846Z" fill="white"/>
<path d="M35.1919 56.7292H36.3198L37.7683 51.8648H37.7952L39.2296 56.7292H40.3598L43.1561 49.2277H41.1987L39.7947 53.8098H39.7678L38.5229 49.2266H37.0639L35.8097 53.8087H35.7828L34.3905 49.2266H32.4354L35.1919 56.7292Z" fill="white"/>
<path fill-rule="evenodd" clip-rule="evenodd" d="M48.4211 52.8774C48.4193 52.5827 48.4767 52.2905 48.59 52.0175C48.7033 51.7446 48.8703 51.4962 49.0816 51.2866C49.2928 51.077 49.544 50.9102 49.821 50.7959C50.0979 50.6815 50.3951 50.6218 50.6956 50.6202C51.3031 50.6582 51.8734 50.9208 52.2912 51.355C52.709 51.7892 52.9434 52.3627 52.9469 52.9598C52.9505 53.5568 52.723 54.133 52.3104 54.572C51.8978 55.011 51.3307 55.2801 50.7237 55.3251C50.4055 55.3228 50.0912 55.2564 49.8002 55.1302C49.5092 55.004 49.2477 54.8205 49.0319 54.5912C48.816 54.3619 48.6505 54.0916 48.5454 53.797C48.4404 53.5024 48.3981 53.1898 48.4211 52.8785M46.7012 56.7285H48.3767V55.8231C48.6811 56.2021 49.0737 56.504 49.5215 56.7036C49.9693 56.9033 50.4594 56.9948 50.9507 56.9707C51.9878 56.9012 52.9591 56.4469 53.6668 55.7C54.3745 54.9532 54.7655 53.9699 54.7603 52.9503C54.7551 51.9307 54.354 50.9514 53.6387 50.2115C52.9234 49.4717 51.9475 49.0269 50.9097 48.9677C50.021 48.9614 49.1651 49.2967 48.5253 49.9018V46.7266H46.7012V56.7285Z" fill="white"/>
<path fill-rule="evenodd" clip-rule="evenodd" d="M61.5805 52.9587C61.6019 53.2601 61.5601 53.5626 61.4577 53.8475C61.3553 54.1324 61.1944 54.3937 60.985 54.6153C60.7755 54.8368 60.522 55.0139 60.2401 55.1355C59.9582 55.2572 59.6538 55.3209 59.3458 55.3227C59.0406 55.3211 58.7388 55.2597 58.4582 55.142C58.1776 55.0243 57.9238 54.8527 57.7119 54.6373C57.4999 54.422 57.334 54.1672 57.224 53.8879C57.114 53.6087 57.0621 53.3107 57.0713 53.0115C57.0557 52.7069 57.1027 52.4023 57.2094 52.1158C57.3161 51.8293 57.4804 51.5668 57.6926 51.3437C57.9047 51.1207 58.1603 50.9417 58.4443 50.8174C58.7283 50.6931 59.0349 50.626 59.3458 50.6201C59.6523 50.6194 59.9557 50.6806 60.237 50.7998C60.5184 50.919 60.7718 51.0937 60.9814 51.3131C61.1909 51.5324 61.3523 51.7917 61.4554 52.0748C61.5584 52.3579 61.601 52.6588 61.5805 52.9587ZM63.3168 49.2258H61.6366V50.1748H61.6086C61.3048 49.8006 60.9193 49.498 60.4805 49.2893C60.0418 49.0806 59.5608 48.971 59.0732 48.9688C58.5534 48.9729 58.0399 49.0797 57.5632 49.2829C57.0865 49.4861 56.6564 49.7814 56.2988 50.1513C55.9411 50.5212 55.6631 50.958 55.4814 51.4356C55.2998 51.9133 55.2181 52.4219 55.2414 52.9312C55.1516 53.6919 55.3096 54.4611 55.693 55.1282C56.0764 55.7954 56.6653 56.3264 57.3754 56.6449C58.0854 56.9635 58.8801 57.0534 59.6454 56.9016C60.4107 56.7498 61.1074 56.3642 61.6355 55.8001V56.7296H63.3168V49.2258Z" fill="white"/>
<path d="M66.1213 46.7266H64.2891V56.7274H66.1213V46.7266Z" fill="white"/>
<path fill-rule="evenodd" clip-rule="evenodd" d="M73.0141 52.9587C73.0357 53.26 72.9941 53.5623 72.8919 53.8472C72.7896 54.132 72.6289 54.3932 72.4197 54.6148C72.2105 54.8363 71.9573 55.0134 71.6755 55.1352C71.3938 55.257 71.0896 55.3208 70.7817 55.3227C70.4765 55.3213 70.1746 55.26 69.8939 55.1423C69.6132 55.0247 69.3594 54.8531 69.1474 54.6377C68.9354 54.4223 68.7696 54.1674 68.6596 53.8881C68.5497 53.6088 68.4979 53.3108 68.5072 53.0115C68.4917 52.7069 68.5386 52.4023 68.6454 52.1158C68.7521 51.8293 68.9164 51.5668 69.1285 51.3437C69.3406 51.1207 69.5963 50.9417 69.8803 50.8174C70.1642 50.6931 70.4708 50.626 70.7817 50.6201C71.0881 50.6195 71.3913 50.6808 71.6724 50.8001C71.9536 50.9194 72.2068 51.0942 72.4161 51.3135C72.6255 51.5329 72.7866 51.7921 72.8895 52.0752C72.9924 52.3582 73.0348 52.659 73.0141 52.9587ZM74.7504 49.2258H73.0691V50.1748H73.041C72.7374 49.8007 72.3521 49.4982 71.9136 49.2894C71.475 49.0807 70.9942 48.9711 70.5068 48.9688C69.9868 48.9721 69.4728 49.0784 68.9958 49.2813C68.5187 49.4842 68.0883 49.7795 67.7305 50.1496C67.3726 50.5196 67.0947 50.9568 66.9133 51.4347C66.732 51.9127 66.6509 52.4217 66.675 52.9312C66.5852 53.6919 66.7432 54.4611 67.1266 55.1282C67.51 55.7954 68.0989 56.3264 68.809 56.6449C69.519 56.9635 70.3137 57.0534 71.079 56.9016C71.8443 56.7498 72.541 56.3642 73.0691 55.8001V56.7296H74.7492L74.7504 49.2258Z" fill="white"/>
<path d="M75.7227 56.7265H77.5549V53.1588C77.4871 52.5146 77.6016 51.8646 77.886 51.2802C78.0274 51.0811 78.2147 50.9175 78.4326 50.8027C78.6505 50.6878 78.893 50.625 79.1403 50.6193C80.6823 50.6193 80.6823 52.4037 80.6823 53.0291V56.7322H82.5157V52.6722C82.592 51.7327 82.3448 50.7953 81.8137 50.0099C81.5262 49.6877 81.1729 49.4283 80.7766 49.2486C80.3804 49.0689 79.95 48.9729 79.5135 48.9668C79.1194 48.9681 78.7299 49.0494 78.3695 49.2056C78.009 49.3618 77.6855 49.5896 77.4192 49.8745V49.2238H75.7227V56.7265Z" fill="white"/>
<path d="M89.0283 54.2811C88.8666 54.5873 88.6241 54.8453 88.3261 55.0284C88.0282 55.2114 87.6856 55.3128 87.3342 55.3219C87.0233 55.3233 86.7153 55.2627 86.429 55.1438C86.1428 55.0248 85.8841 54.85 85.6689 54.63C85.4536 54.41 85.2862 54.1493 85.1769 53.8638C85.0675 53.5784 85.0185 53.2741 85.0328 52.9695C85.0087 52.6691 85.0483 52.3671 85.1492 52.0825C85.2501 51.7979 85.41 51.5369 85.6189 51.316C85.8278 51.095 86.0811 50.919 86.3628 50.7989C86.6445 50.6788 86.9486 50.6172 87.2558 50.6182C87.6287 50.6095 87.996 50.7085 88.312 50.903C88.628 51.0974 88.8787 51.3787 89.033 51.7118H91.1016C90.8428 50.9118 90.33 50.2139 89.6381 49.7201C88.9462 49.2262 88.1115 48.9623 87.2558 48.9669C86.1738 48.9688 85.1368 49.3923 84.3732 50.1441C83.6095 50.896 83.1816 51.9145 83.1836 52.9758C83.1856 54.037 83.6174 55.0541 84.3839 55.8031C85.1505 56.5521 86.189 56.9718 87.271 56.9698C88.1189 56.9828 88.9488 56.7286 89.6385 56.2446C90.3282 55.7606 90.8414 55.0724 91.1027 54.2811H89.0283Z" fill="white"/>
<path fill-rule="evenodd" clip-rule="evenodd" d="M93.2539 52.3387C93.3516 51.8456 93.6206 51.401 94.0151 51.0806C94.4095 50.7603 94.905 50.584 95.4172 50.5818C95.9216 50.5737 96.4113 50.7485 96.7924 51.0727C97.1735 51.397 97.4192 51.8478 97.4822 52.3387H93.2539ZM99.2489 53.7846C99.3184 53.4879 99.3549 53.1847 99.3578 52.8803C99.36 51.8447 98.9465 50.8497 98.2067 50.1108C97.4668 49.3718 96.4601 48.9482 95.4043 48.9316C94.8674 48.939 94.3373 49.0501 93.8443 49.2587C93.3512 49.4673 92.905 49.7692 92.5311 50.1472C92.1573 50.5252 91.8631 50.9718 91.6655 51.4615C91.4679 51.9512 91.3707 52.4743 91.3795 53.0008C91.3755 53.5226 91.4771 54.04 91.6784 54.5231C91.8797 55.0061 92.1767 55.4451 92.5523 55.8147C92.9278 56.1844 93.3744 56.4772 93.8662 56.6763C94.358 56.8755 94.8852 56.9769 95.4172 56.9748C96.231 56.964 97.0217 56.708 97.6822 56.2417C98.3427 55.7753 98.8411 55.121 99.1097 54.3675H97.1804C97.0096 54.675 96.7531 54.9285 96.4409 55.0982C96.1286 55.2679 95.7735 55.3468 95.4172 55.3257C94.9431 55.3281 94.4811 55.179 94.1012 54.9009C93.7212 54.6229 93.4439 54.231 93.3112 53.7846H99.2489Z" fill="white"/>
<path fill-rule="evenodd" clip-rule="evenodd" d="M59.9269 23.2226L62.7758 18.3834L72.4026 17.7775L72.7384 17.1899L63.8288 16.5794L65.9114 13.0312H82.4237C87.5015 13.0312 91.2583 14.8122 89.7946 20.0485C89.3547 21.6355 87.2897 25.629 81.2373 27.3021C81.8442 27.3773 82.4294 27.5715 82.9582 27.8731C83.4871 28.1746 83.9487 28.5774 84.3157 29.0574C84.6826 29.5374 84.9474 30.0849 85.0943 30.6673C85.2412 31.2497 85.2672 31.8552 85.1708 32.4476C84.1915 38.8406 75.7523 41.885 71.0571 41.8862L51.5626 41.8954L50.6078 38.1968L60.8196 37.4899L61.1706 36.9047L50.0954 36.2426L48.9031 31.8578L64.6478 30.9558L64.9906 30.3752L36.6848 28.6229L38.0409 26.314L68.5159 24.3735L68.8669 23.7917L59.9269 23.2226ZM72.6799 24.1831L75.4937 24.1624C76.4226 24.2145 77.3468 24.0005 78.1538 23.5465C78.9609 23.0926 79.6159 22.4183 80.0392 21.6057C80.6991 20.0232 79.8122 18.6749 78.6352 18.6794H75.9103L72.6799 24.1831ZM69.446 29.6913L66.053 35.4554H69.2822C70.7786 35.4554 73.4603 34.7232 74.284 32.6335C74.4569 32.3434 74.5507 32.0145 74.5566 31.6784C74.5624 31.3424 74.4799 31.0105 74.3172 30.7147C74.1544 30.419 73.9168 30.1693 73.6272 29.9896C73.3376 29.81 73.0057 29.7064 72.6635 29.689L69.446 29.6913ZM44.8503 38.5916L42.8952 41.8885L28.8868 41.9034L30.2498 39.5945L44.8503 38.5916ZM45.8401 13.0312L57.1002 13.0393L57.9496 16.1698L44.4852 15.3424L45.8401 13.0312ZM58.5931 18.6427L59.8216 23.2214L40.5856 21.9821L41.9416 19.6721L58.5931 18.6427ZM48.7932 31.8635L46.3444 36.0119L32.7887 35.2637L34.1459 32.9537L48.7932 31.8635Z" fill="white"/>
</g>
</g>
<defs>
<clipPath id="clip0_197_5294">
<rect width="117" height="70" fill="white"/>
</clipPath>
</defs>
</svg>
