<svg width="117" height="70" viewBox="0 0 117 70" fill="none" xmlns="http://www.w3.org/2000/svg">
<path d="M100.97 36.8358C98.8637 38.2128 96.8747 38.9014 95.0027 38.9014C94.1837 38.9014 93.5987 38.6719 93.1307 38.3276C92.6627 37.8686 92.4287 37.4096 92.4287 36.721L92.5457 35.4587C94.6517 34.7702 96.2897 33.7374 97.5767 32.5899C98.7467 31.4423 99.3317 30.4096 99.3317 29.1473C99.3317 27.6555 98.2787 26.8522 96.2897 26.8522C93.3647 26.8522 91.1417 28.1145 89.5037 30.6391C88.2167 32.4751 87.6317 34.5407 87.6317 36.4915C87.6317 36.6063 87.6317 36.721 87.6317 36.9505C85.8767 38.0981 84.4727 38.6719 83.4197 38.6719C83.0687 38.6719 82.7177 38.5571 82.4837 38.3276C82.2497 38.0981 82.1327 37.7538 82.1327 37.5243C82.1327 37.2948 82.2497 36.9505 82.3667 36.3768L88.9187 18.1309L83.6537 19.2784L77.9207 35.2292C77.8037 35.6882 77.6867 36.0325 77.6867 36.262C77.6867 36.3768 77.5697 36.6063 77.5697 36.721C76.3997 37.4096 75.3467 37.8686 74.5277 38.2128C73.8257 38.4423 73.1237 38.6719 72.6557 38.6719C71.8367 38.6719 71.4857 38.3276 71.4857 37.6391C71.4857 37.2948 71.6027 36.8358 71.7197 36.4915L74.5277 28.6882H76.5167L76.8677 28.1145H74.6447L77.2187 21.2292L72.0707 22.262L69.9647 28.2292H68.3267L67.9757 28.803H69.8477L67.3907 35.6882C67.2737 36.1473 67.1567 36.3768 67.1567 36.4915C67.1567 36.6063 67.1567 36.721 67.1567 36.9505C65.9867 37.6391 64.9337 38.0981 64.1147 38.4423C63.4127 38.6718 62.7107 38.9014 62.2427 38.9014C61.4237 38.9014 61.0727 38.5571 61.0727 37.8686C61.0727 37.5243 61.1897 37.0653 61.3067 36.721L64.1147 28.9177H66.1037L66.4547 28.344H64.2317L66.6887 21.4587L61.5407 22.4915L59.4347 28.4587H57.7967L57.3287 28.803H59.2007L56.7437 35.6882C56.6267 36.1473 56.5097 36.3768 56.5097 36.4915C56.5097 36.6063 56.5097 36.721 56.5097 36.8358C54.4037 38.2128 52.4147 38.9014 50.5427 38.9014C49.7237 38.9014 49.1387 38.6719 48.6707 38.3276C48.2027 37.9833 47.9687 37.5243 47.9687 36.721C47.9687 36.1473 48.0857 35.4587 48.0857 35.4587C50.1917 34.7702 51.8297 33.7374 53.1167 32.5899C54.2867 31.4423 54.8717 30.4096 54.8717 29.1473C54.8717 27.6555 53.9357 26.8522 51.9467 26.8522C49.6067 26.8522 46.6817 28.1145 45.0437 30.6391C43.7567 32.4751 43.0547 34.5407 43.1717 36.4915C43.1717 37.2948 43.4057 37.7538 43.7567 38.2128C42.7037 38.7866 41.6507 39.0161 40.8317 38.6719C39.8957 38.3276 39.3107 37.7538 38.3747 36.262C37.3217 34.6555 32.6417 25.7046 32.6417 25.7046C32.6417 25.7046 38.8427 20.885 39.8957 20.0817C40.8317 19.3932 42.0017 18.7046 43.6397 18.7046H44.1077L44.3417 18.1309H36.9707L36.7367 18.7046H38.0237C38.6087 18.7046 38.9597 18.9341 38.9597 19.3932C38.9597 19.7374 38.7257 20.1964 37.9067 20.885C36.8537 21.6882 28.4297 28.1145 28.4297 28.1145C28.4297 28.1145 31.7057 34.5407 32.2907 35.4587C32.9927 36.8358 33.9287 38.0981 35.2157 38.7866C36.6197 39.4751 39.1937 40.0489 42.3527 39.2456C42.9377 39.2456 43.5227 39.0161 43.9907 38.6719C44.2247 38.9014 44.4587 39.0161 44.8097 39.1309C45.6287 39.3604 46.6817 39.5899 48.2027 39.5899C49.8407 39.5899 51.3617 39.3604 52.6487 39.1309C53.8187 38.7866 55.1057 38.2128 56.3927 37.4096C56.5097 37.9833 56.8607 38.5571 57.4457 38.9014C58.1477 39.2456 59.0837 39.4751 60.2537 39.4751C62.5937 39.4751 64.8167 38.7866 67.0397 37.2948C67.1567 37.8686 67.5077 38.4423 68.0927 38.7866C68.7947 39.1309 69.7307 39.3604 70.9007 39.3604C73.2407 39.3604 75.4637 38.6718 77.6867 37.2948C77.6867 37.8686 78.0377 38.4423 78.6227 38.9014C79.2077 39.2456 80.1437 39.4751 81.3137 39.4751C83.6537 39.4751 85.7597 38.7866 87.7487 37.4096C87.9827 38.0981 88.5677 38.6718 89.3867 39.0161C90.2057 39.2456 91.2587 39.4751 92.6627 39.4751C94.3007 39.4751 95.8217 39.2456 97.1087 39.0161C98.3957 38.6718 99.6827 37.9833 101.087 37.18L100.97 36.8358ZM94.3007 30.5243C95.2367 28.4587 96.0557 27.4259 96.8747 27.4259C97.3427 27.4259 97.5767 27.6555 97.5767 28.1145C97.5767 28.9177 96.9917 30.0653 95.7047 31.7866C94.6517 33.1637 93.5987 34.1964 92.7797 34.9997C93.2477 33.3932 93.7157 31.9014 94.3007 30.5243ZM49.7237 30.5243C50.6597 28.4587 51.4787 27.4259 52.2977 27.4259C52.7657 27.4259 52.9997 27.6555 52.9997 28.1145C52.9997 28.9177 52.2977 30.5243 51.1277 32.0161C50.0747 33.3932 49.1387 34.0817 48.2027 34.9997C48.5537 33.3932 49.1387 31.9014 49.7237 30.5243Z" fill="white"/>
<path d="M31.5891 18.82H34.0461L34.1631 18.2463H23.9841L23.7501 18.82H26.2071L19.0701 38.902H16.7301L16.4961 39.361H26.6751L26.9091 38.902H24.3351L31.5891 18.82Z" fill="white"/>
<path d="M39.3136 50.7214C39.3136 50.9509 39.3136 50.9509 39.5476 51.0657C39.6646 51.1804 39.7816 51.1804 39.7816 51.2952C39.7816 51.4099 39.7816 51.7542 38.6116 51.7542C38.3776 51.7542 37.5586 51.7542 37.5586 51.4099C37.5586 50.9509 38.0266 51.4099 38.0266 50.2624C38.0266 49.9181 37.9096 49.9181 37.6756 49.9181C36.8566 49.9181 36.9736 49.9181 36.9736 50.4919C36.9736 51.2952 37.3246 50.9509 37.3246 51.4099C37.3246 51.7542 36.5056 51.869 36.1546 51.869C35.9206 51.869 35.1016 51.869 35.1016 51.5247C35.1016 51.4099 35.2186 51.2952 35.3356 51.2952C35.5696 51.1804 35.5696 51.1804 35.5696 50.0329C35.5696 48.4263 35.5696 48.6558 35.3356 48.4263C35.2186 48.4263 35.1016 48.3116 35.1016 48.1968C35.1016 47.7378 36.0376 47.7378 36.3886 47.7378C36.6226 47.7378 37.3246 47.7378 37.3246 48.0821C37.3246 48.3116 37.2076 48.3116 37.0906 48.4263C36.9736 48.5411 36.8566 48.5411 36.8566 49.1148C36.8566 49.4591 36.9736 49.3444 37.3246 49.3444H37.6756C38.0266 49.3444 38.0266 49.3444 38.0266 49.1148C38.0266 48.5411 37.9096 48.4263 37.7926 48.4263C37.6756 48.3116 37.5586 48.3116 37.5586 48.0821C37.5586 47.9673 37.5586 47.623 38.7286 47.623C38.9626 47.623 39.7816 47.623 39.7816 47.9673C39.7816 48.0821 39.6646 48.1968 39.5476 48.3116C39.3136 48.4263 39.3136 48.4263 39.3136 49.2296V50.7214Z" fill="white"/>
<path d="M43.0576 50.0324C42.9406 50.0324 42.8236 50.0324 42.8236 49.9176C42.8236 49.8029 42.9406 49.5734 42.9406 49.5734C42.9406 49.4586 43.0576 49.1144 43.1746 49.1144C43.2916 49.1144 43.4086 49.3439 43.4086 49.4586C43.4086 49.5734 43.6426 49.9176 43.6426 49.9176C43.6426 50.0324 43.4086 50.0324 43.4086 50.0324H43.0576ZM41.8876 50.3767C41.7706 50.6062 41.6536 50.8357 41.5366 50.9504C41.4196 51.1799 41.0686 51.0652 41.0686 51.4094C41.0686 51.639 41.1856 51.7537 42.0046 51.7537C42.2386 51.7537 42.9406 51.7537 42.9406 51.4094C42.9406 51.0652 42.5896 51.2947 42.5896 51.0652C42.5896 50.7209 42.8236 50.7209 43.0576 50.7209C43.9936 50.7209 44.2276 50.7209 44.2276 51.0652C44.2276 51.2947 43.8766 51.1799 43.8766 51.4094C43.8766 51.7537 44.3446 51.7537 45.2806 51.7537C45.6316 51.7537 46.4506 51.7537 46.4506 51.4094C46.4506 51.0652 46.0996 51.2947 45.9826 50.8357C45.7486 50.3767 44.8126 48.6554 44.8126 48.4258C44.5786 47.9668 44.2276 47.5078 43.7596 47.5078C43.2916 47.5078 43.0576 47.7373 43.0576 48.1963C43.0576 48.6554 42.8236 49.1144 42.5896 49.5734L41.8876 50.3767Z" fill="white"/>
<path d="M50.3121 50.8362C50.1951 50.7215 49.8441 50.2625 49.7271 50.2625C49.6101 50.2625 49.4931 50.3772 49.4931 50.6067V50.7215C49.4931 51.0657 49.8441 51.0657 49.8441 51.2953C49.8441 51.5248 49.7271 51.6395 48.6741 51.6395C47.7381 51.6395 47.6211 51.5248 47.6211 51.2953C47.6211 50.951 47.9721 51.1805 47.9721 50.6067C47.9721 50.2625 48.0891 49.9182 48.0891 49.5739C48.0891 49.2297 48.0891 48.7707 47.9721 48.4264C47.8551 47.8526 47.6211 48.0821 47.6211 47.7379C47.6211 47.6231 47.6211 47.3936 48.9081 47.3936C49.1421 47.3936 49.8441 47.3936 49.8441 47.7379C49.8441 48.0821 49.4931 47.8526 49.4931 48.5412C49.4931 48.6559 49.4931 48.7707 49.6101 48.7707C49.7271 48.7707 50.1951 48.1969 50.1951 48.0821C50.1951 47.9674 50.0781 47.8526 50.0781 47.7379C50.0781 47.2789 50.8971 47.3936 51.1311 47.3936C51.3651 47.3936 52.0671 47.3936 52.0671 47.7379C52.0671 48.1969 51.4821 47.9674 51.2481 48.1969C51.1311 48.3116 50.6631 48.6559 50.6631 48.8854C50.6631 49.0002 50.7801 49.1149 50.8971 49.2297L52.1841 50.6067C52.4181 50.8362 52.7691 50.8362 52.7691 51.1805C52.7691 51.41 52.4181 51.5248 52.1841 51.5248H51.1311C50.8971 51.5248 50.8971 51.5248 50.6631 51.1805L50.3121 50.8362Z" fill="white"/>
<path d="M57.5653 48.6554C57.5653 47.9668 57.0973 48.1963 57.0973 47.8521C57.0973 47.5078 57.7993 47.5078 58.0333 47.5078C58.2673 47.5078 58.9693 47.5078 58.9693 47.8521C58.9693 48.1963 58.5013 47.9668 58.5013 48.5406V50.1472C58.5013 50.3767 58.5013 51.7537 56.3953 51.7537C54.0553 51.7537 54.2893 50.0324 54.2893 49.9176V48.5406C54.2893 48.1963 53.9383 48.1963 53.9383 47.8521C53.9383 47.7373 53.8213 47.5078 55.1083 47.5078C56.0443 47.5078 56.2783 47.6226 56.2783 47.8521C56.2783 48.3111 55.8103 47.8521 55.8103 48.6554V49.6881C55.8103 50.3767 56.0443 50.8357 56.7463 50.8357C57.6823 50.8357 57.6823 50.1472 57.6823 50.0324V48.6554H57.5653Z" fill="white"/>
<path d="M64.9384 50.7214C64.9384 50.9509 64.9384 50.9509 65.1724 51.0657C65.2894 51.1804 65.4064 51.1804 65.4064 51.2952C65.4064 51.4099 65.4064 51.7542 64.2364 51.7542C64.0024 51.7542 63.1834 51.7542 63.1834 51.4099C63.1834 50.9509 63.5344 51.4099 63.5344 50.2624C63.5344 49.9181 63.4174 49.9181 63.1834 49.9181C62.3644 49.9181 62.4814 49.9181 62.4814 50.4919C62.4814 51.2952 62.8324 50.9509 62.8324 51.4099C62.8324 51.7542 62.0134 51.869 61.6624 51.869C61.4284 51.869 60.6094 51.869 60.6094 51.5247C60.6094 51.4099 60.7264 51.2952 60.8434 51.2952C61.0774 51.1804 61.0774 51.1804 61.0774 50.0329C61.0774 48.4263 61.0774 48.6558 60.8434 48.4263C60.7264 48.4263 60.6094 48.3116 60.6094 48.1968C60.6094 47.7378 61.6624 47.7378 61.8964 47.7378C62.1304 47.7378 62.8324 47.7378 62.8324 48.0821C62.8324 48.3116 62.7154 48.3116 62.5984 48.4263C62.4814 48.5411 62.3644 48.5411 62.3644 49.1148C62.3644 49.4591 62.4814 49.3444 62.8324 49.3444H63.1834C63.5344 49.3444 63.5344 49.3444 63.5344 49.1148C63.5344 48.5411 63.4174 48.4263 63.4174 48.4263C63.3004 48.3116 63.1834 48.3116 63.1834 48.0821C63.1834 47.9673 63.1834 47.623 64.3534 47.623C64.5874 47.623 65.4064 47.623 65.4064 47.9673C65.4064 48.0821 65.2894 48.1968 65.1724 48.3116C65.0554 48.4263 64.9384 48.4263 64.9384 49.2296V50.7214Z" fill="white"/>
<path d="M69.8506 50.2619C69.8506 50.6062 69.7336 50.8357 69.3826 50.8357C68.7976 50.8357 68.3296 49.4586 68.3296 48.9996C68.3296 48.7701 68.4466 48.4258 68.7976 48.4258C69.4996 48.4258 69.8506 49.6881 69.8506 50.2619ZM69.0316 51.7537C70.2016 51.7537 71.3716 50.9504 71.3716 49.6881C71.3716 48.8849 70.7866 47.5078 69.1486 47.5078C67.8616 47.5078 66.8086 48.4258 66.8086 49.5734C66.8086 50.8357 67.7446 51.7537 69.0316 51.7537Z" fill="white"/>
<path d="M74.7663 48.5406C74.7663 48.3111 74.7663 48.1963 75.0003 48.1963C75.4683 48.1963 75.9363 48.4258 75.9363 49.8029C75.9363 50.3767 75.8193 51.1799 75.0003 51.1799C74.6493 51.1799 74.6493 51.0652 74.6493 50.7209V48.5406H74.7663ZM73.2453 50.4914C73.2453 51.4095 72.7773 50.8357 72.7773 51.2947C72.7773 51.5242 73.0113 51.639 73.2453 51.639C73.5963 51.639 73.9473 51.639 74.2983 51.639C74.6493 51.639 75.0003 51.639 75.4683 51.639C76.9893 51.639 77.5743 50.6062 77.5743 49.5734C77.5743 48.5406 76.9893 47.5078 75.3513 47.5078H73.3623C73.1283 47.5078 72.7773 47.5078 72.7773 47.7373C72.7773 48.1963 73.2453 47.8521 73.2453 48.4258V50.4914Z" fill="white"/>
<path d="M82.0186 50.2619C82.0186 50.6062 81.9016 50.8357 81.5506 50.8357C80.9656 50.8357 80.4976 49.4586 80.4976 48.9996C80.4976 48.7701 80.6146 48.4258 80.9656 48.4258C81.7846 48.4258 82.0186 49.6881 82.0186 50.2619ZM81.1996 51.7537C82.3696 51.7537 83.5396 50.9504 83.5396 49.6881C83.5396 48.8849 82.9546 47.5078 81.3166 47.5078C80.0296 47.5078 78.9766 48.4258 78.9766 49.5734C78.9766 50.8357 80.0296 51.7537 81.1996 51.7537Z" fill="white"/>
</svg>
