<svg width="117" height="70" viewBox="0 0 117 70" fill="none" xmlns="http://www.w3.org/2000/svg">
<path d="M16.3787 60.0162C13.3367 60.0162 14.0387 58.1801 14.0387 55.7703L13.8047 55.5407H15.6767L15.4427 55.7703V58.2948C15.4427 58.8686 15.9107 59.0981 16.3787 59.0981C16.8467 59.0981 17.3147 58.8686 17.3147 58.2948V55.7703L17.0807 55.5407H19.0697L18.7187 55.7703C18.7187 58.1801 19.4207 60.0162 16.3787 60.0162ZM25.5047 24.2129H27.9617L27.7277 24.5571C27.7277 27.9998 28.5467 30.8686 24.4517 30.8686C20.2397 30.8686 21.1757 27.7703 21.1757 24.5571L20.8247 24.2129H23.2817L23.0477 24.5571V27.9998C23.0477 28.9178 23.5157 29.4916 24.5687 29.4916C25.5047 29.4916 26.0897 28.9178 26.0897 27.9998V24.5571L25.5047 24.2129ZM25.7387 60.0162H24.8027L22.1117 57.3768V59.6719L22.3457 60.0162H20.7077L21.0587 59.6719V55.7703L20.8247 55.5407H22.3457L24.6857 58.0653V55.7703L24.4517 55.5407H26.0897L25.7387 55.7703V60.0162ZM28.3127 59.6719V55.7703L28.0787 55.426H30.0677L29.8337 55.6555V59.6719L30.0677 60.0162H28.0787L28.3127 59.6719ZM30.5357 24.2129H32.6417L35.9177 27.9998V24.5571L35.6837 24.2129H37.9067L37.4387 24.5571V30.6391H36.1517C34.9817 29.7211 33.5777 27.7703 32.5247 26.6227V30.2949L32.8757 30.6391H30.6527L31.0037 30.2949V24.5571L30.5357 24.2129ZM33.5777 60.0162L31.4717 55.5407H33.4607L33.1097 55.7703L34.2797 58.2948L35.4497 55.7703L35.0987 55.426H36.7367L34.5137 59.9014H33.5777V60.0162ZM38.3747 59.6719V55.7703L38.1407 55.5407H42.4697V56.6883L42.1187 56.344H39.7787V57.2621H41.2997L41.6507 57.0326V58.5244L41.2997 58.2948H39.7787V59.0981H42.1187L42.4697 58.8686V60.1309H38.1407L38.3747 59.6719ZM40.9487 30.2949V24.5571L40.5977 24.2129H43.1717L42.8207 24.5571V30.2949L43.1717 30.6391H40.5977L40.9487 30.2949ZM57.6797 12.8522C57.7967 12.967 57.9137 13.0817 58.1477 13.0817H58.2647V13.1965H59.0837L59.2007 13.3113C59.6687 13.426 59.6687 13.9998 60.1367 13.9998C60.2537 13.7703 60.0197 13.1965 60.4877 13.1965C60.6047 12.967 60.1367 12.7375 60.1367 12.508C60.1367 12.3932 60.2537 12.3932 60.2537 12.3932H60.4877C60.6047 12.508 60.6047 12.508 60.7217 12.508H60.9557C61.1897 12.7375 61.5407 12.8522 61.7747 13.0817C61.8917 12.967 62.0087 12.8522 62.2427 12.8522C62.3597 12.8522 62.3597 12.8522 62.4767 12.967C62.7107 12.967 62.7107 13.1965 62.8277 13.1965H62.9447C63.1787 13.3113 63.1787 13.426 63.4127 13.6555H63.5297C63.6467 13.7703 63.9977 13.885 63.9977 13.9998V14.1145C63.8807 14.2293 63.7637 14.2293 63.6467 14.2293C63.2957 14.2293 63.0617 14.1145 62.7107 14.1145C62.4767 14.1145 62.3597 14.2293 62.3597 14.4588V14.5735C62.4767 14.8031 62.9447 14.8031 62.9447 15.0326C62.9447 15.1473 62.9447 15.1473 62.9447 15.1473C62.5937 15.1473 62.4767 15.3768 62.1257 15.3768L62.0087 15.1473C62.0087 15.3768 61.8917 15.6063 61.6577 15.7211L61.4237 15.8358V15.9506C61.4237 15.9506 61.3067 15.9506 61.3067 16.0653V16.2949C60.9557 16.4096 60.9557 16.8686 60.7217 17.2129C60.3707 17.7867 59.4347 17.7867 59.4347 18.4752C59.4347 18.9342 59.9027 19.3932 59.9027 19.7375C59.9027 19.8522 59.7857 19.967 59.6687 20.0817C59.0837 19.967 59.3177 18.5899 58.7327 18.5899C58.4987 18.5899 58.3817 18.7047 58.2647 18.8194L57.6797 18.7047C57.6797 18.5899 57.5627 18.5899 57.4457 18.5899C57.2117 18.5899 57.2117 18.7047 56.9777 18.8194L56.7437 18.9342C56.3927 18.9342 55.6907 18.7047 55.4567 19.1637C54.8717 19.049 54.4037 20.426 54.4037 20.885C54.4037 21.1145 54.8717 22.1473 54.9887 22.2621C55.2227 22.2621 55.4567 22.2621 55.8077 22.2621C56.0417 22.2621 56.2757 22.2621 56.2757 22.0326C56.5097 22.1473 56.3927 21.8031 56.6267 21.8031C56.6267 21.5735 56.8607 21.4588 56.8607 21.2293C57.0947 21.2293 57.3287 21.4588 57.4457 21.4588L57.5627 21.344C57.5627 21.5735 57.3287 21.8031 57.3287 22.0326C57.3287 22.1473 57.3287 22.1473 57.3287 22.2621C57.4457 22.4916 57.0947 22.3768 57.0947 22.6063H53.4677C53.2337 22.3768 52.9997 22.1473 52.6487 22.0326V21.9178H52.5317C52.5317 21.8031 52.5317 21.6883 52.4147 21.5735H52.2977V21.4588C52.4147 21.4588 52.4147 21.344 52.4147 21.344C52.4147 20.9998 52.0637 20.885 52.0637 20.7703V20.6555C51.5957 20.0817 51.3617 19.3932 51.3617 18.5899C51.2447 18.5899 51.2447 18.4752 51.1277 18.4752C51.0107 18.4752 51.0107 18.4752 51.0107 18.4752C51.0107 18.5899 51.0107 18.7047 51.0107 18.7047C51.0107 19.2785 51.3617 19.8522 51.3617 20.426C51.3617 20.5408 51.2447 20.6555 51.2447 20.885H51.1277C51.0107 20.0817 50.5427 19.3932 50.5427 18.7047C50.5427 18.1309 50.3087 17.7867 50.3087 17.4424C50.3087 17.3276 50.3087 17.2129 50.4257 17.0981C50.5427 17.0981 50.5427 16.9834 50.5427 16.9834C50.5427 16.8686 50.4257 16.8686 50.5427 16.8686C50.6597 16.4096 51.0107 16.1801 51.0107 15.7211C51.4787 15.7211 51.2447 15.2621 51.5957 15.2621C51.7127 14.5735 52.0637 14.1145 52.1807 13.5408C52.6487 13.0817 52.8827 12.967 52.9997 12.2785C48.4367 13.7703 44.6927 16.8686 42.3527 21.1145C45.0437 14.4588 51.2447 10.2129 58.4987 10.2129C65.8697 10.2129 72.1877 14.4588 74.9957 21.1145C71.9537 15.6063 66.5717 11.9342 60.1367 11.3604L60.0197 11.4752C59.5517 11.3604 59.4347 11.9342 58.9667 11.9342C58.6157 12.1637 58.1477 12.2785 57.9137 12.6227C57.9137 12.3932 57.7967 12.6227 57.6797 12.8522ZM58.8497 44.4096C65.8697 44.4096 71.8367 40.6227 75.2297 34.6555C72.4217 41.3112 65.9867 45.5571 58.7327 45.5571C51.3617 45.5571 45.2777 41.3112 42.5867 34.6555C45.7457 40.6227 51.8297 44.4096 58.8497 44.4096ZM47.2667 60.0162L47.5007 59.6719L46.5647 58.4096H45.9797V59.6719L46.2137 60.0162H44.4587L44.6927 59.6719V55.7703L44.4587 55.426H47.3837C48.3197 55.426 49.1387 55.7703 49.1387 56.6883C49.1387 57.3768 48.6707 57.8358 48.0857 58.0653L49.3727 59.9014H47.2667V60.0162ZM45.1607 24.2129H47.6177L47.3837 24.4424L48.9047 28.2293C49.4897 26.967 50.0747 25.7047 50.4257 24.4424L50.3087 24.2129H52.2977L49.4897 30.6391H48.0857L45.1607 24.2129ZM47.1497 56.344H46.0967V57.4916H47.0327C47.3837 57.4916 47.7347 57.2621 47.7347 56.9178C47.7347 56.5735 47.5007 56.344 47.1497 56.344ZM51.5957 59.6719L51.2447 60.1309V58.4096C51.8297 58.8686 52.6487 59.0981 53.3507 59.0981C53.5847 59.0981 53.9357 58.9834 53.9357 58.6391C53.9357 58.0653 51.1277 58.2948 51.1277 56.5735C51.1277 55.426 52.4147 55.3112 53.2337 55.3112C53.7017 55.3112 54.2867 55.426 54.7547 55.5407L55.2227 55.1965V56.6883C54.6377 56.5735 53.8187 56.2293 53.2337 56.2293C52.9997 56.2293 52.6487 56.344 52.6487 56.4588C52.6487 57.1473 55.4567 56.9178 55.4567 58.5244C55.4567 59.6719 54.5207 60.0162 53.4677 60.0162C52.8827 60.1309 52.1807 60.0162 51.5957 59.6719ZM58.4987 27.9998H56.5097V29.2621H60.0197L60.3707 28.8031V30.6391H54.2867L54.5207 30.2949V24.5571L54.2867 24.2129H60.3707V26.049L60.0197 25.5899H56.5097V26.7375H58.4987L58.9667 26.508V28.344L58.4987 27.9998ZM60.4877 60.0162L60.8387 59.6719L60.6047 59.2129H58.3817L58.2647 59.6719L58.4987 60.0162H56.7437L58.8497 55.7703L58.7327 55.5407H60.2537L62.4767 60.0162H60.4877ZM59.5517 56.6883L58.7327 58.2948H60.2537L59.5517 56.6883ZM59.7857 20.7703C59.9027 20.7703 60.1367 20.7703 60.1367 20.9998C60.1367 21.1145 60.2537 21.1145 60.3707 21.1145C60.4877 21.1145 60.6047 21.1145 60.7217 21.1145C60.9557 21.344 61.3067 21.5735 61.6577 21.5735H61.7747C61.7747 21.6883 61.6577 21.8031 61.5407 21.8031C61.4237 21.8031 61.4237 21.8031 61.4237 21.8031V21.6883C60.8387 21.8031 60.8387 21.2293 60.2537 21.2293L60.1367 21.344C59.9027 21.2293 59.7857 20.885 59.4347 20.885C59.3177 20.885 59.3177 20.885 59.3177 20.885V20.7703C59.4347 20.7703 59.6687 20.7703 59.7857 20.7703ZM71.2517 32.3604C71.3687 32.4752 71.3687 32.5899 71.3687 32.8194C71.3687 33.2785 70.7837 33.3932 70.7837 33.7375C70.7837 33.8522 70.9007 33.8522 70.9007 33.967C70.5497 34.426 70.3157 34.9998 69.6137 34.9998C69.4967 34.9998 69.3797 34.9998 69.2627 34.885C69.0287 35.1145 68.5607 35.344 68.5607 35.6883V35.803C68.3267 35.803 68.3267 36.2621 67.9757 36.2621C67.9757 36.7211 67.3907 36.7211 67.3907 37.0653C67.2737 37.1801 67.1567 37.0653 67.1567 37.1801C66.8057 37.8686 66.1037 37.6391 65.9867 38.2129C65.7527 38.2129 65.8697 38.6719 65.5187 38.6719C64.4657 38.6719 64.3487 39.2457 63.7637 39.2457H63.6467C63.4127 39.5899 63.1787 40.0489 62.8277 40.2785C62.7107 40.2785 62.5937 40.2785 62.5937 40.3932C62.5937 40.3932 62.7107 40.508 62.7107 40.6227C62.7107 40.7375 62.3597 40.8522 62.2427 40.967C62.1257 40.967 62.0087 41.0817 62.0087 41.1965C62.0087 41.3112 62.1257 41.3112 62.1257 41.3112H62.2427V41.426L61.4237 41.3112C61.3067 41.1965 61.1897 40.967 61.1897 40.7375C61.1897 40.6227 61.1897 40.508 61.3067 40.2785C61.4237 40.0489 61.4237 39.7047 61.6577 39.4752C61.5407 39.3604 61.4237 39.2457 61.4237 39.1309C61.4237 38.7867 62.2427 38.2129 62.3597 37.5244C62.5937 37.1801 62.3597 36.7211 62.5937 36.3768C62.8277 36.1473 62.9447 35.803 62.9447 35.5735C62.9447 35.1145 62.8277 34.5408 63.1787 34.3112C63.1787 33.7375 62.8277 33.2785 62.2427 33.0489C62.1257 32.8194 61.7747 32.5899 61.5407 32.4752L61.4237 32.3604H71.2517ZM62.3597 21.5735C62.5937 21.5735 62.5937 21.8031 62.8277 21.8031H62.9447C62.9447 21.9178 63.0617 21.9178 63.0617 21.9178H63.2957V22.1473C62.8277 21.9178 62.7107 22.2621 62.3597 22.2621C62.2427 22.2621 62.1257 22.1473 62.1257 22.0326V21.8031C62.1257 21.6883 62.1257 21.5735 62.3597 21.5735ZM65.5187 30.6391H63.1787L63.4127 30.2949V24.5571L63.1787 24.2129H67.2737C68.5607 24.2129 69.7307 24.7867 69.7307 26.2785C69.7307 27.3112 68.9117 27.885 67.9757 28.2293L69.7307 30.7539H67.3907L67.6247 30.4096C67.1567 29.7211 66.6887 29.0326 66.3377 28.344H65.1677V30.4096L65.5187 30.6391ZM63.9977 22.3768V22.1473L64.2317 22.2621L63.9977 22.3768ZM64.3487 59.6719V55.7703L64.1147 55.5407H65.9867L65.7527 55.7703V58.9834H67.8587L68.2097 58.7539V60.0162H63.9977L64.3487 59.6719ZM67.1567 26.8522C67.6247 26.8522 67.7417 26.6227 67.7417 26.2785C67.7417 25.8194 67.5077 25.5899 67.1567 25.5899H65.2847V26.967H67.1567V26.8522ZM74.9957 29.4916C75.4637 29.4916 76.5167 29.4916 76.5167 28.8031C76.5167 27.9998 72.5387 27.9998 72.5387 25.9342C72.5387 24.5572 73.8257 23.9834 75.1127 23.9834C76.0487 23.9834 76.8677 24.3276 77.6867 24.3276L78.0377 23.9834V25.9342C77.4527 25.5899 76.1657 25.3604 75.4637 25.3604C75.1127 25.3604 74.2937 25.2457 74.2937 25.8194C74.2937 26.8522 78.2717 26.3932 78.2717 28.9178C78.2717 30.4096 76.5167 30.7539 75.3467 30.7539C74.0597 30.7539 73.2407 30.2949 72.8897 30.2949L72.5387 30.6391V28.5735C73.1237 29.0326 74.1767 29.4916 74.9957 29.4916ZM78.3887 59.6719V57.4916L77.2187 60.0162H76.6337L75.2297 57.3768V59.6719L75.4637 60.0162H73.8257L74.0597 59.6719V55.7703L73.8257 55.5407H75.4637L76.9847 58.2948L78.3887 55.5407H80.0267L79.7927 55.7703V59.6719L80.0267 60.0162H78.1547L78.3887 59.6719ZM82.2497 30.4096L82.4837 30.6391H80.2607L83.3027 24.5571L82.9517 24.2129H85.1747L88.3337 30.6391H85.8767L86.1107 30.4096C85.9937 30.1801 85.8767 29.8358 85.7597 29.4916H85.6427H82.7177C82.4837 29.7211 82.3667 30.0653 82.2497 30.4096ZM84.4727 60.0162C81.4307 60.0162 82.1327 58.1801 82.1327 55.7703L81.8987 55.5407H83.7707L83.5367 55.7703V58.2948C83.5367 58.8686 84.0047 59.0981 84.4727 59.0981C84.9407 59.0981 85.4087 58.8686 85.4087 58.2948V55.7703L85.1747 55.5407H87.0467L86.8127 55.7703C86.6957 58.1801 87.3977 60.0162 84.4727 60.0162ZM85.2917 28.2293L84.0047 25.8194L82.9517 28.2293H85.2917ZM89.1527 59.6719L88.8017 60.1309V58.4096C89.3867 58.8686 90.2057 59.0981 91.0247 59.0981C91.2587 59.0981 91.6097 58.9834 91.6097 58.6391C91.6097 58.0653 88.8017 58.2948 88.8017 56.5735C88.8017 55.426 89.9717 55.3112 90.9077 55.3112C91.3757 55.3112 91.9607 55.426 92.4287 55.5407L92.7797 55.1965V56.6883C92.1947 56.4588 91.4927 56.2293 90.7907 56.2293C90.6737 56.2293 90.2057 56.344 90.2057 56.4588C90.2057 57.1473 93.0137 56.9178 93.0137 58.5244C93.0137 59.6719 92.0777 60.0162 91.1417 60.0162C90.4397 60.1309 89.6207 60.0162 89.1527 59.6719ZM95.8217 29.2621L96.1727 28.9178V30.6391H90.3227L90.6737 30.2949V24.5571L90.3227 24.0981H92.8967L92.5457 24.5571V29.1473H95.8217V29.2621ZM96.1727 25.1309C96.1727 25.7047 95.7047 26.049 95.2367 26.049C94.7687 26.049 94.3007 25.5899 94.3007 25.1309C94.3007 24.6719 94.7687 24.2129 95.2367 24.2129C95.7047 24.2129 96.1727 24.5571 96.1727 25.1309ZM95.2367 24.2129C94.7687 24.2129 94.4177 24.6719 94.4177 25.0162C94.4177 25.4752 94.7687 25.8194 95.2367 25.8194C95.7047 25.8194 96.0557 25.4752 96.0557 25.0162C96.0557 24.6719 95.7047 24.2129 95.2367 24.2129ZM95.7047 25.2457C95.7047 25.4752 95.4707 25.5899 95.2367 25.5899C94.8857 25.5899 94.6517 25.3604 94.6517 25.0162C94.6517 24.7867 94.8857 24.4424 95.1197 24.4424H95.2367C95.4707 24.4424 95.7047 24.6719 95.7047 24.9014H95.5877L95.4707 24.6719C95.3537 24.6719 95.2367 24.5571 95.2367 24.5571C95.0027 24.5571 94.8857 24.7867 94.8857 25.0162C94.8857 25.2457 95.0027 25.4752 95.2367 25.4752L95.3537 25.3604L95.4707 25.2457H95.7047ZM95.2367 59.6719V55.7703L95.0027 55.5407H96.9917L96.7577 55.7703V59.6719L96.9917 60.0162H95.0027L95.2367 59.6719ZM98.7467 57.7211C98.7467 56.2293 99.9167 55.3112 101.438 55.3112C101.906 55.3112 102.374 55.426 102.842 55.5407L103.193 55.3112V56.803C102.725 56.5735 102.14 56.344 101.438 56.344C100.619 56.344 100.151 56.9178 100.151 57.7211C100.151 58.5244 100.736 59.0981 101.555 59.0981C102.14 59.0981 102.725 58.9834 103.193 58.6391V59.6719C102.725 59.9014 101.906 60.1309 101.321 60.1309C99.7997 60.0162 98.7467 59.3276 98.7467 57.7211Z" fill="white"/>
</svg>
