<svg width="117" height="70" viewBox="0 0 117 70" fill="none" xmlns="http://www.w3.org/2000/svg">
<path d="M11.4648 44.6395H8.53983V52.3281H6.90183V44.6395H3.97683V43.1477H11.4648V44.6395ZM21.0588 47.7379C21.0588 50.1477 19.5378 52.5576 16.6128 52.5576C13.6878 52.5576 12.1668 50.1477 12.1668 47.7379C12.1668 45.3281 13.6878 42.9182 16.6128 42.9182C19.5378 42.9182 21.0588 45.3281 21.0588 47.7379ZM19.3038 47.7379C19.3038 46.2461 18.6018 44.41 16.6128 44.41C14.6238 44.41 13.9218 46.1313 13.9218 47.7379C13.9218 49.2297 14.6238 51.0658 16.6128 51.0658C18.6018 51.0658 19.3038 49.2297 19.3038 47.7379ZM30.7698 52.3281V47.2789H26.9088V48.7707H29.2488C29.2488 50.1477 27.9618 50.951 26.7918 50.951C24.8028 50.951 24.1008 49.2297 24.1008 47.6231C24.1008 46.1313 24.8028 44.2953 26.7918 44.2953C28.4298 44.2953 29.0148 45.4428 29.1318 46.0166L30.6528 45.4428C29.9508 43.7215 28.5468 42.8035 26.6748 42.8035C23.7498 42.8035 22.2288 45.2133 22.2288 47.6231C22.2288 49.8035 23.3988 52.4428 26.6748 52.4428C27.3768 52.4428 28.4298 52.0985 29.1318 51.41L29.2488 51.2953V52.2133H30.7698V52.3281ZM37.7898 43.1477L41.4168 52.4428H39.5448L38.6088 50.033H35.0988L34.2798 52.4428H32.4078L36.0348 43.2625H37.7898V43.1477ZM38.2578 48.6559L36.9708 44.869L35.5668 48.6559H38.2578ZM104.831 48.3117V46.9346H100.268V44.6395H105.182V43.1477H98.5129V52.3281H105.299V50.8363H100.268V48.3117H104.831ZM73.0068 49.1149C72.6558 50.3772 71.8368 50.951 70.6668 50.951C68.6778 50.951 67.9758 49.2297 67.9758 47.6231C67.9758 46.1313 68.6778 44.2953 70.6668 44.2953C71.7198 44.2953 72.6558 44.9838 72.7728 46.0166L74.4108 45.5576C73.9428 43.7215 72.6558 42.6887 70.6668 42.6887C67.7418 42.6887 66.2208 45.0986 66.2208 47.5084C66.2208 49.6887 67.3908 52.3281 70.6668 52.3281C72.5388 52.3281 73.7088 51.41 74.5278 49.6887L73.0068 49.1149ZM83.8878 52.3281V43.1477H82.1328V46.5904H77.9208V43.1477H76.1658V52.3281H77.9208V48.1969H82.1328V52.4428H83.8878V52.3281ZM85.9939 43.1477V52.3281H87.7489V43.1477H85.9939ZM112.202 47.2789C111.851 47.1641 110.681 46.8199 109.979 46.7051H109.862C109.745 46.7051 109.628 46.5904 109.628 46.5904C108.926 46.3608 108.575 46.0166 108.575 45.4428C108.575 44.41 109.745 44.2953 110.213 44.2953C111.383 44.2953 111.968 44.869 112.085 45.7871H113.723C113.723 43.7215 111.968 42.8035 110.213 42.8035C108.575 42.8035 106.937 43.6067 106.937 45.5576C106.937 46.3608 107.288 47.3936 108.926 47.8526C109.394 47.9674 109.745 48.0822 110.096 48.1969C110.681 48.3117 111.149 48.4264 111.617 48.6559C111.968 48.7707 112.319 49.0002 112.319 49.6887C112.319 50.033 112.202 50.951 110.447 50.951C109.628 50.951 108.224 50.7215 108.224 49.1149H106.586C106.586 51.1805 107.99 52.4428 110.33 52.4428C111.968 52.4428 113.957 51.6395 113.957 49.574C113.957 48.7707 113.489 47.6231 112.202 47.2789ZM95.3539 43.1477L93.2478 50.7215L91.1419 43.1477H89.3869L92.1949 52.4428H94.5349L97.2259 43.2625H95.3539V43.1477ZM52.9998 43.1477L56.6268 52.4428H54.7548L53.8188 50.033H50.3088L49.4898 52.4428H47.6178L51.2448 43.2625H52.9998V43.1477ZM53.4678 48.6559L52.1808 44.869L50.7768 48.6559H53.4678ZM59.7858 48.8854V52.3281H58.0308V43.1477H62.0088C63.8808 43.1477 65.1678 44.1805 65.1678 45.9018C65.1678 47.2789 64.3488 48.3117 63.0618 48.7707L65.4018 52.4428H63.4128L61.1898 49.0002C60.2538 48.8854 59.7858 48.8854 59.7858 48.8854ZM59.7858 47.5084H61.7748C62.7108 47.5084 63.4128 46.9346 63.4128 46.0166C63.4128 45.0985 62.7108 44.5248 61.5408 44.5248H59.7858V47.5084ZM16.6128 18.8199H2.92383V21.574H8.18883V35.9182H11.3478V21.574H16.6128V18.8199ZM34.3968 27.3117C34.3968 31.6723 31.5888 36.1477 26.2068 36.1477C20.8248 36.1477 18.0168 31.6723 18.0168 27.3117C18.0168 22.951 20.8248 18.4756 26.2068 18.4756C31.5888 18.4756 34.3968 22.951 34.3968 27.3117ZM31.1208 27.3117C31.1208 24.5576 29.8338 21.2297 26.0898 21.2297C22.4628 21.2297 21.0588 24.4428 21.0588 27.3117C21.0588 30.0658 22.3458 33.3936 26.0898 33.3936C29.8338 33.3936 31.1208 30.0658 31.1208 27.3117ZM52.4148 35.8035V26.6231H45.2778V29.2625H49.6068C49.6068 31.7871 47.3838 33.2789 45.1608 33.2789C41.5338 33.2789 40.1298 30.0658 40.1298 27.1969C40.1298 24.4428 41.4168 21.1149 45.1608 21.1149C48.3198 21.1149 49.2558 23.2953 49.6068 24.3281L52.5318 23.1805C51.2448 19.9674 48.6708 18.2461 45.2778 18.2461C39.8958 18.2461 37.0878 22.7215 37.0878 27.0822C37.0878 31.2133 39.1938 35.9182 45.2778 35.9182C46.6818 35.9182 48.5538 35.3445 49.7238 34.0822L49.8408 33.9674V35.6887H52.4148V35.8035ZM65.2848 18.8199L72.0708 35.9182H68.5608L66.9228 31.4428H60.2538L58.7328 35.9182H55.3398L62.0088 18.9346H65.2848V18.8199ZM66.1038 28.9182L63.6468 22.033L61.1898 28.9182H66.1038Z" fill="white"/>
</svg>
