<svg width="117" height="70" viewBox="0 0 117 70" fill="none" xmlns="http://www.w3.org/2000/svg">
<g clip-path="url(#clip0_197_5374)">
<path d="M31.3851 21.5895L34.2212 28.7433H28.535L31.3851 21.5895ZM29.3072 16.0664L21.1172 36.9023H25.3198L27.0479 32.6094H35.7164L37.3778 36.9023H41.5805L33.4115 16.0664H29.3072Z" fill="white"/>
<mask id="mask0_197_5374" style="mask-type:luminance" maskUnits="userSpaceOnUse" x="21" y="16" width="75" height="38">
<path d="M95.886 16.0645H21.1172V53.9333H95.886V16.0645Z" fill="white"/>
</mask>
<g mask="url(#mask0_197_5374)">
<path d="M53.1197 19.2544L50.2754 21.7181C49.9698 21.1633 49.5334 20.6882 49.0026 20.3323C48.4719 19.9764 47.8621 19.75 47.2241 19.6721C46.7765 19.6537 46.3372 19.7947 45.9874 20.0691C45.8432 20.1728 45.7251 20.3072 45.6417 20.4623C45.5584 20.6174 45.5122 20.789 45.5065 20.9642C45.5107 21.3071 45.6318 21.6388 45.8505 21.9063C46.7251 22.8203 47.6667 23.6702 48.6678 24.4493C50.1342 25.6511 51.0234 26.4093 51.3354 26.7237C52.0135 27.3614 52.5726 28.1106 52.9875 28.9373C53.3175 29.6632 53.4839 30.4503 53.4754 31.245C53.4971 31.9968 53.3551 32.7446 53.0589 33.4383C52.7627 34.1321 52.3192 34.7559 51.7578 35.2683C50.5371 36.3559 48.9278 36.9267 47.2802 36.8565C45.951 36.8873 44.6427 36.5276 43.5233 35.8237C42.3357 34.9915 41.3909 33.8686 40.7832 32.567L44.0124 30.6563C44.9858 32.4052 46.1055 33.2796 47.3715 33.2796C47.9781 33.2981 48.5704 33.0967 49.0352 32.7139C49.2403 32.5601 49.4073 32.3629 49.5238 32.137C49.6403 31.9111 49.7032 31.6623 49.708 31.4091C49.6925 30.9184 49.5138 30.446 49.199 30.0642C48.5274 29.3011 47.7756 28.6095 46.9561 28.0009C45.3578 26.835 43.9238 25.4667 42.6915 23.9317C42.0892 23.0934 41.7544 22.0985 41.7297 21.0732C41.7242 20.4064 41.8642 19.7461 42.1403 19.1367C42.4163 18.5273 42.8221 17.9829 43.3303 17.5399C44.398 16.5567 45.8186 16.0271 47.2826 16.0665C48.2844 16.0656 49.2718 16.3018 50.1608 16.755C51.2986 17.4 52.3028 18.249 53.1209 19.2578" fill="white"/>
<path d="M64.4692 16.0651C65.7753 16.0502 67.0706 16.299 68.2745 16.7961C69.4783 17.2932 70.5651 18.0279 71.467 18.9546C72.4173 19.8718 73.1669 20.9696 73.6698 22.1807C74.1728 23.3918 74.4185 24.6908 74.392 25.9982C74.419 27.291 74.1768 28.5756 73.6803 29.7735C73.1838 30.9713 72.4434 32.0573 71.5045 32.9649C70.5692 33.8757 69.4599 34.5964 68.24 35.0857C67.0201 35.575 65.7138 35.8232 64.3959 35.8162C63.078 35.8091 61.7745 35.5469 60.5601 35.0447C59.3457 34.5424 58.2444 33.8099 57.3194 32.8892C56.3978 31.973 55.6709 30.8864 55.181 29.6924C54.6912 28.4984 54.448 27.2209 54.4657 25.9339C54.4504 24.2036 54.9043 22.5004 55.7809 20.9988C56.6575 19.4972 57.9254 18.2511 59.4546 17.3882C60.975 16.5142 62.707 16.0572 64.4692 16.0651ZM64.4271 19.5674C63.5936 19.5494 62.7655 19.7015 61.9951 20.014C61.2247 20.3265 60.5289 20.7926 59.9519 21.3828C59.3489 21.9929 58.8776 22.716 58.566 23.5088C58.2544 24.3016 58.109 25.1479 58.1384 25.9971C58.0989 26.9374 58.285 27.8738 58.6817 28.7308C59.0783 29.5878 59.6745 30.3416 60.4222 30.9315C61.5648 31.8632 63.008 32.3659 64.4938 32.3498C65.3207 32.3624 66.1411 32.2056 66.9026 31.8894C67.6641 31.5733 68.35 31.1047 68.9164 30.5138C69.516 29.9158 69.9869 29.2057 70.3011 28.4256C70.6153 27.6455 70.7663 26.8114 70.7451 25.973C70.764 25.1334 70.6109 24.2986 70.295 23.518C69.979 22.7375 69.5067 22.027 68.9059 21.4287C68.3333 20.8288 67.6389 20.3533 66.8675 20.0327C66.0961 19.7121 65.2648 19.5536 64.4271 19.5674Z" fill="white"/>
<path d="M76.4688 33.9288V16.0639H79.3329C80.5564 16.0212 81.7805 16.1272 82.9775 16.3794C83.9953 16.6185 84.908 17.172 85.5807 17.9585C86.2233 18.7234 86.5661 19.6883 86.5472 20.6793C86.5557 21.3225 86.4048 21.9581 86.1072 22.5314C85.7569 23.1517 85.2686 23.6867 84.6787 24.0966C85.6529 24.5005 86.4931 25.1625 87.1052 26.0085C87.6299 26.8188 87.8971 27.7639 87.8728 28.7235C87.8825 29.6942 87.6071 30.6472 87.0795 31.4685C86.5875 32.2617 85.8785 32.9038 85.0332 33.3217C83.9426 33.7792 82.7606 33.9887 81.5758 33.9345L76.4688 33.9288ZM79.9366 19.3057V23.0719H80.6948C81.3657 23.124 82.0336 22.9388 82.5773 22.5498C82.7821 22.3734 82.9438 22.1542 83.0505 21.9083C83.1572 21.6624 83.2062 21.3961 83.1939 21.1291C83.2051 20.8785 83.1583 20.6286 83.0569 20.3983C82.9556 20.168 82.8025 19.9631 82.6089 19.7991C82.0949 19.4333 81.4649 19.2587 80.8317 19.3068L79.9366 19.3057ZM79.9366 26.1071V30.6858H80.8059C81.8084 30.7787 82.8174 30.5938 83.7181 30.1522C83.9655 29.975 84.1638 29.7399 84.295 29.4683C84.4262 29.1968 84.4861 28.8974 84.4692 28.5973C84.4826 28.2466 84.4096 27.8979 84.2562 27.5809C84.1028 27.2638 83.8737 26.9878 83.5882 26.7762C82.7076 26.2558 81.6817 26.022 80.6574 26.1083L79.9366 26.1071Z" fill="white"/>
<path d="M93.3642 16.0645H90.2578V32.1874H93.3642V16.0645Z" fill="white"/>
<path d="M30.1189 42.2369L28.2294 43.8744C28.0264 43.5057 27.7364 43.1898 27.3837 42.9533C27.031 42.7167 26.6258 42.5663 26.2018 42.5146C25.9053 42.5031 25.6145 42.5968 25.3828 42.7785C25.2872 42.8475 25.2088 42.9368 25.1535 43.0397C25.0981 43.1427 25.0673 43.2566 25.0633 43.3729C25.0675 43.6013 25.1499 43.8216 25.2973 43.9983C25.8782 44.6057 26.5039 45.1703 27.1693 45.6875C28.1428 46.4862 28.7332 46.9896 28.9407 47.1977C29.3924 47.6209 29.765 48.1184 30.0417 48.6677C30.261 49.1503 30.3716 49.6736 30.3658 50.202C30.3803 50.7015 30.2861 51.1984 30.0894 51.6595C29.8927 52.1205 29.598 52.5352 29.225 52.8757C28.4137 53.5981 27.3445 53.9775 26.2497 53.9315C25.3664 53.9513 24.4973 53.7115 23.7541 53.2429C22.9647 52.6906 22.337 51.9447 21.9336 51.0798L24.07 49.8106C24.7151 50.9727 25.4561 51.5538 26.293 51.5538C26.6961 51.5664 27.0898 51.4328 27.3987 51.1785C27.535 51.0763 27.646 50.9452 27.7234 50.7949C27.8008 50.6447 27.8426 50.4793 27.8456 50.311C27.8355 49.985 27.7171 49.6711 27.5086 49.417C27.0621 48.9111 26.5629 48.4523 26.0192 48.048C24.958 47.2728 24.0059 46.3633 23.1878 45.3433C22.7875 44.7864 22.5651 44.1253 22.549 43.4441C22.5461 43.0008 22.6399 42.5621 22.8242 42.1573C23.0084 41.7526 23.2788 41.3912 23.6172 41.0974C24.3263 40.4446 25.2694 40.0928 26.2415 40.1185C26.9071 40.1186 27.5629 40.2761 28.1533 40.5775C28.9085 41.0053 29.5752 41.5681 30.1189 42.2369Z" fill="white"/>
<path d="M29.9435 39.209H33.0124L35.8122 44.5083L38.6003 39.2113H41.6294L37.2361 47.5573V53.9342H34.3579V47.5573L29.9435 39.209Z" fill="white"/>
<path d="M50.9111 40.147L48.6881 42.076C48.4494 41.6408 48.1079 41.2678 47.6923 40.9883C47.2767 40.7088 46.7989 40.5309 46.2989 40.4695C45.9483 40.4551 45.6043 40.5656 45.3302 40.7805C45.2174 40.8617 45.1248 40.9671 45.0596 41.0885C44.9943 41.21 44.958 41.3444 44.9534 41.4816C44.9564 41.7502 45.0511 42.01 45.2225 42.2195C45.9074 42.9356 46.6449 43.6014 47.4292 44.2116C48.5773 45.1534 49.2735 45.747 49.5176 45.9926C50.0501 46.4918 50.4892 47.0786 50.8151 47.7265C51.0736 48.2946 51.2041 48.9107 51.1977 49.5327C51.2147 50.1216 51.1035 50.7073 50.8715 51.2507C50.6395 51.794 50.292 52.2826 49.8522 52.6839C48.8953 53.5364 47.6337 53.9836 46.3422 53.9278C45.3008 53.9517 44.2759 53.6691 43.3997 53.1165C42.4691 52.4651 41.7291 51.5855 41.2539 50.5655L43.7823 49.0737C44.5428 50.4439 45.4179 51.1286 46.4078 51.1278C46.8826 51.1423 47.3462 50.9846 47.71 50.6849C47.8707 50.5645 48.0016 50.41 48.0928 50.2329C48.184 50.0558 48.2331 49.8608 48.2365 49.6624C48.224 49.2782 48.0844 48.9084 47.8387 48.609C47.3127 48.0126 46.7245 47.4718 46.0837 46.9955C44.8328 46.082 43.7108 45.01 42.7468 43.8077C42.275 43.1511 42.0127 42.3719 41.9933 41.5688C41.989 41.0467 42.0986 40.5297 42.3147 40.0525C42.5308 39.5753 42.8485 39.149 43.2464 38.8021C44.0815 38.0339 45.1919 37.6199 46.3364 37.65C47.1206 37.6488 47.8936 37.8331 48.5898 38.187C49.4819 38.6919 50.2693 39.3568 50.9111 40.147Z" fill="white"/>
<path d="M52.5008 37.5547H61.7297V40.6221H58.6877V53.9335H55.4597V40.6221H52.4961L52.5008 37.5547Z" fill="white"/>
<path d="M63.6328 37.2227H72.932V40.3348H66.848V43.3563H72.932V46.4122H66.848V50.8084H72.932V53.932H63.6328V37.2227Z" fill="white"/>
<path d="M76.7947 35.2832H80.3211L84.7285 48.2906L89.1745 35.2832H92.6985L95.888 53.933H92.3885L90.3492 42.1547L86.3103 53.933H83.1197L79.116 42.1547L77.0287 53.933H73.5L76.7947 35.2832Z" fill="white"/>
</g>
</g>
<defs>
<clipPath id="clip0_197_5374">
<rect width="117" height="70" fill="white"/>
</clipPath>
</defs>
</svg>
