<svg width="117" height="70" viewBox="0 0 117 70" fill="none" xmlns="http://www.w3.org/2000/svg">
<path d="M7.72211 35.3447L5.85011 35.1152C3.86111 34.8857 3.27611 34.4267 3.27611 33.5086C3.27611 32.5906 4.32911 31.9021 6.55211 31.9021C8.65811 31.9021 10.1791 32.4759 10.2961 34.0824H11.7001C11.7001 31.6726 9.71111 30.6398 6.66911 30.6398C3.86111 30.6398 1.75511 31.5578 1.75511 33.5086C1.75511 35.23 2.57411 35.8037 5.61611 36.2627L7.48811 36.7218C10.1791 37.066 10.6471 37.525 10.6471 38.4431C10.6471 39.2464 9.94511 40.2791 6.78611 40.2791C4.56311 40.2791 2.92511 39.3611 2.69111 37.8693H1.28711C1.52111 40.3939 3.62711 41.5414 6.78611 41.5414C10.2961 41.5414 12.1681 40.2791 12.1681 38.3283C12.1681 36.4923 11.1151 35.8037 7.72211 35.3447ZM79.4431 30.8693C77.8051 30.8693 76.2841 31.4431 75.4651 33.0496C74.8801 31.5578 73.5931 30.8693 71.7211 30.8693C70.0831 30.8693 68.6791 31.4431 67.8601 32.7054V31.0988H66.4561V41.1972H67.8601V35.5742C67.8601 33.3939 69.1471 32.0168 71.2531 32.0168C73.3591 32.0168 74.1781 33.2791 74.1781 35.0005V41.1972H75.6991V35.5742C75.6991 33.3939 76.9861 32.0168 79.0921 32.0168C81.3151 32.0168 82.0171 33.3939 82.0171 35.0005V41.1972H83.5381V34.6562C83.4211 31.9021 81.9001 30.8693 79.4431 30.8693ZM114.192 37.1808C114.192 39.1316 112.437 40.2791 109.746 40.2791C107.874 40.2791 106.821 39.4759 106.821 38.4431C106.821 37.2955 107.406 36.7218 110.331 36.4923C113.022 36.2627 113.841 35.9185 114.192 35.5742V37.1808ZM111.033 30.7545C108.108 30.7545 106.002 31.7873 105.768 34.1972H107.172C107.289 32.7054 108.81 31.9021 110.799 31.9021C112.554 31.9021 114.192 32.4759 114.192 33.6234C114.192 34.6562 113.256 34.8857 110.331 35.23C106.938 35.5742 105.183 36.2627 105.183 38.4431C105.183 40.5086 106.821 41.4267 109.395 41.4267C111.735 41.4267 113.373 40.6234 114.075 39.4759V41.1972H115.479V33.9677C115.713 31.6726 113.958 30.7545 111.033 30.7545ZM55.3411 35.3447C55.5751 33.5086 57.2131 32.0168 59.7871 32.0168C62.4781 32.0168 63.7651 33.6234 63.9991 35.3447H55.3411ZM59.7871 30.7545C55.9261 30.7545 53.9371 33.3939 53.9371 36.148C53.9371 39.0168 55.9261 41.4267 59.6701 41.4267C62.2441 41.4267 64.5841 40.1644 65.1691 37.8693H63.6481C63.1801 39.1316 61.8931 40.2791 59.6701 40.2791C56.8621 40.2791 55.5751 38.5578 55.3411 36.4923H65.4031V36.0332C65.5201 33.3939 63.7651 30.7545 59.7871 30.7545ZM18.8371 30.8693C16.9651 30.8693 15.4441 31.5578 14.6251 32.9349V28.5742H13.2211V41.1972H14.6251V35.3447C14.6251 33.6234 16.0291 32.1316 18.6031 32.1316C20.8261 32.1316 21.7621 33.1644 21.7621 34.7709V41.3119H23.2831V34.7709C23.2831 31.9021 21.5281 30.8693 18.8371 30.8693ZM93.4831 36.9513C93.4831 38.6726 92.0791 40.2791 89.5051 40.2791C87.2821 40.2791 86.3461 39.2464 86.3461 37.6398V31.0988H84.9421V37.6398C84.9421 40.3939 86.5801 41.4267 89.3881 41.4267C91.7281 41.4267 93.1321 40.2791 93.7171 39.2464V41.1972H95.1211V31.0988H93.7171V36.9513H93.4831ZM51.2461 36.9513C51.2461 38.6726 49.8421 40.2791 47.2681 40.2791C45.0451 40.2791 44.1091 39.2464 44.1091 37.6398V31.0988H42.7051V37.6398C42.7051 40.3939 44.3431 41.4267 47.1511 41.4267C49.4911 41.4267 50.8951 40.2791 51.4801 39.2464V41.1972H52.8841V31.0988H51.4801V36.9513H51.2461ZM33.3451 36.9513C33.3451 38.6726 31.9411 40.2791 29.3671 40.2791C27.1441 40.2791 26.2081 39.2464 26.2081 37.6398V31.0988H24.8041V37.6398C24.8041 40.3939 26.5591 41.4267 29.2501 41.4267C31.5901 41.4267 32.9941 40.2791 33.5791 39.2464V41.1972H34.9831V31.0988H33.5791V36.9513H33.3451ZM101.205 30.7545C99.8011 30.7545 98.3971 31.2136 97.6951 32.4759V31.0988H96.2911V41.1972H97.6951V35.0005C97.6951 33.1644 98.9821 32.0168 100.854 32.0168C102.609 32.0168 103.428 32.9349 103.662 34.3119H105.066C105.066 32.1316 103.545 30.7545 101.205 30.7545Z" fill="white"/>
</svg>
