<svg width="117" height="70" viewBox="0 0 117 70" fill="none" xmlns="http://www.w3.org/2000/svg">
<path d="M6.29306 27.2047C6.03317 26.9584 5.74544 26.8887 5.46698 26.8887C5.18853 26.8887 4.90079 26.9584 4.6409 27.2047C4.36245 27.4649 4.27891 27.8135 4.27891 28.3293V31.9821C4.27891 32.5259 4.2325 33.5018 3.32753 33.5018C2.42255 33.5018 2.37614 32.5259 2.37614 31.9821V28.3293C2.37614 27.8135 2.29261 27.4649 2.01415 27.2047C1.75426 26.9584 1.46652 26.8887 1.18807 26.8887C0.909617 26.8887 0.621881 26.9584 0.36199 27.2047C0.0835362 27.4649 0 27.8135 0 28.3293V41.2117C0 41.7275 0.0835362 42.0761 0.36199 42.3363C0.621881 42.5826 0.909617 42.6523 1.18807 42.6523C1.46652 42.6523 1.75426 42.5826 2.01415 42.3363C2.29261 42.0761 2.37614 41.7275 2.37614 41.2117V37.5589C2.37614 37.0152 2.42255 36.0392 3.32753 36.0392C4.2325 36.0392 4.27891 37.0152 4.27891 37.5589V41.2117C4.27891 41.7275 4.36245 42.0761 4.6409 42.3363C4.90079 42.5826 5.18853 42.6523 5.46698 42.6523C5.74544 42.6523 6.03317 42.5826 6.29306 42.3363C6.57152 42.0761 6.65505 41.7275 6.65505 41.2117V28.3293C6.65505 27.8135 6.57152 27.4649 6.29306 27.2047Z" fill="white"/>
<path d="M15.9055 28.3293C15.9055 27.8135 15.822 27.4649 15.5435 27.2047C15.2837 26.9584 14.9959 26.8887 14.7175 26.8887C14.439 26.8887 14.1513 26.9584 13.8914 27.2047C13.6129 27.4649 13.5294 27.8135 13.5294 28.3293V38.967C13.5294 39.4039 13.5015 39.6874 13.3438 39.9337C13.1906 40.1753 12.9075 40.3194 12.5827 40.3194C12.2578 40.3194 11.9701 40.1753 11.8215 39.9383C11.6638 39.692 11.6359 39.4085 11.6359 38.9717V28.334C11.6359 27.8181 11.5524 27.4696 11.2739 27.2093C11.014 26.963 10.7263 26.8933 10.4478 26.8933C10.1694 26.8933 9.88165 26.963 9.62176 27.2093C9.3433 27.4696 9.25977 27.8181 9.25977 28.334V38.9717C9.25977 39.6781 9.32474 40.4402 9.81203 41.2117C10.4014 42.1458 11.441 42.7035 12.5873 42.7035C13.7336 42.7035 14.7685 42.1458 15.3625 41.2117C15.8498 40.4402 15.9148 39.6781 15.9148 38.9717V28.334L15.9055 28.3293Z" fill="white"/>
<path d="M27.9587 27.2047C27.6988 26.9584 27.4111 26.8887 27.1326 26.8887C26.9284 26.8887 26.7196 26.9259 26.52 27.042C26.2137 27.2186 26.0513 27.5532 26.0049 27.6601C25.9353 27.8088 25.861 28.0133 25.7821 28.2922C25.5686 29.0497 24.2088 33.7481 24.0835 34.1571C23.9768 34.5103 23.7958 34.9982 23.3596 34.9982C22.9233 34.9982 22.7377 34.5103 22.6356 34.1571C22.5103 33.7481 21.1505 29.0497 20.937 28.2922C20.8581 28.0133 20.7792 27.8088 20.7142 27.6601C20.6632 27.5486 20.5054 27.2186 20.1991 27.042C19.9995 26.9259 19.7907 26.8887 19.5865 26.8887C19.3081 26.8887 19.0203 26.9584 18.7604 27.2047C18.482 27.4649 18.3984 27.8135 18.3984 28.3293V41.2117C18.3984 41.7275 18.482 42.0761 18.7604 42.3363C19.0203 42.5826 19.3081 42.6523 19.5865 42.6523C19.865 42.6523 20.1527 42.5826 20.4126 42.3363C20.691 42.0761 20.7746 41.7275 20.7746 41.2117V39.6177C20.7746 39.218 20.8535 38.9066 21.1598 38.8787C21.4336 38.8555 21.5821 39.046 21.7213 39.4596C21.8513 39.85 22.2922 41.1559 22.4267 41.5509C22.5892 42.0296 22.863 42.4432 23.3596 42.4432C23.8561 42.4432 24.1253 42.0296 24.2924 41.5509C24.427 41.1559 24.8679 39.85 24.9978 39.4596C25.137 39.0414 25.2902 38.8555 25.5594 38.8787C25.8657 38.9066 25.9445 39.218 25.9445 39.6177V41.2117C25.9445 41.7275 26.0281 42.0761 26.3065 42.3363C26.5664 42.5826 26.8542 42.6523 27.1326 42.6523C27.4111 42.6523 27.6988 42.5826 27.9587 42.3363C28.2372 42.0761 28.3207 41.7275 28.3207 41.2117V28.3293C28.3207 27.8135 28.2372 27.4649 27.9587 27.2047Z" fill="white"/>
<path d="M38.3168 41.0258L36.3166 28.3015C36.2377 27.7949 36.117 27.3999 35.8107 27.1722C35.5044 26.9444 35.045 26.8887 34.6319 26.8887C34.2189 26.8887 33.7594 26.9444 33.4531 27.1722C33.1468 27.3999 33.0262 27.7903 32.9473 28.3015L30.9471 41.0258C30.8682 41.5323 30.8635 41.9227 31.1002 42.2201C31.3183 42.5036 31.62 42.6291 31.8984 42.643C32.1212 42.657 32.4693 42.643 32.7617 42.4432C33.0772 42.2294 33.2165 41.8995 33.2954 41.3883L33.4346 40.5146C33.5135 39.9987 33.7548 39.4225 34.6319 39.4225C35.5091 39.4225 35.7504 39.9987 35.8293 40.5146L35.9685 41.3883C36.0474 41.8948 36.1866 42.2248 36.5022 42.4432C36.7992 42.643 37.1427 42.6523 37.3654 42.643C37.6439 42.6245 37.9455 42.499 38.1637 42.2201C38.4004 41.9181 38.3957 41.5323 38.3168 41.0258ZM35.277 36.6387C35.1378 36.8293 34.9011 36.9501 34.6366 36.9501C34.372 36.9501 34.1354 36.8293 33.9961 36.6387C33.8337 36.4157 33.7919 36.1043 33.7919 35.8394C33.7919 35.4862 33.8476 34.8542 34.0425 34.2733C34.1725 33.8922 34.3442 33.5204 34.6366 33.5204C34.929 33.5204 35.1053 33.8922 35.2306 34.2733C35.4302 34.8542 35.4812 35.4862 35.4812 35.8394C35.4812 36.1089 35.4395 36.4157 35.277 36.6387Z" fill="white"/>
<path d="M62.5095 27.2047C62.2496 26.9584 61.9619 26.8887 61.6834 26.8887C61.4792 26.8887 61.2704 26.9259 61.0708 27.042C60.7645 27.2186 60.6021 27.5532 60.5557 27.6601C60.486 27.8088 60.4118 28.0133 60.3329 28.2922C60.1194 29.0497 58.7596 33.7481 58.6343 34.1571C58.5276 34.5103 58.3466 34.9982 57.9103 34.9982C57.4741 34.9982 57.2885 34.5103 57.1864 34.1571C57.0611 33.7481 55.7013 29.0497 55.4878 28.2922C55.4089 28.0133 55.33 27.8088 55.265 27.6601C55.214 27.5486 55.0562 27.2186 54.7499 27.042C54.5503 26.9259 54.3415 26.8887 54.1373 26.8887C53.8588 26.8887 53.5711 26.9584 53.3112 27.2047C53.0328 27.4649 52.9492 27.8135 52.9492 28.3293V41.2117C52.9492 41.7275 53.0328 42.0761 53.3112 42.3363C53.5711 42.5826 53.8588 42.6523 54.1373 42.6523C54.4157 42.6523 54.7035 42.5826 54.9634 42.3363C55.2418 42.0761 55.3254 41.7275 55.3254 41.2117V39.6177C55.3254 39.218 55.4043 38.9066 55.7106 38.8787C55.9844 38.8555 56.1329 39.046 56.2721 39.4596C56.4021 39.85 56.8429 41.1559 56.9775 41.5509C57.14 42.0296 57.4138 42.4432 57.9103 42.4432C58.4069 42.4432 58.6761 42.0296 58.8432 41.5509C58.9778 41.1559 59.4186 39.85 59.5486 39.4596C59.6878 39.0414 59.841 38.8555 60.1101 38.8787C60.4164 38.9066 60.4953 39.218 60.4953 39.6177V41.2117C60.4953 41.7275 60.5789 42.0761 60.8573 42.3363C61.1172 42.5826 61.4049 42.6523 61.6834 42.6523C61.9619 42.6523 62.2496 42.5826 62.5095 42.3363C62.7879 42.0761 62.8715 41.7275 62.8715 41.2117V28.3293C62.8715 27.8135 62.7879 27.4649 62.5095 27.2047Z" fill="white"/>
<path d="M72.8852 41.0258L70.8849 28.3015C70.8061 27.7949 70.6854 27.3999 70.3791 27.1722C70.0728 26.9444 69.6133 26.8887 69.2003 26.8887C68.7873 26.8887 68.3278 26.9444 68.0215 27.1722C67.7152 27.3999 67.5945 27.7903 67.5156 28.3015L65.5154 41.0258C65.4365 41.5323 65.4319 41.9227 65.6686 42.2201C65.8867 42.5036 66.1884 42.6291 66.4668 42.643C66.6896 42.657 67.0376 42.643 67.33 42.4432C67.6456 42.2294 67.7848 41.8995 67.8637 41.3883L68.0029 40.5146C68.0818 39.9987 68.3232 39.4225 69.2003 39.4225C70.0774 39.4225 70.3188 39.9987 70.3977 40.5146L70.5369 41.3883C70.6158 41.8948 70.755 42.2248 71.0706 42.4432C71.3676 42.643 71.711 42.6523 71.9338 42.643C72.2122 42.6245 72.5139 42.499 72.732 42.2201C72.9687 41.9181 72.9641 41.5323 72.8852 41.0258ZM69.8454 36.6387C69.7062 36.8293 69.4695 36.9501 69.2049 36.9501C68.9404 36.9501 68.7037 36.8293 68.5645 36.6387C68.4021 36.4157 68.3603 36.1043 68.3603 35.8394C68.3603 35.4862 68.416 34.8542 68.6109 34.2733C68.7408 33.8922 68.9126 33.5204 69.2049 33.5204C69.4973 33.5204 69.6737 33.8922 69.799 34.2733C69.9985 34.8542 70.0496 35.4862 70.0496 35.8394C70.0496 36.1089 70.0078 36.4157 69.8454 36.6387Z" fill="white"/>
<path d="M47.2442 27.2054C46.9843 26.9591 46.6966 26.8894 46.4182 26.8894C46.1397 26.8894 45.852 26.9591 45.5921 27.2054C45.3136 27.4657 45.2301 27.8142 45.2301 28.3301V30.6445C45.2301 30.8722 45.193 31.3415 44.766 31.3415C44.339 31.3415 44.2091 30.663 44.0699 30.1611C43.9353 29.6592 43.6661 28.595 43.5454 28.1256C43.4758 27.8468 43.3366 27.4657 43.0349 27.1961C42.8493 27.0381 42.5523 26.8848 42.1392 26.8848C41.8608 26.8848 41.5731 26.9545 41.3132 27.2008C41.0347 27.461 40.9512 27.8096 40.9512 28.3254V41.2031C40.9512 41.719 41.0347 42.0675 41.3132 42.3278C41.5731 42.5741 41.8608 42.6438 42.1392 42.6438C42.4177 42.6438 42.7054 42.5741 42.9653 42.3278C43.2438 42.0675 43.3273 41.719 43.3273 41.2031V38.8888C43.3273 38.6611 43.3644 38.1917 43.7914 38.1917C44.2184 38.1917 44.3483 38.8702 44.4875 39.3721C44.6221 39.874 44.8913 40.9382 45.012 41.4076C45.0816 41.6864 45.2208 42.0675 45.5225 42.3371C45.7081 42.4951 46.0051 42.6484 46.4182 42.6484C46.6966 42.6484 46.9843 42.5787 47.2442 42.3324C47.5227 42.0722 47.6062 41.7236 47.6062 41.2078V28.3301C47.6062 27.8142 47.5227 27.4657 47.2442 27.2054Z" fill="white"/>
<path d="M80.3522 27.498C79.7489 27.1495 79.2105 26.9729 78.2823 26.9125C77.9296 26.8892 77.4841 26.8799 77.1175 26.9078C76.8204 26.9311 76.3146 26.9682 75.9433 27.3354C75.6231 27.6514 75.5117 28.0743 75.5117 28.5855V40.952C75.5117 41.4678 75.6231 41.8907 75.9433 42.2021C76.3146 42.5646 76.8204 42.6064 77.1175 42.6297C77.4841 42.6575 77.9296 42.6483 78.2823 42.625C79.2059 42.56 79.7442 42.388 80.3522 42.0395C81.1179 41.598 82.0322 40.6406 82.0322 38.6005V30.9417C82.0322 28.9015 81.1179 27.9442 80.3522 27.5027V27.498ZM79.656 38.5958C79.656 39.3115 79.5075 39.6554 79.3544 39.818C79.1177 40.0736 78.8625 40.1619 78.5283 40.1155C78.0874 40.055 77.8879 39.7297 77.8879 39.3254V30.2074C77.8879 29.7984 78.0828 29.4731 78.5283 29.4174C78.8578 29.3755 79.1131 29.4638 79.3544 29.7148C79.5075 29.8775 79.656 30.2213 79.656 30.937V38.5958Z" fill="white"/>
<path d="M89.0725 40.2737H88.1675C87.2161 40.2737 86.9933 39.9762 86.9933 39.0979V37.1321C86.9933 36.2537 87.2161 35.9563 88.1675 35.9563H88.613C89.1281 35.9563 89.4762 35.8727 89.7361 35.5938C89.9821 35.3336 90.0517 35.0454 90.0517 34.7666C90.0517 34.4878 89.9821 34.1996 89.7361 33.9394C89.4762 33.6606 89.1281 33.5769 88.613 33.5769H88.1675C87.2161 33.5769 86.9933 33.2795 86.9933 32.4011V30.44C86.9933 29.5616 87.2161 29.2642 88.1675 29.2642H89.0725C89.5876 29.2642 89.9357 29.1805 90.1956 28.9017C90.4415 28.6415 90.5111 28.3533 90.5111 28.0745C90.5111 27.7957 90.4415 27.5075 90.1956 27.2473C89.9357 26.9684 89.5876 26.8848 89.0725 26.8848H85.8053C85.5268 26.8848 85.2391 26.9545 84.9792 27.2008C84.7007 27.461 84.6172 27.8096 84.6172 28.3254V41.2078C84.6172 41.7236 84.7007 42.0722 84.9792 42.3324C85.2391 42.5787 85.5268 42.6484 85.8053 42.6484H89.0725C89.5876 42.6484 89.9357 42.5648 90.1956 42.286C90.4415 42.0257 90.5111 41.7376 90.5111 41.4587C90.5111 41.1799 90.4415 40.8918 90.1956 40.6315C89.9357 40.3527 89.5876 40.269 89.0725 40.269V40.2737Z" fill="white"/>
<path d="M99.6357 31.4719C99.4454 31.2953 99.2366 31.2441 99.037 31.2441C98.8375 31.2441 98.6286 31.2953 98.4384 31.4719C98.2342 31.6624 98.1738 31.9134 98.1738 32.2898V41.6541C98.1738 42.0259 98.2342 42.2815 98.4384 42.472C98.6286 42.6486 98.8375 42.6998 99.037 42.6998C99.2366 42.6998 99.4454 42.6486 99.6357 42.472C99.8399 42.2815 99.9002 42.0305 99.9002 41.6541V32.2898C99.9002 31.918 99.8399 31.6624 99.6357 31.4719Z" fill="white"/>
<path d="M106.374 34.5074C106.202 34.3401 105.947 34.1635 105.585 34.0473C105.306 33.9544 104.958 33.9033 104.55 33.9823C104.239 34.0427 103.956 34.1728 103.649 34.2333C103.389 34.2797 103.13 34.2332 103.014 34.2007C102.879 34.1635 102.707 34.1356 102.619 34.1356C102.415 34.1356 102.211 34.1868 102.02 34.3634C101.816 34.5539 101.756 34.8049 101.756 35.1813V41.655C101.756 42.0268 101.816 42.2824 102.02 42.4729C102.211 42.6495 102.42 42.7006 102.619 42.7006C102.819 42.7006 103.027 42.6495 103.218 42.4729C103.422 42.2824 103.482 42.0314 103.482 41.655V36.7335C103.482 36.4314 103.505 36.1572 103.77 35.8598C103.951 35.6507 104.35 35.5484 104.74 35.6646C105.185 35.7994 105.302 36.2084 105.302 36.5383V41.655C105.302 42.0268 105.362 42.2824 105.566 42.4729C105.756 42.6495 105.965 42.7006 106.165 42.7006C106.364 42.7006 106.573 42.6495 106.763 42.4729C106.968 42.2824 107.028 42.0314 107.028 41.655V36.1572C107.028 35.4973 106.796 34.9164 106.374 34.5121V34.5074Z" fill="white"/>
<path d="M116.029 42.6388C116.56 42.6388 116.99 42.2081 116.99 41.6768C116.99 41.1455 116.56 40.7148 116.029 40.7148C115.498 40.7148 115.068 41.1455 115.068 41.6768C115.068 42.2081 115.498 42.6388 116.029 42.6388Z" fill="white"/>
<path d="M112.874 39.4026C112.637 39.4026 112.428 39.4816 112.298 39.6442C112.201 39.7651 112.173 39.8905 112.131 40.0718C112.08 40.3181 112.01 40.6109 111.885 40.7782C111.778 40.9176 111.625 41.0384 111.379 41.0524C111.124 41.0663 110.832 40.9873 110.664 40.4668C110.539 40.0857 110.534 39.4723 110.534 39.0726V37.9015C110.534 37.5018 110.539 36.8884 110.664 36.5073C110.832 35.9915 111.124 35.9078 111.379 35.9217C111.625 35.9357 111.778 36.0565 111.885 36.1959C112.015 36.3632 112.08 36.656 112.131 36.9023C112.168 37.0882 112.201 37.2137 112.298 37.3299C112.428 37.4925 112.637 37.5715 112.874 37.5715C113.157 37.5715 113.393 37.4786 113.556 37.2927C113.718 37.1068 113.774 36.8605 113.727 36.4562C113.676 36.0147 113.519 35.6243 113.231 35.2339C112.892 34.7739 112.228 34.2812 111.374 34.2812C110.261 34.2812 109.425 34.9179 109.082 36.0286C108.947 36.4655 108.878 36.9906 108.873 37.6784C108.873 37.8969 108.873 39.0819 108.873 39.3003C108.882 39.9881 108.947 40.5086 109.082 40.9501C109.425 42.0608 110.261 42.6975 111.374 42.6975C112.228 42.6975 112.892 42.2049 113.231 41.7448C113.519 41.3544 113.676 40.9641 113.727 40.5226C113.774 40.1183 113.718 39.872 113.556 39.6861C113.393 39.5002 113.157 39.4026 112.874 39.4072V39.4026Z" fill="white"/>
</svg>
