<svg width="117" height="70" viewBox="0 0 117 70" fill="none" xmlns="http://www.w3.org/2000/svg">
<g clip-path="url(#clip0_197_5322)">
<path d="M33.9231 28.2988C33.1111 28.2988 32.5156 28.9396 32.5156 29.7406C32.5156 30.4883 33.1652 31.1291 33.9231 31.1291C34.7351 31.1291 35.3306 30.4883 35.3306 29.7406C35.3847 28.9396 34.7351 28.2988 33.9231 28.2988Z" fill="white"/>
<path d="M30.8363 28.3511C30.0785 28.1909 29.3206 28.6715 29.1582 29.4191C28.9958 30.1667 29.483 30.9144 30.2409 31.0746C30.3491 31.0746 30.4574 31.128 30.5657 31.128C31.3777 31.128 31.9731 30.4871 31.9731 29.7395C31.9731 29.0453 31.4859 28.5113 30.8363 28.3511Z" fill="white"/>
<path d="M19.3066 28.4043V39.4582H22.0133V35.0794H24.7742V39.4582H27.4808V28.4043H24.72V32.5695H22.0133V28.4043H19.3066Z" fill="white"/>
<path d="M76.5811 29.0985C75.715 28.6179 74.7947 28.4043 73.8203 28.4043H70.1934V39.4582H73.4955C73.4955 39.4582 75.6067 39.3514 76.5811 38.7106C76.5811 38.7106 78.8006 37.7494 78.8548 33.7978C78.8548 33.7978 78.9089 30.3801 76.5811 29.0985ZM75.1195 36.4144C74.7947 36.7348 74.3075 36.9484 73.8203 37.0018H73.1166V30.8607H73.8745C74.3075 30.8607 74.6865 31.0209 75.0113 31.2879C75.9857 31.8753 75.9857 33.8512 75.9857 33.9046C75.9315 35.7736 75.1195 36.4144 75.1195 36.4144Z" fill="white"/>
<path d="M62.9386 31.8223C62.3973 31.8757 61.856 32.1427 61.4229 32.4631L61.3146 31.9825H59.041V39.4586H61.5312V34.9195C61.5853 34.3855 61.7477 34.1185 62.3432 34.1185H62.4514C62.8845 34.1719 63.2635 34.4923 63.2635 34.9195V39.4586H65.6995V34.0651C65.6453 33.2641 65.2123 32.5165 64.5085 32.1427C64.1296 31.9291 63.6965 31.8223 63.2635 31.8223C63.2093 31.8223 63.0469 31.8223 62.9386 31.8223Z" fill="white"/>
<path d="M95.365 31.877C94.553 31.877 93.7951 32.1974 93.2537 32.7314C92.6041 33.479 92.3876 34.4936 92.7665 35.4014C93.2537 36.149 94.0116 36.6296 94.8778 36.7364C95.9063 36.8966 95.8522 37.2704 95.8522 37.2704C95.798 37.6976 94.9319 37.6976 94.7695 37.6976C94.1199 37.6442 93.4703 37.4306 92.8748 37.1636V39.2462C93.4161 39.4599 93.9575 39.5667 94.4988 39.6201C94.7154 39.6735 94.9319 39.6735 95.1484 39.6735C95.9063 39.7269 96.7183 39.5133 97.3679 39.1394C98.1258 38.7122 98.613 37.8578 98.613 37.0034C98.6671 36.416 98.4506 35.882 98.0717 35.4548C97.4762 34.9742 96.7724 34.6538 96.0146 34.6538C95.2026 34.6004 95.2567 34.3334 95.2567 34.3334C95.2567 33.8528 95.9604 33.8528 96.0687 33.8528H96.4476C96.989 33.8528 97.5844 33.9596 98.0717 34.2266V32.3042C97.3138 32.0372 96.5018 31.877 95.6898 31.877H95.365Z" fill="white"/>
<path d="M86.8669 31.9824V34.1184H89.1405L86.6504 39.4585H92.4968V37.4293H90.4398L92.9299 31.9824H86.8669Z" fill="white"/>
<path d="M56.0635 37.482C55.5221 37.5354 55.0349 37.3218 54.7101 36.948L58.7702 35.5061C58.7702 34.7585 58.6078 34.0109 58.2288 33.3701C57.6333 32.2487 56.4424 31.6079 55.1432 31.6613C54.8184 31.6613 54.5477 31.7147 54.2229 31.7681C52.8696 32.1419 51.8952 33.1565 51.5704 34.4915C51.3538 35.9868 51.5704 37.482 52.7613 38.55C53.5733 39.1908 54.6019 39.5646 55.6845 39.5112C56.5507 39.5112 57.4168 39.2976 58.1747 38.9238V36.948L57.5251 37.2684C57.0379 37.3752 56.5507 37.482 56.0635 37.482ZM54.0064 34.7585C54.0064 34.1711 54.4936 33.6905 55.0891 33.6905C55.5221 33.6905 55.9552 34.0109 56.0635 34.4381L54.0605 35.1323C54.0605 34.9721 54.0064 34.8653 54.0064 34.7585Z" fill="white"/>
<path d="M69.2742 33.8516H66.6758V36.2546H69.2742V33.8516Z" fill="white"/>
<path d="M48.6477 31.8744L48.5936 32.355C48.1605 31.9812 47.565 31.7676 46.9696 31.7676C46.4282 31.7676 45.941 31.8744 45.4538 32.1414C44.1005 32.9424 43.6133 34.3842 43.6133 35.826C43.6133 37.2678 44.2629 38.8165 45.7245 39.3505C46.0493 39.4573 46.4282 39.5641 46.8072 39.5641C47.4026 39.5641 47.9981 39.4039 48.4853 39.0835C48.5936 39.5107 48.4853 39.9913 48.2147 40.3651C47.7816 40.6855 47.2944 40.8991 46.753 40.8991C46.1034 40.8991 45.3997 40.7389 44.8042 40.4719V42.6079C45.5621 42.8749 46.4282 43.0351 47.2402 43.0351C48.2147 43.0885 49.1349 42.8215 49.9469 42.2875C50.7589 41.5933 51.192 40.5787 51.192 39.5641V31.8744H48.6477ZM48.6477 35.6658C48.6477 37.1076 47.6733 37.161 47.5651 37.161C46.2117 37.161 46.3741 35.6658 46.3741 35.6658C46.3741 34.224 47.3485 34.1706 47.5109 34.1706C48.8101 34.224 48.6477 35.6658 48.6477 35.6658Z" fill="white"/>
<path d="M32.8938 31.9821L32.8397 32.4627C32.4066 32.0355 31.8112 31.8219 31.2157 31.8753C30.7826 31.8753 30.2954 31.9821 29.9165 32.1423C28.4549 32.8899 27.8594 34.4385 27.9135 36.0405C27.9677 37.3755 28.509 38.7639 29.8082 39.3513C30.2413 39.5115 30.6743 39.6183 31.1074 39.6183C31.757 39.6183 32.4066 39.4047 32.948 38.9775L33.0021 39.4047H35.3299V31.9821H32.8938ZM32.8938 35.7735C32.8938 37.2153 31.9194 37.2687 31.8112 37.2687C30.5119 37.2687 30.6202 35.7735 30.6202 35.7735C30.6202 34.3317 31.5946 34.2783 31.757 34.2783C33.0562 34.3317 32.8938 35.7735 32.8938 35.7735Z" fill="white"/>
<path d="M40.798 31.9821L40.6897 32.4627C40.2566 32.0355 39.6612 31.8219 39.0657 31.8753C38.6326 31.8753 38.1454 31.9821 37.7665 32.1423C36.3049 32.8899 35.6553 34.4385 35.7635 36.0405C35.8177 37.3755 36.359 38.7639 37.6582 39.3513C38.0913 39.5115 38.5244 39.6183 38.9574 39.6183C39.607 39.6183 40.3108 39.4047 40.798 38.9775L40.8521 39.4047H43.234V31.9821H40.798ZM40.7438 35.7735C40.7438 37.2153 39.7694 37.2687 39.6612 37.2687C38.362 37.2687 38.4702 35.7735 38.4702 35.7735C38.4702 34.3317 39.4446 34.2783 39.607 34.2783C40.9062 34.3317 40.7438 35.7735 40.7438 35.7735Z" fill="white"/>
<path d="M83.9978 31.9821L83.9436 32.4627C83.5105 32.0355 82.9151 31.8219 82.3196 31.8753C81.8865 31.8753 81.3993 31.9821 81.0204 32.1423C79.5588 32.8899 78.9092 34.4385 79.0174 36.0405C79.0716 37.3755 79.6129 38.7639 80.9121 39.3513C81.3452 39.5115 81.7783 39.6183 82.2113 39.6183C82.8609 39.6183 83.5105 39.4047 84.0519 38.9775L84.106 39.4047H86.4879V31.9287H83.9978V31.9821ZM83.9436 35.7735C83.9436 37.2153 82.9692 37.2687 82.8609 37.2687C81.5617 37.2687 81.67 35.7735 81.67 35.7735C81.67 34.3317 82.6444 34.2783 82.8068 34.2783C84.106 34.3317 83.9436 35.7735 83.9436 35.7735Z" fill="white"/>
<path d="M94.5547 40.5801V40.7937H95.1502V42.3423H95.4208V40.7937H96.0163V40.5801H94.5547Z" fill="white"/>
<path d="M96.2327 40.5801V42.3423H96.4492V40.9005L96.9905 42.3423H97.2071L97.6943 40.8471V42.3423H97.9108V40.5801H97.586L97.0988 42.0753L96.5575 40.5801H96.2327Z" fill="white"/>
<path d="M108.899 32.5163C108.791 31.1813 108.141 29.9531 107.113 29.1521L106.95 28.9919L106.734 28.8316C106.301 28.5112 105.868 28.1908 105.381 27.9772C104.569 25.3606 103.486 23.5984 99.8589 22.8508L99.5341 22.7974H99.3717L99.3175 22.744L99.0469 22.3702C98.7762 21.9964 98.5055 21.6226 98.1807 21.3022L98.1266 21.2487L98.0725 21.1953C97.2605 20.3409 96.2319 19.7001 95.0951 19.3797C94.7703 19.2729 94.4455 19.2195 94.1207 19.2195C93.7418 19.1661 93.3628 19.1661 92.9839 19.1661C92.605 19.1661 92.1719 19.1661 91.7929 19.2195C91.3599 18.7923 90.9268 18.3651 90.4937 17.9913C89.2487 16.9233 87.6788 16.3359 86.0006 16.3893C85.2969 16.3893 84.5932 16.4427 83.8894 16.6029C83.1857 15.9621 82.3195 15.4815 81.3993 15.1611C81.1827 15.0543 80.9662 15.0009 80.6955 14.9475C80.3707 14.8407 80.0459 14.7873 79.7211 14.7339C79.3422 14.6805 78.9091 14.6805 78.5302 14.6805C77.6099 14.6805 76.6355 14.7873 75.7152 15.0009C74.3619 13.9863 72.6837 13.3988 71.0056 13.3988C70.1936 13.3988 69.3274 13.5591 68.6237 13.8795C67.7575 14.2533 66.9997 14.7339 66.2418 15.1077C64.6178 15.9621 63.2103 16.7097 61.6946 16.7097H61.5863C60.8284 16.7097 60.1247 16.5495 59.4209 16.2291C59.5292 16.1223 59.6375 15.9621 59.7457 15.8553C59.9081 15.6417 60.0164 15.3747 60.1788 15.1077C60.233 14.9475 60.3412 14.7339 60.3954 14.5737C60.4495 14.4135 60.4495 14.1999 60.4495 14.0397C60.5036 12.9182 59.5833 12.0104 58.4465 11.957H58.3924C57.8511 11.957 57.2556 12.1706 56.8767 12.5978C56.5519 12.9716 56.3895 13.4523 56.3895 13.9863C56.3895 14.1999 56.4436 14.4135 56.4977 14.5737C56.5519 14.7339 56.606 14.9475 56.7143 15.1077C56.8225 15.3747 56.9849 15.5883 57.1473 15.8553C57.2556 16.0155 57.3639 16.1223 57.4721 16.2825C56.7684 16.6029 56.0646 16.7631 55.3068 16.7631C53.791 16.7631 52.3836 16.0155 50.7595 15.1611C50.0017 14.7339 49.1897 14.3067 48.3777 13.9329C47.5656 13.5591 46.6995 13.3988 45.8334 13.3988C44.2093 13.3988 42.5853 13.9329 41.3403 14.8941L40.8531 14.7873C39.9869 14.5737 39.0666 14.4669 38.2005 14.4669H38.1464C37.3344 14.4669 36.5224 14.6271 35.7645 14.8941C35.5479 14.9475 35.3314 15.1077 35.169 15.1611C35.0607 15.2145 34.9525 15.2679 34.7901 15.3747C34.5194 15.5349 34.2487 15.6951 33.9781 15.9087C33.6533 16.1223 33.3285 16.3893 33.0037 16.6563C32.5706 16.5495 32.1917 16.4961 31.8127 16.4961C31.4879 16.4427 31.1631 16.4427 30.8383 16.4427C28.5106 16.4427 26.9407 17.4573 25.1543 19.2729C24.7212 19.2195 24.234 19.2195 23.8009 19.2195H23.855C23.0972 19.2195 22.2852 19.3263 21.5814 19.5933C21.3649 19.6467 21.1484 19.7535 20.986 19.8603C19.6867 20.5011 18.7665 21.5692 17.7379 22.9576C15.7891 23.278 14.4899 23.812 13.6238 24.6664C13.4614 24.8266 13.299 24.9868 13.1366 25.2004C13.0824 25.2538 13.0283 25.3606 12.9742 25.414C12.8118 25.6276 12.7035 25.8412 12.5952 26.0548C12.3246 26.5888 12.0539 27.1762 11.8915 27.7636C11.8373 27.8704 11.7832 27.9772 11.7832 28.1374C11.4043 28.351 11.0253 28.5646 10.7005 28.7782C9.18479 29.5793 8.15625 31.0211 8.15625 32.5163C8.15625 33.6377 8.80586 34.7591 9.07652 35.4533C8.64345 36.0941 8.37279 36.8417 8.26452 37.5894C8.21038 37.9098 8.21038 38.2302 8.21038 38.604C8.21038 38.8176 8.26452 39.0312 8.31865 39.2448C8.64345 40.74 9.94266 42.0216 11.6749 42.9294C11.7291 43.0896 11.7832 43.2498 11.8373 43.3566C11.8915 43.4634 11.8915 43.5702 11.9456 43.677C12.0539 43.944 12.1622 44.211 12.2704 44.478C13.2448 46.5073 14.6523 47.6821 17.7379 48.2161C18.4417 49.2307 19.3078 50.0851 20.3364 50.7793C20.4988 50.8861 20.7153 50.9929 20.9318 51.0997C21.419 51.3667 21.9604 51.5269 22.5017 51.6871L22.8806 51.7405C23.3137 51.7939 23.8009 51.8473 24.234 51.8473C24.5588 51.8473 24.9377 51.8473 25.2625 51.7939L25.3708 51.9007C25.4249 51.9541 25.5332 52.0609 25.5873 52.1143C27.2113 53.663 28.8354 54.5708 31.0548 54.5708C31.7586 54.5708 32.4082 54.5174 33.1119 54.3572C33.3285 54.5174 33.545 54.731 33.7615 54.8378C33.9781 54.9446 34.1405 55.1048 34.357 55.2116C35.7103 55.9058 37.2802 56.2262 38.796 56.2262C39.6621 56.2262 40.4741 56.1194 41.3403 55.9592C42.4771 56.867 44.48 57.4544 46.2664 57.4544C47.0243 57.4544 47.728 57.3476 48.4318 57.0272C51.0843 55.799 53.1414 54.1436 55.3609 54.1436H55.415C56.1729 54.1436 56.8767 54.3038 57.5804 54.6242C57.4721 54.731 57.3639 54.8912 57.2556 54.998C56.9849 55.3718 56.7684 55.8524 56.606 56.2796C56.5519 56.4932 56.4977 56.6534 56.4977 56.867C56.4977 57.3476 56.6601 57.8282 56.9849 58.2554C57.3639 58.6826 57.9052 58.8962 58.4465 58.8962H58.5007C59.6375 58.8962 60.5578 57.9884 60.5036 56.867C60.5036 56.7068 60.5036 56.4932 60.4495 56.333C60.2871 55.8524 60.0706 55.4252 59.7999 55.0514C59.6916 54.8912 59.5833 54.7844 59.4751 54.6776C60.1247 54.3572 60.8826 54.197 61.6404 54.1436H61.6946C62.7231 54.197 63.6975 54.464 64.6178 54.9446C65.3757 55.265 66.1335 55.7456 66.9455 56.1728L67.2162 56.333C67.6493 56.6 68.1365 56.8136 68.6237 57.0272C69.3816 57.3476 70.1394 57.5078 70.9514 57.5078C71.3304 57.5078 71.7093 57.4544 72.1424 57.401C73.2251 57.2408 74.3077 56.8136 75.228 56.2796L75.4987 56.1194L75.7693 55.9592C76.7438 56.1728 77.7182 56.2796 78.6926 56.333H78.7467C80.6955 56.3864 82.5361 55.6922 83.9435 54.4106C84.106 54.4106 84.2142 54.464 84.3766 54.464C84.918 54.5708 85.4052 54.5708 85.9465 54.5708H86.3796C88.8156 54.464 90.4396 53.2358 91.8471 51.7939C92.226 51.8473 92.605 51.8473 92.9839 51.8473C93.4711 51.8473 94.0124 51.7939 94.4996 51.7405C94.662 51.6871 94.8244 51.6871 94.9868 51.6337C95.9612 51.3667 96.8274 50.8861 97.5853 50.2453C98.2349 49.6579 98.8303 48.9637 99.3175 48.2161L99.4799 48.1627C99.6965 48.1093 99.9671 48.0559 100.13 48.0025L100.454 47.8957C100.942 47.7889 101.429 47.6287 101.862 47.4151C102.187 47.2549 102.511 47.0947 102.782 46.8811C104.135 45.9199 104.731 44.5848 105.272 42.9294C107.275 41.8614 108.683 40.3662 108.737 38.5506C108.791 37.4292 108.466 36.3611 107.871 35.3999C108.25 34.7591 108.899 33.6377 108.899 32.5163ZM58.4465 13.4523C58.5007 13.4523 58.5007 13.4523 58.5548 13.4523C59.042 13.5057 59.4209 13.9329 59.3668 14.4135C59.3668 14.4669 59.3668 14.5737 59.3127 14.6271C59.2585 14.7873 59.2044 14.8941 59.1503 15.0543C59.0961 15.2145 59.042 15.3213 58.9337 15.4281C58.8255 15.5349 58.7713 15.6417 58.6631 15.7485L58.5007 15.8553L58.3383 15.7485C58.23 15.6417 58.1217 15.5349 58.0676 15.4281C57.9593 15.3213 57.9052 15.1611 57.8511 15.0543C57.7969 14.8941 57.7428 14.7873 57.6887 14.6271C57.6345 14.5203 57.6345 14.4135 57.6345 14.3601C57.6345 13.8795 57.9593 13.5057 58.4465 13.4523ZM58.5548 57.401C58.0676 57.401 57.6887 57.0272 57.6887 56.5466C57.6887 56.4932 57.6887 56.4932 57.6887 56.4398C57.6887 56.333 57.6887 56.2262 57.7428 56.1728C57.7969 55.9058 57.9593 55.6388 58.1217 55.3718C58.1759 55.265 58.2841 55.1582 58.3924 55.0514L58.5548 54.8912L58.7172 54.998C58.8255 55.1048 58.9337 55.2116 58.9879 55.3184C59.1503 55.5854 59.2585 55.8524 59.3127 56.1194C59.3127 56.1728 59.3127 56.2796 59.3127 56.3864C59.4209 56.9204 59.042 57.3476 58.5548 57.401ZM104.731 41.7012L104.623 41.7546L104.569 41.8614C103.648 44.5848 102.999 46.0267 98.9927 46.7209L98.8303 46.7743L98.7221 46.8811C97.477 48.5365 96.286 50.2987 92.9839 50.2987C92.5508 50.2987 92.1177 50.2987 91.7388 50.2453H91.5223L91.3599 50.4055C89.79 51.9541 88.3284 53.0756 85.9465 53.0756C85.2969 53.0756 84.5932 52.9688 83.9435 52.862L83.727 52.8086L83.5646 52.9688C82.2654 54.197 80.5331 54.8912 78.7467 54.8378C77.7723 54.8378 76.7438 54.6776 75.7693 54.464L75.5528 54.4106L75.3904 54.5708C74.1453 55.532 72.6296 56.0126 71.1138 56.066H71.0597C70.4101 56.066 69.7064 55.9592 69.1109 55.6388C66.5666 54.5174 64.4554 52.7018 61.7487 52.7018C60.666 52.7018 59.5833 53.0222 58.6089 53.5562C57.6345 53.0222 56.606 52.7552 55.4692 52.7018C52.7625 52.7018 50.6513 54.464 48.107 55.6388C47.5656 55.8524 46.916 55.9592 46.3206 55.9592H46.2664C44.5883 55.9592 42.5853 55.3184 41.8275 54.5174L41.6651 54.3572L41.4485 54.4106C40.6365 54.6242 39.7704 54.6776 38.9042 54.6776C37.0096 54.731 35.1149 54.0902 33.6533 52.9154L33.4909 52.7552L33.2743 52.8086C32.5706 52.9688 31.921 53.0222 31.2172 53.0222C29.106 53.0222 27.6985 52.1677 25.9121 50.3521L25.7497 50.1919H25.4791C25.1001 50.2453 24.7212 50.2453 24.2881 50.2453C21.6897 50.2453 20.0657 49.0171 18.3875 46.8277L18.2793 46.7209H18.1169C14.4899 46.0801 13.5696 44.8519 12.5411 41.8614V41.7546L12.3787 41.7012C12.1621 41.5944 11.9997 41.4876 11.7832 41.3808C10.2133 40.473 9.40133 39.2982 9.40133 37.9098C9.40133 37.0554 9.672 36.2009 10.1051 35.5067L10.1592 35.3465L10.1051 35.2397C9.672 34.5455 9.40133 33.6911 9.40133 32.8901C9.40133 31.4483 10.2675 30.2735 11.7832 29.3657C11.9456 29.2589 12.1621 29.1521 12.3787 29.0452L12.5411 28.9919L12.5952 28.885C13.1366 27.3364 13.6238 26.2684 14.3816 25.5208C15.1395 24.7732 16.2763 24.2926 18.2251 23.9722L18.3875 23.9188L18.4958 23.812C20.2281 21.5158 21.3108 20.3409 24.0716 20.3409C24.5588 20.3409 25.046 20.3943 25.5332 20.4477L25.858 20.5011L26.0204 20.3409C27.8609 18.4719 29.1602 17.6175 31.2172 17.6175C31.921 17.6175 32.6789 17.7243 33.3826 17.8845L33.5991 17.9379L33.7615 17.7777C35.4938 16.1757 36.8472 15.7485 38.417 15.7485C39.4997 15.8019 40.5283 15.9621 41.6109 16.2291L41.8275 16.2825L41.9899 16.1223C42.4771 15.6951 43.0184 15.3747 43.6139 15.1611C44.3718 14.8407 45.2379 14.6805 46.0499 14.6805C46.8078 14.6805 47.5115 14.8407 48.2153 15.1077H48.2694C50.7595 16.2291 52.8708 17.9913 55.5774 17.9913C56.6601 17.9913 57.7428 17.6709 58.7172 17.1369C59.6916 17.6709 60.7202 17.9379 61.857 17.9913C64.5637 17.9913 66.6207 16.2291 69.165 15.1077H69.2192C69.8688 14.8407 70.5184 14.6805 71.2221 14.6805C72.0341 14.6805 72.792 14.8407 73.5499 15.1077C74.2536 15.3213 74.9032 15.6951 75.4987 16.1757L75.6611 16.3359L75.8776 16.2825C76.7979 16.0689 77.7723 15.9621 78.6926 15.9621C80.5331 15.9087 82.3195 16.5495 83.6729 17.8311L83.8353 17.9913L84.0518 17.9379C84.7556 17.7777 85.4593 17.7243 86.163 17.6709C88.8697 17.6709 90.1148 19.0059 91.414 20.3409L91.5764 20.5011L91.7929 20.4477C92.226 20.3943 92.6591 20.3943 93.0922 20.3409C96.5026 20.3409 97.5853 22.21 98.8303 23.812L98.9386 23.9188L99.101 23.9722C103.053 24.6664 103.757 26.0548 104.677 28.885L104.731 28.9919L104.839 29.0452C106.734 30.0065 107.817 31.2881 107.817 32.8901C107.762 33.7445 107.546 34.5455 107.113 35.2397L107.005 35.3465L107.113 35.5067C107.546 36.2543 107.817 37.0554 107.817 37.9098C107.762 39.4584 106.68 40.74 104.731 41.7012Z" fill="white"/>
</g>
<defs>
<clipPath id="clip0_197_5322">
<rect width="117" height="70" fill="white"/>
</clipPath>
</defs>
</svg>
