<svg width="117" height="70" viewBox="0 0 117 70" fill="none" xmlns="http://www.w3.org/2000/svg">
<path d="M38.4923 31.4422C35.9183 31.2127 33.6952 29.7209 32.5252 27.4258C29.7172 30.2946 26.3243 32.2455 22.4633 33.2782L22.8143 34.4258V48.311L21.6443 49.4586C19.0703 47.7373 17.1983 45.0979 16.6133 42.1143C15.9113 37.8684 17.7833 33.5077 21.4103 31.0979C22.5803 30.1799 23.8673 29.4914 25.2713 29.0323V28.4586C17.9003 28.4586 9.35925 35.1143 9.35925 42.8028C9.35925 50.4914 15.2093 54.852 22.9313 54.852C25.8563 54.852 28.7812 54.2782 31.4722 53.0159V54.852H31.2383C30.4193 54.7373 29.4833 55.1963 29.3663 56.1143C29.2493 57.0323 29.7173 57.8356 30.6533 57.9504C30.8873 57.9504 31.1213 57.9504 31.2383 57.9504C32.1743 58.0651 32.9932 57.3766 33.1102 56.4586V52.2127L34.3972 51.1799C34.6312 51.0651 34.6312 50.8356 34.5142 50.7209C34.3972 50.4914 34.1632 50.4914 34.0462 50.6061L32.9933 50.9504V33.0487C34.9823 33.2782 36.9713 32.7045 38.4923 31.4422ZM31.4722 51.1799C25.2713 51.8684 23.6333 50.4914 23.6333 50.4914L28.6643 46.2455V31.9012C28.6643 31.2127 31.3552 32.934 31.3552 32.934V51.1799H31.4722Z" fill="white"/>
<path d="M78.8574 16.5236C78.6234 16.4088 78.3894 16.4088 78.1554 16.5236C77.5704 16.9826 76.9854 17.3268 76.2834 17.4416C75.8154 17.4416 75.3474 17.6711 75.1134 18.0154L74.5284 18.4744C74.5284 18.4744 74.2944 18.7039 73.5924 18.8186C73.5924 18.8186 73.0074 19.1629 73.2414 19.3924C73.4754 19.7367 73.7094 20.0809 73.8264 20.4252C74.0604 21.2285 73.8264 22.0318 73.1244 22.6055C72.8904 22.835 72.4224 23.0645 72.0714 22.9498C71.8374 22.9498 71.6034 22.7203 71.6034 22.4908C71.6034 22.2613 71.7204 22.0318 71.8374 21.917C72.1884 21.5727 72.3054 20.999 71.9544 20.54L71.8374 20.4252C71.4864 20.3104 71.1354 20.3104 70.7844 20.4252C70.3164 20.54 70.0824 20.999 70.1994 21.458C70.1994 21.5727 70.3164 21.6875 70.4334 21.8023C70.4334 22.0318 70.4334 22.2613 70.4334 22.4908C70.3164 22.835 69.9654 22.9498 69.6144 22.835C68.9124 22.4908 68.5614 21.5727 68.7954 20.8842C69.0294 20.4252 69.3804 20.0809 69.8484 19.6219C69.4974 18.9334 68.9124 18.4744 68.2104 18.1301C67.5084 18.4744 66.9234 19.0482 66.5724 19.6219C66.9234 19.9662 67.1574 20.4252 67.3914 20.8842C67.5084 21.458 67.3914 22.1465 66.9234 22.6055C66.5724 22.835 66.1044 22.9498 65.7534 22.835C65.5194 22.4908 65.5194 22.1465 65.7534 21.8023C66.1044 21.3432 65.9874 20.7695 65.5194 20.54C65.1684 20.3105 64.7004 20.3105 64.4664 20.54C63.9984 20.8842 64.1154 21.3432 64.4664 21.8023C64.4664 22.0318 64.4664 22.1465 64.4664 22.376C64.1154 23.0645 63.6474 23.0645 62.9454 22.7203C62.1264 22.1465 62.0094 20.999 62.5944 20.1957C62.7114 19.9662 62.9454 19.8514 63.1794 19.7367C63.4134 19.6219 63.5304 19.2777 63.2964 19.0482C63.1794 18.8186 62.8284 18.7039 62.5944 18.9334C61.7754 18.7039 60.9564 18.2449 60.3714 17.5564C59.7864 16.5236 59.2014 16.5236 58.6164 17.5564C58.0314 18.2449 57.2124 18.7039 56.3934 18.9334C55.9254 18.9334 55.8084 19.3924 56.0424 19.7367C56.9784 20.3105 57.2124 21.3432 56.7444 22.2613C56.6274 22.4908 56.5104 22.6055 56.2764 22.7203C55.6914 22.9498 55.1064 23.0645 54.7554 22.376C54.6384 22.1465 54.6384 21.917 54.7554 21.8023C55.1064 21.2285 55.1064 20.7695 54.7554 20.54C54.4044 20.3105 53.9364 20.3105 53.5854 20.54C53.2344 20.8842 53.2344 21.458 53.5854 21.8023C53.8194 22.1465 53.8194 22.4908 53.5854 22.835C53.1174 23.0645 52.6494 22.9498 52.2984 22.6055C51.9474 22.1465 51.7134 21.458 51.8304 20.8842C52.0644 20.4252 52.2984 19.9662 52.6494 19.6219C52.2984 18.9334 51.7134 18.4744 51.0114 18.1301C50.3094 18.4744 49.8414 19.0482 49.3734 19.6219C49.7244 19.9662 50.0754 20.4252 50.4264 20.8842C50.6604 21.6875 50.3094 22.4908 49.6074 22.835C49.1394 22.835 48.9054 22.835 48.6714 22.4908C48.6714 22.2613 48.6714 22.1465 48.6714 21.917C49.0224 21.5727 49.0224 20.999 48.6714 20.6547C48.5544 20.54 48.4374 20.54 48.3204 20.4252C47.9694 20.1957 47.6184 20.1957 47.2674 20.4252C46.9164 20.7695 46.7994 21.458 47.2674 21.8023C47.5014 21.917 47.6184 22.1465 47.6184 22.376C47.6184 22.7203 47.3844 22.835 47.1504 22.835C46.7994 22.835 46.4484 22.7203 46.0974 22.4908C45.5124 21.917 45.1614 20.999 45.3954 20.1957C45.6294 19.8514 45.7464 19.5072 46.0974 19.2777C46.3314 19.0482 45.8634 18.8186 45.7464 18.7039C45.0444 18.7039 44.8104 18.4744 44.8104 18.3596L43.8744 18.0154C43.5234 17.6711 43.1724 17.5564 42.7044 17.4416C42.0024 17.3268 41.3004 16.9826 40.7154 16.5236C40.4814 16.4088 40.2474 16.4088 40.0134 16.5236C39.7794 16.7531 39.7794 16.9826 39.7794 17.2121C41.7684 18.9334 43.0554 21.1137 43.6404 23.6383H74.9964C75.4644 21.1137 76.7514 18.8186 78.7404 17.2121C78.9744 17.0973 78.9744 16.7531 78.8574 16.5236Z" fill="white"/>
<path d="M42.1201 16.0651C42.9391 16.2946 43.7581 16.5241 44.4601 16.9831C44.9281 17.0979 45.3961 16.9831 45.8641 16.7536C47.8531 15.1471 50.0761 13.9995 52.5331 13.311C52.8841 13.311 53.1181 13.311 53.0011 13.6553C51.9481 14.4585 51.2461 15.4913 50.8951 16.7536C50.8951 17.0979 51.1291 17.3274 51.7141 17.3274C52.0651 17.2126 52.4161 17.2126 52.7671 17.3274C53.1181 17.3274 53.4691 17.3274 53.7031 16.6389C54.0541 15.0323 55.1071 13.77 56.5111 13.0815C57.2131 13.0815 57.5641 13.311 57.4471 13.8848C56.8621 14.4585 56.5111 15.0323 56.2771 15.8356C56.2771 16.5241 56.6281 16.6389 57.2131 16.5241C57.7981 16.2946 57.7981 16.1798 58.0321 15.7208C58.3831 15.0323 59.3191 14.8028 60.0211 15.1471C60.2551 15.2618 60.4891 15.4913 60.6061 15.7208C60.8401 16.2946 61.0741 16.5241 61.4251 16.5241C61.7761 16.5241 62.3611 16.5241 62.4781 15.8356C62.2441 15.1471 61.8931 14.4585 61.3081 13.8848C61.3081 13.1962 61.5421 12.9667 62.2441 13.0815C63.7651 13.77 64.8181 15.1471 65.0521 16.7536C65.2861 17.3274 65.6371 17.4421 65.9881 17.4421C66.3391 17.3274 66.6901 17.3274 67.0411 17.4421C67.6261 17.4421 67.8601 17.4421 67.8601 16.8684C67.5091 15.6061 66.6901 14.5733 65.7541 13.77C65.7541 13.4257 65.7541 13.1962 66.2221 13.4257C68.6791 14.1143 70.9021 15.3766 72.8911 16.8684C73.2421 17.0979 73.8271 17.2126 74.2951 17.0979C74.9971 16.6389 75.8161 16.2946 76.7521 16.0651C77.3371 16.0651 77.4541 15.6061 77.3371 15.0323C76.9861 14.4585 76.2841 14.1143 75.5821 13.9995C75.3481 13.9995 74.9971 13.9995 74.7631 13.77C74.1781 12.9667 73.1251 12.5077 72.1891 12.852C71.6041 12.2782 70.7851 12.0487 69.9661 12.1635C69.3811 11.4749 68.4451 11.2454 67.5091 11.4749C66.8071 10.9012 65.8711 10.6717 64.9351 11.0159C63.8821 10.5569 62.7121 10.6717 61.7761 11.2454C61.5421 10.6717 61.0741 10.2126 60.4891 9.98313V9.17985H61.6591V8.03231H60.4891V6.88477H58.6171V8.03231H57.4471V9.17985H58.6171V9.98313C57.9151 10.2126 57.4471 10.6716 57.2131 11.3602C56.2771 10.7864 55.1071 10.6717 54.0541 11.1307C53.2351 10.7864 52.1821 10.9012 51.4801 11.5897C50.6611 11.3602 49.6081 11.5897 49.0231 12.2782C48.2041 12.1635 47.3851 12.393 46.9171 12.9667C45.9811 12.7372 44.9281 13.0815 44.3431 13.8848C44.1091 14.1143 43.8751 14.229 43.5241 14.1143C42.8221 14.1143 42.1201 14.5733 41.7691 15.1471C41.5351 15.7208 41.5351 16.0651 42.1201 16.0651ZM59.4361 10.5569C60.1381 10.6717 60.6061 11.2454 60.4891 11.9339C60.4891 12.7372 60.0211 13.311 59.4361 13.311C58.7341 13.1962 58.2661 12.6225 58.2661 11.9339C58.2661 11.2454 58.7341 10.6717 59.4361 10.5569Z" fill="white"/>
<path d="M43.5253 28.6892H74.9983V25.8203H43.5253V28.6892ZM71.7223 26.3941C72.1903 26.3941 72.5413 26.7383 72.5413 27.1974C72.5413 27.6564 72.1903 28.0006 71.7223 28.0006C71.2543 28.0006 70.9033 27.6564 70.9033 27.1974C70.7863 26.8531 71.1373 26.3941 71.7223 26.3941ZM65.6383 26.5088C66.1063 26.5088 66.4573 26.8531 66.4573 27.3121C66.4573 27.7711 66.1063 28.1154 65.6383 28.1154C65.1703 28.1154 64.8193 27.7711 64.8193 27.3121C64.8193 26.8531 65.1703 26.5088 65.6383 26.5088ZM59.4373 26.5088C59.9053 26.5088 60.2563 26.8531 60.2563 27.3121C60.2563 27.7711 59.9053 28.1154 59.4373 28.1154C58.9693 28.1154 58.5013 27.7711 58.5013 27.3121C58.5013 26.8531 58.9693 26.5088 59.4373 26.5088ZM53.1193 26.5088C53.5873 26.5088 53.9383 26.8531 53.9383 27.3121C53.9383 27.7711 53.5873 28.1154 53.1193 28.1154C52.6513 28.1154 52.3003 27.7711 52.3003 27.3121C52.3003 26.8531 52.6513 26.5088 53.1193 26.5088ZM46.9183 26.5088C47.3863 26.5088 47.7373 26.8531 47.7373 27.3121C47.7373 27.7711 47.3863 28.1154 46.9183 28.1154C46.4503 28.1154 46.0993 27.7711 46.0993 27.3121C46.0993 26.8531 46.4503 26.5088 46.9183 26.5088Z" fill="white"/>
<path d="M75.1133 24.3281H43.5233V25.1314H75.1133V24.3281Z" fill="white"/>
<path d="M46.4473 37.5246C46.4473 37.0656 47.1493 36.4918 47.1493 36.4918C44.9263 36.0328 42.8203 35.459 40.7143 34.541C38.9593 35.8033 36.9703 36.4918 34.8643 36.6066C34.8643 36.9509 35.4493 37.7541 35.4493 37.7541V46.8197C35.0983 47.0492 34.8643 47.3935 34.6303 47.7377C34.5133 47.8525 34.3963 48.082 34.2793 48.1968C36.9703 48.3115 39.5443 49.3443 41.4163 51.2951C43.0543 49.6886 45.1603 48.6558 47.5003 48.1968C47.0323 47.9672 46.7983 47.5082 46.6813 46.9345L46.4473 37.5246ZM42.3523 47.3935C39.6613 46.8197 39.1933 46.2459 39.1933 46.2459V37.0656C40.2463 37.4099 41.2993 37.7541 42.3523 38.2131V47.3935Z" fill="white"/>
<path d="M71.7222 37.5246C71.7222 37.0656 72.4242 36.4918 72.4242 36.4918C70.0842 36.1476 67.8612 35.459 65.7552 34.541C64.0002 35.8033 62.0112 36.4918 59.9052 36.6066C59.9052 36.9509 60.4902 37.7541 60.4902 37.7541V46.8197C60.1392 47.0492 59.9052 47.3935 59.6712 47.7377C59.5542 47.8525 59.4372 48.082 59.3202 48.1968C62.0112 48.3115 64.5852 49.3443 66.4572 51.2951C68.0952 49.6886 70.2012 48.6558 72.5412 48.1968C72.0732 47.9672 71.8392 47.5082 71.7222 46.9345V37.5246ZM67.6272 47.3935C64.9362 46.8197 64.4682 46.2459 64.4682 46.2459V37.0656C65.5212 37.4099 66.5742 37.7541 67.6272 38.2131V47.3935Z" fill="white"/>
<path d="M100.969 47.8525C100.267 47.7377 99.6824 47.2787 99.5654 46.5902V36.4918C96.6404 35.5738 93.7154 34.541 93.7154 34.541C91.9604 35.5738 90.0884 36.2623 88.0994 36.6066C88.0994 36.9509 88.6844 37.7541 88.6844 37.7541V46.9345L88.3334 47.3935L87.9824 47.8525C90.3224 48.3115 92.4284 49.459 94.1834 50.9508L96.5234 48.4263L99.2144 50.9508L102.373 47.8525L101.086 47.623M95.5874 47.3935C94.6514 46.7049 93.7154 46.2459 92.6624 45.7869V37.0656C93.5984 37.5246 94.6514 37.8689 95.5874 38.2131V47.3935Z" fill="white"/>
<path d="M54.9901 47.9672C53.5861 48.6558 52.4161 49.6886 51.5971 51.0656C50.7781 49.6886 49.6081 48.6558 48.2041 47.9672H49.4911V38.3279C49.3741 37.4099 48.6721 36.7213 47.7361 36.6066L51.1291 34.541C52.0651 35 52.8841 35.6886 53.7031 36.3771C53.7031 36.3771 53.3521 36.7213 56.0431 34.8853L56.5111 34.541C57.3301 35.459 58.3831 36.2623 59.6701 36.7213C59.3191 37.8689 58.1491 39.4754 54.6391 37.5246C54.6391 37.5246 53.8201 37.2951 53.8201 37.8689V47.9672H54.9901Z" fill="white"/>
<path d="M86.5816 36.6066C85.1776 36.0328 83.8906 35.2295 82.7206 34.541L82.2526 34.8853C79.4446 36.7213 78.8596 36.4918 78.8596 36.4918C78.0406 35.8033 77.2216 35.1148 76.2856 34.541L73.0096 36.4918C73.9456 36.6066 74.6476 37.2951 74.7646 38.2131V47.9672H73.4776C74.8816 48.6558 76.0516 49.6886 76.8706 51.0656C77.6896 49.6886 78.8596 48.6558 80.2636 47.9672H79.0936V38.2131L80.8486 37.1804L82.2526 38.2131V47.9672H80.9656C82.3696 48.6558 83.4226 49.6886 84.1246 51.0656C84.9436 49.6886 86.1136 48.6558 87.5176 47.9672H86.2306V37.8689C86.2306 37.8689 86.9326 36.7213 86.5816 36.6066Z" fill="white"/>
<path d="M103.66 51.6387C103.894 51.6387 104.011 51.4092 104.011 51.1797C104.011 50.9502 103.777 50.7207 103.309 50.7207H102.607V52.442H102.958V51.6387H103.192C103.426 51.8682 103.543 52.0978 103.66 52.3273H104.128C103.894 52.0978 103.777 51.7535 103.66 51.6387ZM103.309 51.2945H102.958V50.8355H103.309C103.309 50.8355 103.66 50.8355 103.66 51.065C103.66 51.2945 103.426 51.2945 103.309 51.2945Z" fill="white"/>
<path d="M101.672 51.4093C101.672 52.3273 102.491 53.0158 103.31 53.0158C104.246 53.0158 104.948 52.2126 104.948 51.4093C104.948 50.4913 104.129 49.8027 103.31 49.8027H103.193C102.257 49.8027 101.555 50.4913 101.555 51.4093M101.906 51.4093C102.023 50.7208 102.608 50.147 103.427 50.2617C104.129 50.3765 104.714 50.9503 104.597 51.7536C104.48 52.4421 103.895 52.9011 103.193 52.9011C102.491 52.9011 101.906 52.3273 101.906 51.6388" fill="white"/>
</svg>
