<svg width="117" height="70" viewBox="0 0 117 70" fill="none" xmlns="http://www.w3.org/2000/svg">
<g clip-path="url(#clip0_197_5475)">
<path d="M61.8271 18.9375L58.1779 25.1285L54.538 18.9375L53.6278 18.9467L57.5052 25.5175H50.2125L49.7539 26.2955H57.4958L53.6266 32.8675H54.5205L58.1779 26.6639L61.8049 32.8159L61.8342 32.8675H62.7409L58.8694 26.2955H66.148L66.6066 25.5175H58.86L62.7409 18.9467L61.8271 18.9375Z" fill="white"/>
<path d="M12.6399 41.7024H11.2768L10.0004 48.9101L9.97461 49.0512H10.4508L11.0651 45.5673H12.1485C12.4397 45.5698 12.7283 45.5139 12.9967 45.4032C13.2528 45.2952 13.4831 45.1362 13.673 44.9361C13.867 44.7279 14.018 44.4847 14.1176 44.2201C14.2288 43.9213 14.2835 43.6051 14.279 43.2871C14.2965 43.0662 14.2635 42.8443 14.1825 42.6375C14.1016 42.4306 13.9747 42.2441 13.811 42.0914C13.483 41.8252 13.0665 41.6867 12.641 41.7024M12.1602 45.1255H11.1493L11.6699 42.1419H12.6212C12.9408 42.1232 13.2554 42.2269 13.4987 42.431C13.6088 42.5472 13.6932 42.6844 13.7466 42.8341C13.8 42.9838 13.8211 43.1428 13.8087 43.3009C13.813 43.5672 13.7691 43.8322 13.6788 44.0835C13.6019 44.2958 13.4826 44.4908 13.3278 44.6573C13.1823 44.8077 13.005 44.9252 12.8083 45.0015C12.6018 45.0839 12.3808 45.1256 12.1578 45.1243" fill="white"/>
<path d="M15.8333 42.6974C15.8878 42.6977 15.9418 42.6855 15.9907 42.6618C16.0396 42.6381 16.0823 42.6036 16.1152 42.5609C16.181 42.4759 16.2152 42.3714 16.2123 42.2648C16.2151 42.1832 16.1913 42.1028 16.1445 42.0353C16.116 41.997 16.0781 41.9664 16.0343 41.9464C15.9905 41.9263 15.9423 41.9174 15.8941 41.9205C15.8357 41.9191 15.7779 41.9328 15.7266 41.9602C15.6752 41.9876 15.6321 42.0277 15.6016 42.0766C15.5456 42.158 15.5155 42.2538 15.515 42.352C15.5084 42.396 15.5118 42.4408 15.525 42.4833C15.5381 42.5259 15.5607 42.565 15.5912 42.5979C15.6216 42.6308 15.6591 42.6567 15.7009 42.6737C15.7428 42.6908 15.788 42.6996 15.8333 42.6974Z" fill="white"/>
<path d="M14.4785 49.0526H14.9547L15.8579 43.9609H15.3817L14.4785 49.0526Z" fill="white"/>
<path d="M19.5026 43.9609L18.1957 45.9221L17.551 43.9609H17.0549L17.8681 46.3421L15.9961 49.0514H16.5612L18.0647 46.816L18.8111 49.0514H19.3189L18.3923 46.4121L20.0735 43.9644L19.5026 43.9609Z" fill="white"/>
<path d="M20.3867 49.0526H20.8629L21.7661 43.9609H21.2853L20.3867 49.0526Z" fill="white"/>
<path d="M21.8015 41.9283C21.7431 41.9271 21.6854 41.9409 21.6341 41.9683C21.5828 41.9956 21.5397 42.0357 21.509 42.0844C21.4532 42.1662 21.4235 42.2625 21.4236 42.3609C21.4168 42.4048 21.42 42.4497 21.433 42.4922C21.446 42.5347 21.4685 42.5739 21.4989 42.6068C21.5292 42.6398 21.5667 42.6657 21.6085 42.6827C21.6503 42.6997 21.6954 42.7074 21.7407 42.7052C21.7952 42.7055 21.8492 42.6933 21.8981 42.6696C21.9471 42.6459 21.9897 42.6113 22.0226 42.5686C22.0895 42.4842 22.1243 42.3795 22.1209 42.2726C22.1237 42.1909 22.0999 42.1105 22.053 42.0431C22.0245 42.0049 21.9866 41.9743 21.9428 41.9543C21.8991 41.9342 21.8509 41.9253 21.8027 41.9283" fill="white"/>
<path d="M25.7771 44.3259C25.6795 44.1677 25.5426 44.0363 25.3793 43.9438C25.1887 43.8432 24.9743 43.7941 24.7581 43.8015C24.3941 43.7977 24.0431 43.9336 23.7799 44.1802C23.5032 44.4384 23.2783 44.7451 23.1165 45.0845C22.9369 45.4531 22.804 45.8419 22.7211 46.2423C22.6379 46.6195 22.594 47.004 22.59 47.3899C22.5614 47.8591 22.6842 48.3253 22.941 48.7222C23.0666 48.8865 23.2317 49.0177 23.4215 49.1042C23.6114 49.1907 23.8201 49.2298 24.0291 49.2179C24.3554 49.2237 24.6729 49.1136 24.923 48.9081C25.1606 48.7137 25.359 48.4774 25.508 48.2115L25.5618 48.1151L25.1933 47.8672L25.1278 47.982C25.0085 48.1995 24.8499 48.3939 24.6598 48.5558C24.4882 48.6997 24.2688 48.7768 24.0432 48.7727C23.9029 48.7796 23.7631 48.7511 23.6373 48.6898C23.5115 48.6285 23.4039 48.5365 23.3248 48.4227C23.1322 48.1126 23.04 47.7524 23.0604 47.3899C23.0606 47.24 23.0692 47.0902 23.0861 46.9412C23.099 46.8195 23.1177 46.6968 23.1411 46.5774H25.8953L25.914 46.4799C25.9479 46.3031 25.9784 46.1218 26.0029 45.9348C26.0242 45.7826 26.0363 45.6293 26.0392 45.4758C26.0398 45.272 26.0202 45.0687 25.9807 44.8687C25.9445 44.6796 25.8748 44.4983 25.7748 44.3328M24.7381 44.2307C24.87 44.2266 25.0006 44.2576 25.1161 44.3202C25.2209 44.3802 25.3083 44.4656 25.3699 44.5681C25.4427 44.6905 25.493 44.8245 25.5186 44.964C25.5524 45.1364 25.5689 45.3117 25.5677 45.4872C25.5677 45.602 25.5607 45.7168 25.5478 45.8384C25.5373 45.9371 25.5221 46.0438 25.5045 46.1563H23.2335C23.2679 46.0155 23.3155 45.8556 23.3763 45.6766C23.4585 45.4366 23.5663 45.2058 23.698 44.9881C23.8219 44.7817 23.9801 44.5971 24.166 44.4418C24.3248 44.3044 24.5299 44.2296 24.7417 44.2318" fill="white"/>
<path d="M33.0577 42.4962C32.8759 42.247 32.635 42.0449 32.3557 41.9075C32.0445 41.7629 31.7031 41.6918 31.3589 41.6998H30.1596L28.8832 48.9075L28.8574 49.0487H30.3656C30.8571 49.0566 31.3404 48.9242 31.7567 48.6677C32.166 48.4091 32.513 48.066 32.7734 47.6625C33.0571 47.221 33.2661 46.7373 33.3923 46.2303C33.5327 45.681 33.6027 45.1166 33.6006 44.5503C33.6041 44.164 33.5601 43.7787 33.4695 43.4028C33.3925 43.0783 33.2536 42.7711 33.06 42.4974M30.3749 48.608H29.4155L30.5504 42.1428H31.3273C31.6034 42.1365 31.8771 42.1939 32.1264 42.3103C32.3479 42.4206 32.538 42.5831 32.6798 42.7831C32.8372 43.014 32.9506 43.271 33.0144 43.5416C33.0948 43.8759 33.1341 44.2184 33.1314 44.5618C33.1335 45.0866 33.0694 45.6096 32.9407 46.119C32.8285 46.5745 32.6437 47.0098 32.3932 47.4088C32.172 47.7597 31.8753 48.0589 31.5238 48.2856C31.1823 48.5013 30.7834 48.6134 30.3772 48.608" fill="white"/>
<path d="M37.0763 46.8764C37.0397 47.1031 36.9801 47.3257 36.8984 47.5408C36.8173 47.7602 36.7084 47.9688 36.5743 48.1616C36.4543 48.3355 36.3033 48.4867 36.1286 48.608C35.9749 48.7163 35.7901 48.7738 35.6009 48.7721C35.4905 48.7763 35.3809 48.7526 35.2826 48.7033C35.2001 48.6583 35.1302 48.5941 35.0791 48.5162C35.0247 48.4323 34.9851 48.34 34.9621 48.2431C34.9368 48.1366 34.9242 48.0276 34.9246 47.9183C34.9259 47.7165 34.9459 47.5153 34.9843 47.317L35.5834 43.9628H35.1071L34.5221 47.2746C34.4811 47.4868 34.46 47.7023 34.459 47.9183C34.4596 48.0699 34.478 48.2208 34.514 48.3682C34.5488 48.5165 34.6102 48.6575 34.6953 48.7847C34.7856 48.9136 34.9059 49.0194 35.0463 49.0934C35.2165 49.179 35.4062 49.2204 35.5974 49.2139C35.7872 49.2153 35.9746 49.1733 36.1449 49.0911C36.3067 49.0112 36.4551 48.9075 36.5849 48.7836C36.6705 48.7032 36.7488 48.6157 36.8189 48.5219C36.7966 48.6792 36.7803 48.8123 36.7686 48.9213L36.7557 49.0544H37.2237L37.2342 48.9397C37.2413 48.8742 37.2518 48.787 37.2646 48.6769C37.2775 48.5667 37.2939 48.4565 37.3103 48.3429L37.3606 48.0067C37.3769 47.8977 37.3922 47.8013 37.4062 47.7221L38.0766 43.957H37.6016L37.0763 46.8764Z" fill="white"/>
<path d="M41.428 43.9992C41.2112 43.8602 40.9555 43.7911 40.6967 43.8019C40.4975 43.8012 40.3007 43.8447 40.1211 43.9292C39.943 44.0119 39.7838 44.129 39.6531 44.2735C39.5206 44.4197 39.4174 44.589 39.3489 44.7727C39.2741 44.9678 39.2365 45.1747 39.2377 45.3832C39.2221 45.6596 39.309 45.9323 39.4823 46.1509C39.6348 46.3249 39.815 46.4737 40.0158 46.5915C40.0953 46.6374 40.1819 46.6914 40.2743 46.7533C40.3607 46.8125 40.4393 46.8819 40.5083 46.9599C40.5802 47.04 40.6391 47.1306 40.6827 47.2284C40.7287 47.3375 40.7514 47.4547 40.7494 47.5727C40.7509 47.737 40.724 47.9003 40.6698 48.0558C40.6202 48.1961 40.5445 48.326 40.4463 48.4391C40.3547 48.5447 40.2415 48.6303 40.1141 48.6904C39.9832 48.7497 39.8405 48.7799 39.6963 48.7787C39.5129 48.7869 39.3319 48.7352 39.1815 48.6319C39.0355 48.5189 38.9201 48.3722 38.8458 48.205L38.7861 48.0776L38.3965 48.3324L38.4374 48.4242C38.5365 48.6691 38.7113 48.8776 38.9373 49.0202C39.1633 49.1628 39.4291 49.2325 39.6975 49.2194C39.9155 49.2219 40.1313 49.1768 40.3293 49.0874C40.5143 49.0027 40.6796 48.8816 40.8149 48.7317C40.9508 48.5771 41.0541 48.3977 41.1191 48.2038C41.1897 47.9971 41.2249 47.7804 41.2232 47.5624C41.225 47.4032 41.196 47.2451 41.1378 47.0965C41.0845 46.9623 41.0111 46.8366 40.9202 46.7235C40.8312 46.6153 40.7285 46.5185 40.6148 46.4355C40.506 46.3563 40.3983 46.2851 40.2919 46.222C40.1259 46.1305 39.9781 46.0104 39.8555 45.8674C39.7503 45.7313 39.6981 45.5629 39.7081 45.3924C39.7076 45.2416 39.7329 45.0919 39.7829 44.9494C39.8279 44.8171 39.8969 44.6939 39.9865 44.5856C40.0712 44.4845 40.1754 44.4007 40.2931 44.3389C40.412 44.2777 40.5448 44.2469 40.6791 44.2494C40.8416 44.2397 41.0031 44.2798 41.1413 44.3642C41.2711 44.4563 41.3776 44.5764 41.4525 44.7153L41.5215 44.8381L41.8901 44.5604L41.8433 44.4709C41.7425 44.2834 41.5977 44.1222 41.4209 44.0004" fill="white"/>
<path d="M43.9377 42.5352H43.4627L43.2065 43.9616H42.5349L42.4858 44.3838H43.1433L42.5244 47.8265C42.5092 47.9091 42.4975 47.9894 42.4881 48.0686C42.4768 48.1488 42.4713 48.2297 42.4717 48.3107C42.4614 48.5181 42.5284 48.722 42.6601 48.8845C42.7346 48.962 42.8257 49.0222 42.9269 49.0607C43.0282 49.0992 43.1369 49.1151 43.2451 49.1071C43.4321 49.1046 43.6157 49.0586 43.781 48.9729L43.8664 48.9315L43.7657 48.4875L43.6172 48.5838C43.5634 48.6195 43.5036 48.6456 43.4405 48.6607C43.2428 48.7089 43.1153 48.686 43.0334 48.5988C42.9696 48.5168 42.9391 48.4146 42.9479 48.3119C42.9494 48.2455 42.9544 48.1792 42.9632 48.1134C42.9725 48.0307 42.9842 47.9516 42.9971 47.8838L43.6242 44.393H44.5321L44.5801 43.9707H43.6874L43.9377 42.5352Z" fill="white"/>
<path d="M50.5758 41.7012H47.2319L47.1406 42.143H48.5786L47.3395 49.0512H47.8146L49.0536 42.143H50.4892L50.5758 41.7012Z" fill="white"/>
<path d="M53.3241 44.3259C53.2267 44.1675 53.0898 44.036 52.9263 43.9438C52.7352 43.8433 52.5205 43.7942 52.3038 43.8015C51.9403 43.7981 51.5898 43.934 51.3269 44.1802C51.05 44.4383 50.825 44.745 50.6635 45.0844C50.4838 45.4531 50.351 45.8419 50.268 46.2423C50.1848 46.6195 50.1409 47.004 50.137 47.3899C50.108 47.8591 50.2308 48.3254 50.488 48.7222C50.6133 48.8864 50.7782 49.0176 50.9679 49.1041C51.1575 49.1906 51.3661 49.2297 51.5749 49.2179C51.9012 49.2236 52.2186 49.1135 52.4688 48.908C52.706 48.7134 52.9044 48.4772 53.0538 48.2115L53.1076 48.1151L52.7402 47.8672L52.6735 47.982C52.5539 48.1992 52.3953 48.3936 52.2055 48.5558C52.034 48.6997 51.8146 48.7769 51.5889 48.7726C51.4487 48.7796 51.3089 48.7511 51.1831 48.6898C51.0573 48.6285 50.9496 48.5365 50.8705 48.4226C50.6777 48.1126 50.5855 47.7524 50.6061 47.3899C50.6064 47.2399 50.615 47.0902 50.6319 46.9412C50.6448 46.8195 50.6623 46.6967 50.6869 46.5774H53.4399L53.4586 46.4799C53.4937 46.3031 53.5229 46.1218 53.5475 45.9348C53.5688 45.7826 53.5809 45.6293 53.5838 45.4758C53.5841 45.272 53.5645 45.0688 53.5253 44.8687C53.4891 44.6796 53.4194 44.4983 53.3194 44.3328M52.2886 44.2238C52.4153 44.218 52.5412 44.2464 52.6525 44.3059C52.7639 44.3654 52.8566 44.4537 52.9204 44.5612C52.9929 44.6837 53.0431 44.8177 53.069 44.9571C53.102 45.1296 53.1185 45.3048 53.1181 45.4803C53.1181 45.5951 53.1099 45.7099 53.0982 45.8315C53.0877 45.9302 53.0737 46.0369 53.0549 46.1494H50.784C50.8191 46.0082 50.8659 45.8487 50.9267 45.6697C51.0089 45.4297 51.1167 45.1989 51.2485 44.9812C51.3724 44.7748 51.5305 44.5902 51.7164 44.4349C51.8742 44.2979 52.0779 44.2227 52.2886 44.2238Z" fill="white"/>
<path d="M57.1505 43.967C56.9448 43.8458 56.7068 43.7878 56.4672 43.8006C56.1227 43.7988 55.7896 43.9213 55.5312 44.1448C55.2541 44.3872 55.0272 44.6799 54.8631 45.0066C54.6773 45.3701 54.5408 45.7559 54.4571 46.1542C54.3692 46.5586 54.3241 46.9708 54.3226 47.3843C54.3034 47.8372 54.4123 48.2863 54.6373 48.6822C54.748 48.8552 54.9042 48.9957 55.0896 49.0888C55.2749 49.182 55.4825 49.2242 55.6903 49.2112C55.9277 49.212 56.1611 49.151 56.3666 49.0345C56.5842 48.9085 56.774 48.7411 56.9247 48.5422L56.982 48.4688L56.7024 48.1027L56.6041 48.2381C56.4941 48.3954 56.3528 48.5293 56.1887 48.6317C56.0563 48.7144 55.9041 48.7616 55.7473 48.7687C55.5904 48.7757 55.4344 48.7423 55.2949 48.6719C55.1796 48.6028 55.0826 48.5081 55.0117 48.3953C54.9296 48.2602 54.873 48.1117 54.8444 47.957C54.8081 47.7678 54.7905 47.5757 54.7918 47.3832C54.7941 47.0245 54.831 46.6668 54.9017 46.3148C54.9698 45.9567 55.0817 45.608 55.2352 45.2763C55.3651 44.9895 55.5475 44.7286 55.7734 44.5063C55.8647 44.415 55.974 44.3428 56.0947 44.2943C56.2154 44.2458 56.3449 44.2218 56.4754 44.224C56.6213 44.2167 56.7665 44.2497 56.8943 44.3192C57.0076 44.399 57.1006 44.5035 57.1657 44.6245L57.2324 44.7393L57.6114 44.4765L57.5518 44.3812C57.4523 44.2173 57.3183 44.076 57.1587 43.967" fill="white"/>
<path d="M61.1127 44.2302C61.0233 44.1003 60.9028 43.9939 60.7617 43.9204C60.5915 43.8398 60.4049 43.7979 60.2159 43.7979C60.0269 43.7979 59.8403 43.8398 59.6701 43.9204C59.508 44.0002 59.3592 44.1039 59.229 44.2279C59.1484 44.3052 59.0744 44.3889 59.0079 44.4781L59.5929 41.2168H59.1167L57.7326 49.0488H58.2088L58.7177 46.1375C58.7608 45.9099 58.8239 45.6865 58.9061 45.4696C58.9863 45.25 59.0949 45.0414 59.229 44.8488C59.3486 44.6745 59.4997 44.5233 59.6748 44.4024C59.8283 44.2939 60.0132 44.2364 60.2024 44.2383C60.3128 44.2341 60.4224 44.2578 60.5207 44.3071C60.6035 44.3514 60.6732 44.4158 60.7231 44.4942C60.7777 44.578 60.8173 44.6704 60.8401 44.7673C60.8649 44.8734 60.877 44.982 60.8763 45.0909C60.8762 45.2926 60.8571 45.4939 60.8191 45.6922L60.22 49.0476H60.695L61.287 45.737C61.3291 45.5241 61.3502 45.3077 61.3502 45.0909C61.3497 44.9394 61.3317 44.7885 61.2964 44.6411C61.2608 44.4928 61.199 44.3518 61.1139 44.2245" fill="white"/>
<path d="M65.7477 44.2311C65.6587 44.1009 65.5381 43.9944 65.3967 43.9213C65.2265 43.8407 65.0399 43.7988 64.8509 43.7988C64.6619 43.7988 64.4753 43.8407 64.3051 43.9213C64.1432 44.001 63.9949 44.1047 63.8652 44.2288C63.7755 44.3145 63.6936 44.4078 63.6206 44.5077C63.63 44.4423 63.6406 44.3792 63.6499 44.3195C63.6651 44.2311 63.6768 44.1554 63.6838 44.09L63.7002 43.9546H63.224L63.2135 44.0693C63.2135 44.1336 63.196 44.2208 63.1843 44.3264C63.1726 44.4319 63.155 44.5444 63.1386 44.6603L63.0871 45.0046C63.0708 45.1193 63.0544 45.2088 63.0427 45.2869L62.3711 49.0531H62.8473L63.3668 46.1395C63.4024 45.9127 63.4616 45.69 63.5435 45.4751C63.6251 45.2556 63.7344 45.0471 63.8687 44.8542C63.9883 44.68 64.1394 44.5287 64.3145 44.4078C64.4677 44.2995 64.6521 44.242 64.841 44.2437C64.9513 44.2396 65.0609 44.2633 65.1592 44.3126C65.2415 44.357 65.3108 44.4214 65.3604 44.4996C65.4156 44.5832 65.4553 44.6756 65.4775 44.7728C65.5027 44.8788 65.5152 44.9874 65.5149 45.0964C65.5145 45.2982 65.4949 45.4995 65.4564 45.6977L64.8562 49.0531H65.3324L65.9174 45.7424C65.9598 45.5296 65.9813 45.3132 65.9817 45.0964C65.9815 44.9449 65.9635 44.7939 65.9279 44.6465C65.8925 44.498 65.8303 44.357 65.7442 44.23" fill="white"/>
<path d="M69.1594 43.8006C68.8168 43.8 68.4864 43.9257 68.2339 44.1529C67.9593 44.3945 67.7355 44.6865 67.5752 45.0124C67.3936 45.3775 67.2576 45.7628 67.1704 46.1599C67.0788 46.5662 67.0317 46.9809 67.03 47.397C67.008 47.8535 67.1239 48.3062 67.3634 48.6983C67.4724 48.8639 67.6238 48.9986 67.8024 49.089C67.981 49.1794 68.1806 49.2224 68.3814 49.2135C68.7198 49.2111 69.046 49.0889 69.2998 48.8693C69.577 48.6351 69.8044 48.3497 69.9691 48.0293C70.1551 47.6738 70.2946 47.2967 70.3844 46.907C70.4807 46.5064 70.5298 46.0964 70.5306 45.6848C70.549 45.2202 70.4408 44.7591 70.2171 44.3491C70.1099 44.17 69.9542 44.0236 69.7672 43.9262C69.5803 43.8287 69.3695 43.7841 69.1583 43.7971M68.4071 48.7671C68.2711 48.7769 68.1351 48.7486 68.0149 48.6854C67.8947 48.6222 67.7954 48.5268 67.7285 48.4103C67.5639 48.0948 67.4857 47.7429 67.5015 47.3889C67.504 47.0269 67.5432 46.6659 67.6185 46.3114C67.6886 45.9532 67.8001 45.604 67.9508 45.2706C68.0758 44.9846 68.254 44.7239 68.4761 44.5017C68.5619 44.4124 68.6654 44.3413 68.7803 44.2928C68.8952 44.2442 69.0191 44.2193 69.1442 44.2194C69.288 44.2156 69.4302 44.2497 69.556 44.3181C69.6734 44.3885 69.7707 44.4868 69.8392 44.6039C69.9211 44.7464 69.9777 44.9017 70.0065 45.0629C70.0435 45.2643 70.0616 45.4687 70.0603 45.6734C70.0571 46.0275 70.0178 46.3803 69.9433 46.7268C69.872 47.0769 69.7585 47.4175 69.6051 47.7412C69.4763 48.0199 69.2972 48.2734 69.0763 48.4894C68.9888 48.5765 68.8843 48.6454 68.7692 48.6923C68.6541 48.7392 68.5306 48.7631 68.4059 48.7626" fill="white"/>
<path d="M71.3477 49.0546H71.8227L73.2267 41.2227H72.7517L71.3477 49.0546Z" fill="white"/>
<path d="M75.6913 43.8006C75.3487 43.8002 75.0185 43.926 74.7658 44.1529C74.4913 44.3946 74.2675 44.6866 74.1071 45.0124C73.9255 45.3774 73.79 45.7628 73.7035 46.16C73.6113 46.5661 73.5642 46.9809 73.5631 47.397C73.5416 47.8535 73.6575 48.3061 73.8965 48.6983C74.0056 48.864 74.1572 48.9988 74.336 49.0892C74.5148 49.1796 74.7146 49.2225 74.9156 49.2136C75.2544 49.2114 75.5811 49.0892 75.8352 48.8693C76.1118 48.6346 76.3391 48.3493 76.5044 48.0293C76.6903 47.6738 76.8299 47.2967 76.9198 46.907C77.0159 46.5065 77.065 46.0964 77.0661 45.6849C77.0844 45.2202 76.9762 44.7592 76.7525 44.3492C76.6454 44.17 76.4897 44.0235 76.3028 43.9261C76.1158 43.8286 75.9049 43.784 75.6936 43.7972M74.9425 48.7672C74.8065 48.7771 74.6704 48.7488 74.5502 48.6856C74.43 48.6224 74.3307 48.5269 74.2639 48.4103C74.0992 48.0949 74.0205 47.743 74.0357 47.389C74.0391 47.0269 74.0783 46.6661 74.1527 46.3114C74.2227 45.9531 74.3347 45.6039 74.4862 45.2706C74.6112 44.9846 74.7893 44.7239 75.0115 44.5018C75.0972 44.4123 75.2007 44.3411 75.3156 44.2925C75.4306 44.244 75.5544 44.2191 75.6795 44.2195C75.8206 44.2128 75.9606 44.2453 76.0836 44.3133C76.2066 44.3814 76.3075 44.4821 76.3746 44.6039C76.4568 44.7465 76.5137 44.9017 76.5431 45.0629C76.5794 45.2644 76.597 45.4688 76.5957 45.6734C76.5927 46.0275 76.5535 46.3804 76.4787 46.7269C76.4069 47.0768 76.2934 47.4173 76.1406 47.7413C76.0126 48.0204 75.8333 48.274 75.6117 48.4895C75.5241 48.5765 75.4198 48.6455 75.3046 48.6924C75.1895 48.7393 75.066 48.7632 74.9413 48.7626" fill="white"/>
<path d="M81.1507 44.562C81.1057 44.435 81.0418 44.3151 80.9612 44.2063C80.854 44.07 80.7143 43.9618 80.5543 43.8911C80.3943 43.8204 80.2189 43.7896 80.0439 43.8012C79.6941 43.7979 79.3559 43.9237 79.0962 44.1535C78.8231 44.3934 78.6012 44.6839 78.4433 45.0084C78.2628 45.373 78.1303 45.7586 78.049 46.156C77.9611 46.5585 77.916 46.9688 77.9145 47.3804C77.8953 47.8338 77.9982 48.2842 78.2128 48.6863C78.3127 48.8579 78.4596 48.9985 78.6368 49.0924C78.814 49.1863 79.0145 49.2297 79.2155 49.2176C79.4286 49.2205 79.6391 49.1708 79.8274 49.073C79.999 48.9817 80.1537 48.8626 80.2849 48.7207C80.3463 48.6533 80.4038 48.5824 80.4569 48.5084L80.4253 48.6725C80.3574 49.0294 80.2826 49.3611 80.2018 49.6537C80.1335 49.9124 80.0345 50.1623 79.907 50.3984C79.8072 50.5828 79.666 50.7425 79.494 50.8655C79.3073 50.9746 79.093 51.03 78.8757 51.0251C78.6584 51.0202 78.4469 50.9554 78.2655 50.8379C78.0937 50.7133 77.9589 50.5462 77.8747 50.3537L77.8162 50.2217L77.4277 50.4765L77.4629 50.5683C77.568 50.8304 77.751 51.0555 77.9882 51.2143C78.251 51.3873 78.5623 51.4756 78.8786 51.4668C79.1778 51.4741 79.4729 51.3985 79.7303 51.2488C79.9669 51.0994 80.1618 50.8948 80.2977 50.6532C80.4529 50.3787 80.571 50.0855 80.6488 49.7811C80.7389 49.4517 80.8184 49.0925 80.8827 48.7012L81.7263 43.9607H81.2525L81.1507 44.562ZM78.5989 48.4109C78.5214 48.2735 78.4669 48.1247 78.4375 47.9702C78.4015 47.7776 78.3838 47.582 78.3849 47.3862C78.3894 47.028 78.4285 46.671 78.5018 46.3201C78.5738 45.9641 78.6877 45.6175 78.8411 45.2873C78.97 45.0015 79.1513 44.7413 79.3758 44.5196C79.4646 44.4297 79.571 44.3584 79.6886 44.3099C79.8062 44.2614 79.9326 44.2367 80.0602 44.2373C80.1869 44.2311 80.3127 44.2612 80.4222 44.324C80.5317 44.3868 80.6202 44.4794 80.6769 44.5907C80.837 44.9116 80.9126 45.2666 80.8968 45.6235C80.8951 45.9815 80.8559 46.3383 80.7798 46.6884C80.7061 47.0461 80.5915 47.3945 80.4382 47.727C80.3075 48.0131 80.1238 48.273 79.8965 48.4935C79.81 48.5819 79.7063 48.6524 79.5916 48.7009C79.4768 48.7494 79.3533 48.7749 79.2284 48.7758C79.1006 48.7788 78.9746 48.7466 78.8645 48.6829C78.7562 48.6172 78.6671 48.5251 78.6059 48.4155" fill="white"/>
<path d="M83.943 41.9283C83.8845 41.9267 83.8267 41.9404 83.7754 41.9678C83.724 41.9952 83.6809 42.0354 83.6505 42.0843C83.5943 42.1661 83.5642 42.2623 83.5639 42.3609C83.5573 42.4049 83.5607 42.4497 83.5738 42.4922C83.587 42.5348 83.6096 42.5739 83.64 42.6068C83.6705 42.6397 83.708 42.6656 83.7499 42.6826C83.7917 42.6996 83.8369 42.7073 83.8821 42.7052C83.9366 42.7058 83.9905 42.6938 84.0393 42.6701C84.0881 42.6463 84.1305 42.6115 84.1629 42.5686C84.2292 42.4838 84.264 42.3793 84.2612 42.2725C84.2641 42.1911 84.2408 42.1107 84.1945 42.043C84.1659 42.0049 84.1279 41.9744 84.0842 41.9544C84.0405 41.9343 83.9924 41.9254 83.9442 41.9283" fill="white"/>
<path d="M82.5254 49.0526H83.0004L83.9036 43.9609H83.4286L82.5254 49.0526Z" fill="white"/>
<path d="M87.9181 44.3259C87.8201 44.1675 87.6828 44.0361 87.5191 43.9438C87.3285 43.8433 87.1141 43.7942 86.8978 43.8015C86.5341 43.7987 86.1834 43.9344 85.9197 44.1802C85.6434 44.4387 85.4184 44.7453 85.2563 45.0844C85.0775 45.4533 84.9451 45.8421 84.862 46.2423C84.7785 46.6194 84.7346 47.0039 84.731 47.3898C84.702 47.8591 84.8248 48.3254 85.082 48.7221C85.2073 48.8863 85.3723 49.0175 85.5619 49.104C85.7516 49.1905 85.9601 49.2297 86.1689 49.2179C86.4948 49.2234 86.8118 49.1134 87.0616 48.908C87.2989 48.7133 87.4972 48.4772 87.6466 48.2115L87.7005 48.1151L87.3331 47.8672L87.2664 47.982C87.1471 48.1994 86.9885 48.3939 86.7984 48.5557C86.6269 48.6997 86.4074 48.7769 86.1818 48.7726C86.0415 48.7796 85.9017 48.7511 85.7759 48.6898C85.6501 48.6285 85.5425 48.5365 85.4634 48.4226C85.2705 48.1126 85.1783 47.7524 85.199 47.3898C85.1992 47.24 85.2073 47.0902 85.2236 46.9412C85.2364 46.8195 85.2552 46.6967 85.2786 46.5774H88.0327L88.0514 46.4798C88.0865 46.3031 88.1169 46.1218 88.1415 45.9348C88.1623 45.7825 88.1744 45.6293 88.1778 45.4757C88.1783 45.272 88.1588 45.0687 88.1193 44.8687C88.083 44.6798 88.0138 44.4985 87.9146 44.3328M86.8779 44.2307C87.0045 44.2258 87.13 44.2546 87.2412 44.3139C87.3524 44.3733 87.4452 44.4611 87.5097 44.568C87.5816 44.6908 87.6314 44.8247 87.6571 44.9639C87.6914 45.1363 87.7083 45.3116 87.7075 45.4872C87.7075 45.602 87.6993 45.7167 87.6864 45.8384C87.6759 45.9371 87.6618 46.0438 87.6431 46.1562H85.3721C85.4072 46.0155 85.4552 45.8556 85.5161 45.6766C85.598 45.4365 85.7058 45.2057 85.8378 44.988C85.9615 44.7816 86.1198 44.5969 86.3058 44.4418C86.4646 44.3044 86.6697 44.2296 86.8814 44.2318" fill="white"/>
<path d="M91.8889 44.5593L91.8421 44.4698C91.7414 44.2822 91.5967 44.1209 91.4197 43.9993C91.2027 43.86 90.9465 43.791 90.6873 43.8019C90.4881 43.8013 90.2913 43.8448 90.1116 43.9293C89.9338 44.0123 89.7747 44.1293 89.6437 44.2735C89.5108 44.4197 89.4073 44.589 89.3383 44.7727C89.2648 44.9682 89.2275 45.1749 89.2283 45.3832C89.2127 45.6597 89.2996 45.9323 89.4729 46.1509C89.6257 46.3247 89.8058 46.4734 90.0064 46.5916C90.0871 46.6375 90.1725 46.6914 90.2649 46.7534C90.3513 46.8126 90.4298 46.882 90.4989 46.9599C90.5702 47.0403 90.6286 47.1308 90.6721 47.2285C90.7181 47.3375 90.7408 47.4547 90.7388 47.5727C90.74 47.737 90.7131 47.9003 90.6592 48.0558C90.6095 48.196 90.5337 48.326 90.4358 48.4391C90.3435 48.5445 90.2299 48.6301 90.1023 48.6904C89.971 48.7499 89.828 48.7801 89.6834 48.7788C89.5004 48.7867 89.3198 48.7351 89.1698 48.6319C89.0236 48.5193 88.9085 48.3725 88.8352 48.205L88.7732 48.0776L88.3848 48.3324L88.4257 48.4242C88.5247 48.669 88.6993 48.8773 88.9251 49.0199C89.1508 49.1625 89.4164 49.2323 89.6846 49.2195C89.9026 49.222 90.1184 49.1769 90.3164 49.0875C90.5014 49.0027 90.6666 48.8816 90.802 48.7317C90.9381 48.5773 91.0415 48.3979 91.1062 48.2039C91.1768 47.9972 91.212 47.7804 91.2103 47.5624C91.2115 47.4034 91.1829 47.2454 91.126 47.0965C91.0726 46.9624 90.9993 46.8367 90.9084 46.7235C90.8194 46.6149 90.7164 46.5181 90.6019 46.4355C90.4984 46.359 90.3911 46.2878 90.2802 46.2221C90.1138 46.1306 89.9655 46.0105 89.8426 45.8675C89.7378 45.7312 89.6856 45.5629 89.6952 45.3924C89.6949 45.2415 89.721 45.0917 89.7724 44.9495C89.817 44.8173 89.8855 44.694 89.9747 44.5857C90.059 44.4841 90.1633 44.4002 90.2813 44.339C90.3998 44.2777 90.5323 44.2469 90.6662 44.2495C90.8283 44.2399 90.9894 44.28 91.1272 44.3642C91.2579 44.4558 91.3648 44.576 91.4396 44.7154L91.5098 44.8381L91.8889 44.5593Z" fill="white"/>
<path d="M91.498 50.4397H91.9368L93.1068 47.9082H92.5874L91.498 50.4397Z" fill="white"/>
<path d="M96.5452 48.9108L96.5195 49.0531H96.9946L98.271 41.8431L98.2979 41.7031H97.8217L96.5452 48.9108Z" fill="white"/>
<path d="M102.113 44.2311C102.024 44.1012 101.903 43.9948 101.762 43.9213C101.592 43.8407 101.405 43.7988 101.216 43.7988C101.027 43.7988 100.841 43.8407 100.67 43.9213C100.508 44.0015 100.36 44.1052 100.229 44.2288C100.14 44.3145 100.058 44.4079 99.9859 44.5077C99.9952 44.4423 100.006 44.3792 100.016 44.3195C100.03 44.2311 100.042 44.1554 100.049 44.09L100.067 43.9546H99.5846L99.5729 44.0693C99.5671 44.1336 99.5565 44.2208 99.5436 44.3264C99.5308 44.4319 99.5144 44.5444 99.498 44.6603L99.4465 45.0046C99.4301 45.1193 99.4137 45.2088 99.4009 45.2869L98.7305 49.0531H99.2079L99.7262 46.1395C99.7632 45.9128 99.8227 45.6903 99.904 45.4751C99.985 45.2554 100.094 45.0468 100.229 44.8542C100.348 44.6804 100.499 44.5292 100.673 44.4078C100.826 44.2995 101.011 44.242 101.2 44.2437C101.311 44.2397 101.42 44.2634 101.519 44.3126C101.601 44.3574 101.67 44.4217 101.721 44.4996C101.776 44.5835 101.815 44.6759 101.838 44.7728C101.863 44.8789 101.875 44.9875 101.875 45.0964C101.875 45.2982 101.855 45.4996 101.816 45.6977L101.217 49.0531H101.693L102.278 45.7424C102.321 45.5297 102.343 45.3133 102.342 45.0964C102.342 44.9448 102.323 44.7939 102.287 44.6465C102.252 44.4984 102.191 44.3574 102.106 44.23" fill="white"/>
<path d="M106.23 43.967C106.024 43.8457 105.785 43.7877 105.545 43.8006C105.201 43.7988 104.868 43.9213 104.609 44.1448C104.332 44.3872 104.105 44.6799 103.941 45.0066C103.755 45.3701 103.619 45.7559 103.535 46.1542C103.447 46.5586 103.402 46.9708 103.401 47.3844C103.381 47.8372 103.49 48.2864 103.715 48.6822C103.826 48.8552 103.982 48.9956 104.168 49.0887C104.353 49.1818 104.561 49.2241 104.768 49.2112C105.005 49.2119 105.238 49.151 105.443 49.0345C105.661 48.9083 105.851 48.7409 106.002 48.5422L106.059 48.4688L105.778 48.1027L105.68 48.2381C105.571 48.3957 105.43 48.5296 105.266 48.6317C105.133 48.7143 104.981 48.7615 104.824 48.7685C104.667 48.7756 104.511 48.7423 104.372 48.6719C104.257 48.6027 104.16 48.508 104.09 48.3953C104.007 48.2607 103.95 48.1121 103.922 47.957C103.885 47.768 103.866 47.5758 103.867 47.3832C103.872 47.0243 103.911 46.6665 103.984 46.3148C104.052 45.9567 104.164 45.608 104.318 45.2763C104.447 44.9896 104.629 44.7286 104.855 44.5063C104.946 44.415 105.056 44.3429 105.176 44.2944C105.297 44.2459 105.427 44.2219 105.557 44.224C105.703 44.2167 105.848 44.2497 105.976 44.3193C106.09 44.3986 106.183 44.5032 106.248 44.6245L106.315 44.7393L106.694 44.4765L106.633 44.3812C106.534 44.2172 106.4 44.0759 106.24 43.967" fill="white"/>
<path d="M107.413 48.4672C107.383 48.4282 107.343 48.3972 107.298 48.3772C107.252 48.3571 107.202 48.3486 107.153 48.3525C107.095 48.3516 107.037 48.365 106.985 48.3915C106.934 48.4179 106.889 48.4566 106.857 48.5039C106.797 48.5857 106.765 48.6835 106.764 48.7839C106.758 48.8286 106.763 48.8739 106.777 48.9168C106.791 48.9596 106.814 48.9989 106.845 49.0318C106.877 49.0647 106.915 49.0904 106.958 49.1071C107 49.1237 107.046 49.131 107.092 49.1282C107.147 49.1285 107.2 49.1167 107.25 49.0936C107.299 49.0706 107.342 49.0369 107.376 48.9951C107.446 48.9108 107.483 48.8051 107.48 48.6967C107.483 48.6153 107.459 48.535 107.413 48.4672Z" fill="white"/>
</g>
<defs>
<clipPath id="clip0_197_5475">
<rect width="117" height="70" fill="white"/>
</clipPath>
</defs>
</svg>
