<svg width="117" height="70" viewBox="0 0 117 70" fill="none" xmlns="http://www.w3.org/2000/svg">
<g clip-path="url(#clip0_197_5313)">
<mask id="mask0_197_5313" style="mask-type:luminance" maskUnits="userSpaceOnUse" x="4" y="20" width="108" height="30">
<path d="M111.996 20.8867H4.9707V49.0898H111.996V20.8867Z" fill="white"/>
</mask>
<g mask="url(#mask0_197_5313)">
<path d="M87.6254 46.4769C89.13 46.5893 90.6323 46.711 92.1322 46.8418V20.8867H87.6254V46.4769ZM15.124 36.8479L9.25407 20.8867H4.9707V49.0898C6.46986 48.8802 7.97214 48.6794 9.47754 48.4874V33.1516L14.6969 47.8539C16.3349 47.6673 17.9795 47.4905 19.6308 47.3238V20.8867H15.124V36.8479ZM23.9645 46.9175C28.118 46.5473 32.291 46.2432 36.4835 46.0052V41.6446C33.805 41.7976 31.1342 41.9766 28.4713 42.1816V35.5913C30.2181 35.5741 32.5195 35.5213 34.5553 35.5466V31.1916C32.9267 31.1916 30.3094 31.2146 28.4713 31.2375V25.2841H36.4835V20.8867H23.9645V46.9175ZM39.3687 25.2841H44.0861V45.6507C45.5861 45.5948 47.0884 45.5481 48.593 45.5107V25.2841H53.3104V20.8867H39.3687V25.2841ZM56.2027 45.3925H60.7095V35.3354H66.8192V30.9851H60.7095V25.2841H68.7825V20.8867H56.2027V45.3925ZM111.996 20.8867H107.046L103.783 28.3079L100.85 20.8867H95.9745L101.214 34.1431L95.4936 47.1505C97.0762 47.3035 98.6553 47.4649 100.231 47.6348L103.557 40.0736L106.852 48.4082C108.568 48.6247 110.28 48.8519 111.988 49.0898H111.995L106.125 34.2349L111.996 20.8867ZM76.1804 20.8867H71.6736V45.6082C75.7694 45.7467 79.8484 45.949 83.9106 46.2152V41.8546C81.3413 41.6863 78.7646 41.5436 76.1804 41.4266V20.8867Z" fill="white"/>
</g>
</g>
<defs>
<clipPath id="clip0_197_5313">
<rect width="117" height="70" fill="white"/>
</clipPath>
</defs>
</svg>
