<svg width="117" height="70" viewBox="0 0 117 70" fill="none" xmlns="http://www.w3.org/2000/svg">
<path fill-rule="evenodd" clip-rule="evenodd" d="M14.9085 34.3067C16.8812 33.6087 17.8526 32.1538 17.8526 29.9023C17.8526 26.4512 15.69 24.5055 11.8534 24.5055H4.67773V45.2049H11.7163C16.0421 45.2049 18.3267 43.1817 18.3267 39.3413C18.3273 36.7697 17.2512 35.1862 14.9085 34.3067ZM8.68758 28.0245H10.6187C12.94 28.0245 13.7319 28.624 13.7319 30.3739C13.7319 32.0709 12.8555 32.7749 10.7345 32.7749H8.68697L8.68758 28.0245ZM10.8141 41.6865H8.68758V36.1906H10.6824C13.1721 36.1906 14.2121 36.9871 14.2121 38.8914C14.2121 40.8323 13.177 41.6865 10.8141 41.6865ZM39.3534 24.5055H27.0385V45.2049H39.3534V41.6349H31.0489V35.9317H38.3833V32.4644H31.0489V28.0245H39.3534V24.5055ZM57.5983 24.5055H53.0079L47.4423 45.2049H51.6151L52.6967 40.8786H57.9413L58.9807 45.2049H63.1963L57.5983 24.5055ZM55.3138 29.5155L57.1077 37.4118H53.4984L55.3138 29.5155ZM89.0028 24.5055V45.2049H85.2042L85.1877 33.7253L82.0323 45.2049H78.7819L75.5762 33.7367L75.5891 45.2049H71.7446V24.5055H76.6823L80.4135 38.3994L84.1006 24.5055H89.0028ZM111.964 30.5751V30.3847C111.964 26.3479 109.549 23.9883 105.402 23.9883C101.27 23.9883 98.4992 26.4933 98.4992 30.2393C98.4992 33.0032 99.9189 34.6804 103.36 35.9833L105.881 36.9355C107.453 37.5314 108.203 38.4048 108.203 39.6375C108.203 41.1062 106.953 42.2037 105.285 42.2037C103.174 42.2037 102.187 41.0396 102.14 38.4931H98.03C98.0251 38.6842 98.0251 38.8812 98.0251 39.0728C98.0251 43.2388 100.705 45.7221 105.189 45.7221C109.431 45.7221 112.318 43.0982 112.318 39.2428C112.318 36.3143 110.887 34.6215 107.275 33.2813L104.857 32.3803C103.29 31.8012 102.616 31.0353 102.616 29.8458C102.616 28.4744 103.734 27.5061 105.312 27.5061C107.026 27.5061 108.15 28.6498 108.15 30.3841V30.5745L111.964 30.5751Z" fill="#F7F7F7"/>
</svg>
